solid OpenSCAD_Model
  facet normal -1 0 0
    outer loop
      vertex 0 0 2
      vertex 0 76 56
      vertex 0 76 2
    endloop
  endfacet
  facet normal -1 -0 0
    outer loop
      vertex 0 76 56
      vertex 0 0 2
      vertex 0 0 56
    endloop
  endfacet
  facet normal 0 0 1
    outer loop
      vertex 26 76 56
      vertex 24.5 74.5 56
      vertex 26 0 56
    endloop
  endfacet
  facet normal 0 0 1
    outer loop
      vertex 26 76 56
      vertex 1.5 74.5 56
      vertex 24.5 74.5 56
    endloop
  endfacet
  facet normal 0 0 1
    outer loop
      vertex 1.5 74.5 56
      vertex 0 76 56
      vertex 1.5 1.5 56
    endloop
  endfacet
  facet normal -0 0 1
    outer loop
      vertex 0 76 56
      vertex 1.5 74.5 56
      vertex 26 76 56
    endloop
  endfacet
  facet normal -0 0 1
    outer loop
      vertex 24.5 1.5 56
      vertex 26 0 56
      vertex 24.5 74.5 56
    endloop
  endfacet
  facet normal -0 0 1
    outer loop
      vertex 1.5 1.5 56
      vertex 26 0 56
      vertex 24.5 1.5 56
    endloop
  endfacet
  facet normal 0 0 1
    outer loop
      vertex 1.5 1.5 56
      vertex 0 0 56
      vertex 26 0 56
    endloop
  endfacet
  facet normal 0 0 1
    outer loop
      vertex 0 0 56
      vertex 1.5 1.5 56
      vertex 0 76 56
    endloop
  endfacet
  facet normal 1 -0 0
    outer loop
      vertex 26 0 56
      vertex 26 76 2
      vertex 26 76 56
    endloop
  endfacet
  facet normal 1 0 0
    outer loop
      vertex 26 76 2
      vertex 26 0 56
      vertex 26 0 2
    endloop
  endfacet
  facet normal 0 0 1
    outer loop
      vertex 26 76 2
      vertex 32.4 65 2
      vertex 32.3605 66.2558 2
    endloop
  endfacet
  facet normal 0 0 1
    outer loop
      vertex 32.4 65 2
      vertex 26 0 2
      vertex 32.4 10 2
    endloop
  endfacet
  facet normal 0 0 1
    outer loop
      vertex 26 76 2
      vertex 32.3605 66.2558 2
      vertex 32.2423 67.5067 2
    endloop
  endfacet
  facet normal 0 0 1
    outer loop
      vertex 32.4 10 2
      vertex 26 0 2
      vertex 32.3605 8.74419 2
    endloop
  endfacet
  facet normal 0 0 1
    outer loop
      vertex 26 76 2
      vertex 32.2423 67.5067 2
      vertex 32.0457 68.7476 2
    endloop
  endfacet
  facet normal 0 0 1
    outer loop
      vertex 32.3605 8.74419 2
      vertex 26 0 2
      vertex 32.2423 7.49333 2
    endloop
  endfacet
  facet normal 0 0 1
    outer loop
      vertex 26 76 2
      vertex 32.0457 68.7476 2
      vertex 31.7717 69.9738 2
    endloop
  endfacet
  facet normal 0 0 1
    outer loop
      vertex 32.2423 7.49333 2
      vertex 26 0 2
      vertex 32.0457 6.25237 2
    endloop
  endfacet
  facet normal 0 0 1
    outer loop
      vertex 26 76 2
      vertex 31.7717 69.9738 2
      vertex 31.4211 71.1803 2
    endloop
  endfacet
  facet normal 0 0 1
    outer loop
      vertex 32.0457 6.25237 2
      vertex 26 0 2
      vertex 31.7717 5.0262 2
    endloop
  endfacet
  facet normal 0 0 1
    outer loop
      vertex 26 76 2
      vertex 31.4211 71.1803 2
      vertex 30.9955 72.3625 2
    endloop
  endfacet
  facet normal 0 0 1
    outer loop
      vertex 31.7717 5.0262 2
      vertex 26 0 2
      vertex 31.4211 3.81966 2
    endloop
  endfacet
  facet normal 0 0 1
    outer loop
      vertex 26 76 2
      vertex 30.9955 72.3625 2
      vertex 30.4965 73.5156 2
    endloop
  endfacet
  facet normal 0 0 1
    outer loop
      vertex 31.4211 3.81966 2
      vertex 26 0 2
      vertex 30.9955 2.63751 2
    endloop
  endfacet
  facet normal 0 0 1
    outer loop
      vertex 26 76 2
      vertex 30.4965 73.5156 2
      vertex 29.9261 74.6351 2
    endloop
  endfacet
  facet normal 0 0 1
    outer loop
      vertex 30.9955 2.63751 2
      vertex 26 0 2
      vertex 30.4965 1.48441 2
    endloop
  endfacet
  facet normal 0 0 1
    outer loop
      vertex 26 76 2
      vertex 29.9261 74.6351 2
      vertex 29.2866 75.7165 2
    endloop
  endfacet
  facet normal 0 0 1
    outer loop
      vertex 30.4965 1.48441 2
      vertex 26 0 2
      vertex 29.9261 0.364926 2
    endloop
  endfacet
  facet normal -0 0 1
    outer loop
      vertex 26 76 2
      vertex 29.2866 75.7165 2
      vertex 28.5803 76.7557 2
    endloop
  endfacet
  facet normal 0 0 1
    outer loop
      vertex 32.4 65 2
      vertex 26 76 2
      vertex 26 0 2
    endloop
  endfacet
  facet normal 0 0 1
    outer loop
      vertex 26 76 2
      vertex 28.5803 76.7557 2
      vertex 27.8103 77.7485 2
    endloop
  endfacet
  facet normal 0 0 1
    outer loop
      vertex 29.9261 0.364926 2
      vertex 26 0 2
      vertex 29.2866 -0.716536 2
    endloop
  endfacet
  facet normal 0 0 1
    outer loop
      vertex 26 76 2
      vertex 27.8103 77.7485 2
      vertex 26.9794 78.6909 2
    endloop
  endfacet
  facet normal 0 0 1
    outer loop
      vertex 29.2866 -0.716536 2
      vertex 26 0 2
      vertex 28.5803 -1.7557 2
    endloop
  endfacet
  facet normal 0 0 1
    outer loop
      vertex 26 76 2
      vertex 26.9794 78.6909 2
      vertex 26.0909 79.5794 2
    endloop
  endfacet
  facet normal 0 0 1
    outer loop
      vertex 28.5803 -1.7557 2
      vertex 26 0 2
      vertex 27.8103 -2.74848 2
    endloop
  endfacet
  facet normal 0 0 1
    outer loop
      vertex 27.8103 -2.74848 2
      vertex 26 0 2
      vertex 26.9794 -3.69094 2
    endloop
  endfacet
  facet normal 0 0 1
    outer loop
      vertex 25.1485 80.4103 2
      vertex 26 76 2
      vertex 26.0909 79.5794 2
    endloop
  endfacet
  facet normal 0 0 1
    outer loop
      vertex 24.1557 81.1803 2
      vertex 26 76 2
      vertex 25.1485 80.4103 2
    endloop
  endfacet
  facet normal 0 0 1
    outer loop
      vertex 23.1165 81.8866 2
      vertex 26 76 2
      vertex 24.1557 81.1803 2
    endloop
  endfacet
  facet normal 0 0 1
    outer loop
      vertex 22.0351 82.5261 2
      vertex 26 76 2
      vertex 23.1165 81.8866 2
    endloop
  endfacet
  facet normal 0 0 1
    outer loop
      vertex 20.9156 83.0965 2
      vertex 26 76 2
      vertex 22.0351 82.5261 2
    endloop
  endfacet
  facet normal 0 0 1
    outer loop
      vertex 19.7625 83.5955 2
      vertex 26 76 2
      vertex 20.9156 83.0965 2
    endloop
  endfacet
  facet normal 0 0 1
    outer loop
      vertex 18.5803 84.0211 2
      vertex 26 76 2
      vertex 19.7625 83.5955 2
    endloop
  endfacet
  facet normal 0 0 1
    outer loop
      vertex 17.3738 84.3717 2
      vertex 26 76 2
      vertex 18.5803 84.0211 2
    endloop
  endfacet
  facet normal 0 0 1
    outer loop
      vertex 16.1476 84.6457 2
      vertex 26 76 2
      vertex 17.3738 84.3717 2
    endloop
  endfacet
  facet normal 0 0 1
    outer loop
      vertex 14.9067 84.8423 2
      vertex 26 76 2
      vertex 16.1476 84.6457 2
    endloop
  endfacet
  facet normal 0 0 1
    outer loop
      vertex 13.6558 84.9605 2
      vertex 26 76 2
      vertex 14.9067 84.8423 2
    endloop
  endfacet
  facet normal 0 0 1
    outer loop
      vertex 0 76 2
      vertex 13.6558 84.9605 2
      vertex 12.4 85 2
    endloop
  endfacet
  facet normal 0 0 1
    outer loop
      vertex 0 76 2
      vertex 12.4 85 2
      vertex 11.1442 84.9605 2
    endloop
  endfacet
  facet normal 0 0 1
    outer loop
      vertex 0 76 2
      vertex 11.1442 84.9605 2
      vertex 9.89333 84.8423 2
    endloop
  endfacet
  facet normal 0 0 1
    outer loop
      vertex 0 76 2
      vertex 9.89333 84.8423 2
      vertex 8.65237 84.6457 2
    endloop
  endfacet
  facet normal 0 0 1
    outer loop
      vertex 0 76 2
      vertex 8.65237 84.6457 2
      vertex 7.4262 84.3717 2
    endloop
  endfacet
  facet normal 0 0 1
    outer loop
      vertex 0 76 2
      vertex 7.4262 84.3717 2
      vertex 6.21966 84.0211 2
    endloop
  endfacet
  facet normal 0 0 1
    outer loop
      vertex 0 76 2
      vertex 6.21966 84.0211 2
      vertex 5.03751 83.5955 2
    endloop
  endfacet
  facet normal 0 0 1
    outer loop
      vertex 0 76 2
      vertex 5.03751 83.5955 2
      vertex 3.88441 83.0965 2
    endloop
  endfacet
  facet normal 0 0 1
    outer loop
      vertex 0 76 2
      vertex 3.88441 83.0965 2
      vertex 2.76493 82.5261 2
    endloop
  endfacet
  facet normal 0 0 1
    outer loop
      vertex 0 76 2
      vertex 2.76493 82.5261 2
      vertex 1.68346 81.8866 2
    endloop
  endfacet
  facet normal 0 0 1
    outer loop
      vertex 0 76 2
      vertex 1.68346 81.8866 2
      vertex 0.644295 81.1803 2
    endloop
  endfacet
  facet normal 0 0 1
    outer loop
      vertex 13.6558 84.9605 2
      vertex 0 76 2
      vertex 26 76 2
    endloop
  endfacet
  facet normal -0 0 1
    outer loop
      vertex -1.29094 79.5794 2
      vertex 0 76 2
      vertex -0.348479 80.4103 2
    endloop
  endfacet
  facet normal -0 0 1
    outer loop
      vertex -0.348479 80.4103 2
      vertex 0 76 2
      vertex 0.644295 81.1803 2
    endloop
  endfacet
  facet normal 0 0 1
    outer loop
      vertex 26.9794 -3.69094 2
      vertex 26 0 2
      vertex 26.0909 -4.57937 2
    endloop
  endfacet
  facet normal 0 0 1
    outer loop
      vertex 26 0 2
      vertex 25.1485 -5.41026 2
      vertex 26.0909 -4.57937 2
    endloop
  endfacet
  facet normal 0 0 1
    outer loop
      vertex 26 0 2
      vertex 24.1557 -6.18034 2
      vertex 25.1485 -5.41026 2
    endloop
  endfacet
  facet normal 0 0 1
    outer loop
      vertex 26 0 2
      vertex 23.1165 -6.88656 2
      vertex 24.1557 -6.18034 2
    endloop
  endfacet
  facet normal 0 0 1
    outer loop
      vertex 26 0 2
      vertex 22.0351 -7.52613 2
      vertex 23.1165 -6.88656 2
    endloop
  endfacet
  facet normal 0 0 1
    outer loop
      vertex 26 0 2
      vertex 20.9156 -8.09654 2
      vertex 22.0351 -7.52613 2
    endloop
  endfacet
  facet normal 0 0 1
    outer loop
      vertex 26 0 2
      vertex 19.7625 -8.59553 2
      vertex 20.9156 -8.09654 2
    endloop
  endfacet
  facet normal 0 0 1
    outer loop
      vertex 26 0 2
      vertex 18.5803 -9.02113 2
      vertex 19.7625 -8.59553 2
    endloop
  endfacet
  facet normal 0 0 1
    outer loop
      vertex 26 0 2
      vertex 17.3738 -9.37166 2
      vertex 18.5803 -9.02113 2
    endloop
  endfacet
  facet normal 0 0 1
    outer loop
      vertex 26 0 2
      vertex 16.1476 -9.64574 2
      vertex 17.3738 -9.37166 2
    endloop
  endfacet
  facet normal 0 0 1
    outer loop
      vertex 26 0 2
      vertex 14.9067 -9.84229 2
      vertex 16.1476 -9.64574 2
    endloop
  endfacet
  facet normal 0 0 1
    outer loop
      vertex 26 0 2
      vertex 13.6558 -9.96053 2
      vertex 14.9067 -9.84229 2
    endloop
  endfacet
  facet normal -0 0 1
    outer loop
      vertex 0 0 2
      vertex 13.6558 -9.96053 2
      vertex 26 0 2
    endloop
  endfacet
  facet normal 0 0 1
    outer loop
      vertex 13.6558 -9.96053 2
      vertex 0 0 2
      vertex 12.4 -10 2
    endloop
  endfacet
  facet normal 0 0 1
    outer loop
      vertex 12.4 -10 2
      vertex 0 0 2
      vertex 11.1442 -9.96053 2
    endloop
  endfacet
  facet normal 0 0 1
    outer loop
      vertex 11.1442 -9.96053 2
      vertex 0 0 2
      vertex 9.89333 -9.84229 2
    endloop
  endfacet
  facet normal 0 0 1
    outer loop
      vertex 9.89333 -9.84229 2
      vertex 0 0 2
      vertex 8.65237 -9.64574 2
    endloop
  endfacet
  facet normal 0 0 1
    outer loop
      vertex 8.65237 -9.64574 2
      vertex 0 0 2
      vertex 7.4262 -9.37166 2
    endloop
  endfacet
  facet normal 0 0 1
    outer loop
      vertex 7.4262 -9.37166 2
      vertex 0 0 2
      vertex 6.21966 -9.02113 2
    endloop
  endfacet
  facet normal 0 0 1
    outer loop
      vertex 6.21966 -9.02113 2
      vertex 0 0 2
      vertex 5.03751 -8.59553 2
    endloop
  endfacet
  facet normal 0 0 1
    outer loop
      vertex 5.03751 -8.59553 2
      vertex 0 0 2
      vertex 3.88441 -8.09654 2
    endloop
  endfacet
  facet normal 0 0 1
    outer loop
      vertex 3.88441 -8.09654 2
      vertex 0 0 2
      vertex 2.76493 -7.52613 2
    endloop
  endfacet
  facet normal 0 0 1
    outer loop
      vertex 2.76493 -7.52613 2
      vertex 0 0 2
      vertex 1.68346 -6.88656 2
    endloop
  endfacet
  facet normal 0 0 1
    outer loop
      vertex 1.68346 -6.88656 2
      vertex 0 0 2
      vertex 0.644295 -6.18034 2
    endloop
  endfacet
  facet normal 0 0 1
    outer loop
      vertex 0 0 2
      vertex -0.348479 -5.41026 2
      vertex 0.644295 -6.18034 2
    endloop
  endfacet
  facet normal 0 0 1
    outer loop
      vertex 0 76 2
      vertex -7.6 65 2
      vertex 0 0 2
    endloop
  endfacet
  facet normal -0 0 1
    outer loop
      vertex -2.17937 78.6909 2
      vertex 0 76 2
      vertex -1.29094 79.5794 2
    endloop
  endfacet
  facet normal -0 0 1
    outer loop
      vertex -7.6 10 2
      vertex 0 0 2
      vertex -7.6 65 2
    endloop
  endfacet
  facet normal -0 0 1
    outer loop
      vertex -3.01026 77.7485 2
      vertex 0 76 2
      vertex -2.17937 78.6909 2
    endloop
  endfacet
  facet normal -0 -0 1
    outer loop
      vertex -7.56053 8.74419 2
      vertex 0 0 2
      vertex -7.6 10 2
    endloop
  endfacet
  facet normal -0 0 1
    outer loop
      vertex -3.78034 76.7557 2
      vertex 0 76 2
      vertex -3.01026 77.7485 2
    endloop
  endfacet
  facet normal 0 0 1
    outer loop
      vertex 0 0 2
      vertex -1.29094 -4.57937 2
      vertex -0.348479 -5.41026 2
    endloop
  endfacet
  facet normal 0 0 1
    outer loop
      vertex -4.48656 75.7165 2
      vertex 0 76 2
      vertex -3.78034 76.7557 2
    endloop
  endfacet
  facet normal 0 0 1
    outer loop
      vertex 0 0 2
      vertex -2.17937 -3.69094 2
      vertex -1.29094 -4.57937 2
    endloop
  endfacet
  facet normal 0 0 1
    outer loop
      vertex -5.12613 74.6351 2
      vertex 0 76 2
      vertex -4.48656 75.7165 2
    endloop
  endfacet
  facet normal 0 0 1
    outer loop
      vertex 0 0 2
      vertex -3.01026 -2.74848 2
      vertex -2.17937 -3.69094 2
    endloop
  endfacet
  facet normal 0 0 1
    outer loop
      vertex -5.69654 73.5156 2
      vertex 0 76 2
      vertex -5.12613 74.6351 2
    endloop
  endfacet
  facet normal 0 0 1
    outer loop
      vertex 0 0 2
      vertex -3.78034 -1.7557 2
      vertex -3.01026 -2.74848 2
    endloop
  endfacet
  facet normal 0 0 1
    outer loop
      vertex -6.19553 72.3625 2
      vertex 0 76 2
      vertex -5.69654 73.5156 2
    endloop
  endfacet
  facet normal 0 0 1
    outer loop
      vertex 0 0 2
      vertex -4.48656 -0.716536 2
      vertex -3.78034 -1.7557 2
    endloop
  endfacet
  facet normal 0 0 1
    outer loop
      vertex -6.62113 71.1803 2
      vertex 0 76 2
      vertex -6.19553 72.3625 2
    endloop
  endfacet
  facet normal 0 0 1
    outer loop
      vertex 0 0 2
      vertex -5.12613 0.364926 2
      vertex -4.48656 -0.716536 2
    endloop
  endfacet
  facet normal 0 0 1
    outer loop
      vertex -6.97166 69.9738 2
      vertex 0 76 2
      vertex -6.62113 71.1803 2
    endloop
  endfacet
  facet normal 0 0 1
    outer loop
      vertex 0 0 2
      vertex -5.69654 1.48441 2
      vertex -5.12613 0.364926 2
    endloop
  endfacet
  facet normal 0 0 1
    outer loop
      vertex -7.24574 68.7476 2
      vertex 0 76 2
      vertex -6.97166 69.9738 2
    endloop
  endfacet
  facet normal 0 0 1
    outer loop
      vertex 0 0 2
      vertex -6.19553 2.63751 2
      vertex -5.69654 1.48441 2
    endloop
  endfacet
  facet normal 0 0 1
    outer loop
      vertex -7.44229 67.5067 2
      vertex 0 76 2
      vertex -7.24574 68.7476 2
    endloop
  endfacet
  facet normal 0 0 1
    outer loop
      vertex 0 0 2
      vertex -6.62113 3.81966 2
      vertex -6.19553 2.63751 2
    endloop
  endfacet
  facet normal 0 0 1
    outer loop
      vertex -7.56053 66.2558 2
      vertex 0 76 2
      vertex -7.44229 67.5067 2
    endloop
  endfacet
  facet normal 0 0 1
    outer loop
      vertex 0 0 2
      vertex -6.97166 5.0262 2
      vertex -6.62113 3.81966 2
    endloop
  endfacet
  facet normal 0 0 1
    outer loop
      vertex 0 76 2
      vertex -7.56053 66.2558 2
      vertex -7.6 65 2
    endloop
  endfacet
  facet normal 0 0 1
    outer loop
      vertex 0 0 2
      vertex -7.24574 6.25237 2
      vertex -6.97166 5.0262 2
    endloop
  endfacet
  facet normal 0 0 1
    outer loop
      vertex 0 0 2
      vertex -7.44229 7.49333 2
      vertex -7.24574 6.25237 2
    endloop
  endfacet
  facet normal 0 0 1
    outer loop
      vertex 0 0 2
      vertex -7.56053 8.74419 2
      vertex -7.44229 7.49333 2
    endloop
  endfacet
  facet normal 0 -1 0
    outer loop
      vertex 0 0 2
      vertex 26 0 56
      vertex 0 0 56
    endloop
  endfacet
  facet normal 0 -1 -0
    outer loop
      vertex 26 0 56
      vertex 0 0 2
      vertex 26 0 2
    endloop
  endfacet
  facet normal 0 1 -0
    outer loop
      vertex 26 76 2
      vertex 0 76 56
      vertex 26 76 56
    endloop
  endfacet
  facet normal 0 1 0
    outer loop
      vertex 0 76 56
      vertex 26 76 2
      vertex 0 76 2
    endloop
  endfacet
  facet normal 1 -0 0
    outer loop
      vertex 1.5 1.5 56
      vertex 1.5 74.5 4
      vertex 1.5 74.5 56
    endloop
  endfacet
  facet normal 1 0 0
    outer loop
      vertex 1.5 74.5 4
      vertex 1.5 1.5 56
      vertex 1.5 1.5 4
    endloop
  endfacet
  facet normal -1 0 0
    outer loop
      vertex 24.5 1.5 4
      vertex 24.5 74.5 56
      vertex 24.5 74.5 4
    endloop
  endfacet
  facet normal -1 -0 0
    outer loop
      vertex 24.5 74.5 56
      vertex 24.5 1.5 4
      vertex 24.5 1.5 56
    endloop
  endfacet
  facet normal 0 -1 0
    outer loop
      vertex 1.5 74.5 4
      vertex 24.5 74.5 56
      vertex 1.5 74.5 56
    endloop
  endfacet
  facet normal 0 -1 -0
    outer loop
      vertex 24.5 74.5 56
      vertex 1.5 74.5 4
      vertex 24.5 74.5 4
    endloop
  endfacet
  facet normal -0 0 1
    outer loop
      vertex 1.5 74.5 4
      vertex 24.5 1.5 4
      vertex 24.5 74.5 4
    endloop
  endfacet
  facet normal 0 0 1
    outer loop
      vertex 24.5 1.5 4
      vertex 1.5 74.5 4
      vertex 1.5 1.5 4
    endloop
  endfacet
  facet normal 0 1 -0
    outer loop
      vertex 24.5 1.5 4
      vertex 1.5 1.5 56
      vertex 24.5 1.5 56
    endloop
  endfacet
  facet normal 0 1 0
    outer loop
      vertex 1.5 1.5 56
      vertex 24.5 1.5 4
      vertex 1.5 1.5 4
    endloop
  endfacet
  facet normal 0.999507 0.0314118 0
    outer loop
      vertex 32.4 65 2
      vertex 32.3605 66.2558 0
      vertex 32.3605 66.2558 2
    endloop
  endfacet
  facet normal 0.999507 0.0314118 0
    outer loop
      vertex 32.3605 66.2558 0
      vertex 32.4 65 2
      vertex 32.4 65 0
    endloop
  endfacet
  facet normal 0 0 -1
    outer loop
      vertex -7.6 10 0
      vertex 32.4 10 0
      vertex 32.3605 8.74419 0
    endloop
  endfacet
  facet normal 0 0 -1
    outer loop
      vertex 32.4 10 0
      vertex -7.6 10 0
      vertex 32.4 65 0
    endloop
  endfacet
  facet normal 0 0 -1
    outer loop
      vertex -7.6 10 0
      vertex 32.3605 8.74419 0
      vertex 32.2423 7.49333 0
    endloop
  endfacet
  facet normal 0 0 -1
    outer loop
      vertex -7.6 65 0
      vertex 32.4 65 0
      vertex -7.6 10 0
    endloop
  endfacet
  facet normal 0 0 -1
    outer loop
      vertex -7.6 10 0
      vertex 32.2423 7.49333 0
      vertex 32.0457 6.25237 0
    endloop
  endfacet
  facet normal 0 0 -1
    outer loop
      vertex 32.4 65 0
      vertex -7.6 65 0
      vertex 32.3605 66.2558 0
    endloop
  endfacet
  facet normal 0 0 -1
    outer loop
      vertex -7.6 10 0
      vertex 32.0457 6.25237 0
      vertex 31.7717 5.0262 0
    endloop
  endfacet
  facet normal -0 0 -1
    outer loop
      vertex 32.3605 66.2558 0
      vertex -7.6 65 0
      vertex 32.2423 67.5067 0
    endloop
  endfacet
  facet normal 0 0 -1
    outer loop
      vertex -7.6 10 0
      vertex 31.7717 5.0262 0
      vertex 31.4211 3.81966 0
    endloop
  endfacet
  facet normal -0 0 -1
    outer loop
      vertex 32.2423 67.5067 0
      vertex -7.6 65 0
      vertex 32.0457 68.7476 0
    endloop
  endfacet
  facet normal 0 0 -1
    outer loop
      vertex -7.6 10 0
      vertex 31.4211 3.81966 0
      vertex 30.9955 2.63751 0
    endloop
  endfacet
  facet normal -0 0 -1
    outer loop
      vertex 32.0457 68.7476 0
      vertex -7.6 65 0
      vertex 31.7717 69.9738 0
    endloop
  endfacet
  facet normal 0 0 -1
    outer loop
      vertex -7.6 10 0
      vertex 30.9955 2.63751 0
      vertex 30.4965 1.48441 0
    endloop
  endfacet
  facet normal -0 0 -1
    outer loop
      vertex 31.7717 69.9738 0
      vertex -7.6 65 0
      vertex 31.4211 71.1803 0
    endloop
  endfacet
  facet normal 0 0 -1
    outer loop
      vertex -7.6 10 0
      vertex 30.4965 1.48441 0
      vertex 29.9261 0.364926 0
    endloop
  endfacet
  facet normal -0 0 -1
    outer loop
      vertex 31.4211 71.1803 0
      vertex -7.6 65 0
      vertex 30.9955 72.3625 0
    endloop
  endfacet
  facet normal 0 0 -1
    outer loop
      vertex -7.6 10 0
      vertex 29.9261 0.364926 0
      vertex 29.2866 -0.716536 0
    endloop
  endfacet
  facet normal -0 0 -1
    outer loop
      vertex 30.9955 72.3625 0
      vertex -7.6 65 0
      vertex 30.4965 73.5156 0
    endloop
  endfacet
  facet normal 0 0 -1
    outer loop
      vertex -7.6 10 0
      vertex 29.2866 -0.716536 0
      vertex 28.5803 -1.7557 0
    endloop
  endfacet
  facet normal -0 0 -1
    outer loop
      vertex 30.4965 73.5156 0
      vertex -7.6 65 0
      vertex 29.9261 74.6351 0
    endloop
  endfacet
  facet normal 0 0 -1
    outer loop
      vertex -7.6 10 0
      vertex 28.5803 -1.7557 0
      vertex 27.8103 -2.74848 0
    endloop
  endfacet
  facet normal -0 0 -1
    outer loop
      vertex 29.9261 74.6351 0
      vertex -7.6 65 0
      vertex 29.2866 75.7165 0
    endloop
  endfacet
  facet normal 0 0 -1
    outer loop
      vertex -7.6 10 0
      vertex 27.8103 -2.74848 0
      vertex 26.9794 -3.69094 0
    endloop
  endfacet
  facet normal -0 0 -1
    outer loop
      vertex 29.2866 75.7165 0
      vertex -7.6 65 0
      vertex 28.5803 76.7557 0
    endloop
  endfacet
  facet normal 0 0 -1
    outer loop
      vertex -7.6 10 0
      vertex 26.9794 -3.69094 0
      vertex 26.0909 -4.57937 0
    endloop
  endfacet
  facet normal -0 0 -1
    outer loop
      vertex 28.5803 76.7557 0
      vertex -7.6 65 0
      vertex 27.8103 77.7485 0
    endloop
  endfacet
  facet normal 0 0 -1
    outer loop
      vertex -7.6 10 0
      vertex 26.0909 -4.57937 0
      vertex 25.1485 -5.41026 0
    endloop
  endfacet
  facet normal -0 0 -1
    outer loop
      vertex 27.8103 77.7485 0
      vertex -7.6 65 0
      vertex 26.9794 78.6909 0
    endloop
  endfacet
  facet normal 0 0 -1
    outer loop
      vertex -7.6 10 0
      vertex 25.1485 -5.41026 0
      vertex 24.1557 -6.18034 0
    endloop
  endfacet
  facet normal -0 0 -1
    outer loop
      vertex 26.9794 78.6909 0
      vertex -7.6 65 0
      vertex 26.0909 79.5794 0
    endloop
  endfacet
  facet normal 0 0 -1
    outer loop
      vertex -7.6 10 0
      vertex 24.1557 -6.18034 0
      vertex 23.1165 -6.88656 0
    endloop
  endfacet
  facet normal -0 0 -1
    outer loop
      vertex 26.0909 79.5794 0
      vertex -7.6 65 0
      vertex 25.1485 80.4103 0
    endloop
  endfacet
  facet normal 0 0 -1
    outer loop
      vertex -7.6 10 0
      vertex 23.1165 -6.88656 0
      vertex 22.0351 -7.52613 0
    endloop
  endfacet
  facet normal -0 0 -1
    outer loop
      vertex 25.1485 80.4103 0
      vertex -7.6 65 0
      vertex 24.1557 81.1803 0
    endloop
  endfacet
  facet normal 0 0 -1
    outer loop
      vertex -7.6 10 0
      vertex 22.0351 -7.52613 0
      vertex 20.9156 -8.09654 0
    endloop
  endfacet
  facet normal -0 0 -1
    outer loop
      vertex 24.1557 81.1803 0
      vertex -7.6 65 0
      vertex 23.1165 81.8866 0
    endloop
  endfacet
  facet normal 0 0 -1
    outer loop
      vertex -7.6 10 0
      vertex 20.9156 -8.09654 0
      vertex 19.7625 -8.59553 0
    endloop
  endfacet
  facet normal -0 0 -1
    outer loop
      vertex 23.1165 81.8866 0
      vertex -7.6 65 0
      vertex 22.0351 82.5261 0
    endloop
  endfacet
  facet normal 0 0 -1
    outer loop
      vertex -7.6 10 0
      vertex 19.7625 -8.59553 0
      vertex 18.5803 -9.02113 0
    endloop
  endfacet
  facet normal -0 0 -1
    outer loop
      vertex 22.0351 82.5261 0
      vertex -7.6 65 0
      vertex 20.9156 83.0965 0
    endloop
  endfacet
  facet normal 0 0 -1
    outer loop
      vertex -7.6 10 0
      vertex 18.5803 -9.02113 0
      vertex 17.3738 -9.37166 0
    endloop
  endfacet
  facet normal -0 0 -1
    outer loop
      vertex 20.9156 83.0965 0
      vertex -7.6 65 0
      vertex 19.7625 83.5955 0
    endloop
  endfacet
  facet normal 0 0 -1
    outer loop
      vertex -7.6 10 0
      vertex 17.3738 -9.37166 0
      vertex 16.1476 -9.64574 0
    endloop
  endfacet
  facet normal -0 0 -1
    outer loop
      vertex 19.7625 83.5955 0
      vertex -7.6 65 0
      vertex 18.5803 84.0211 0
    endloop
  endfacet
  facet normal 0 0 -1
    outer loop
      vertex -7.6 10 0
      vertex 16.1476 -9.64574 0
      vertex 14.9067 -9.84229 0
    endloop
  endfacet
  facet normal -0 0 -1
    outer loop
      vertex 18.5803 84.0211 0
      vertex -7.6 65 0
      vertex 17.3738 84.3717 0
    endloop
  endfacet
  facet normal 0 0 -1
    outer loop
      vertex -7.6 10 0
      vertex 14.9067 -9.84229 0
      vertex 13.6558 -9.96053 0
    endloop
  endfacet
  facet normal -0 0 -1
    outer loop
      vertex 17.3738 84.3717 0
      vertex -7.6 65 0
      vertex 16.1476 84.6457 0
    endloop
  endfacet
  facet normal 0 0 -1
    outer loop
      vertex -7.6 10 0
      vertex 13.6558 -9.96053 0
      vertex 12.4 -10 0
    endloop
  endfacet
  facet normal -0 0 -1
    outer loop
      vertex 16.1476 84.6457 0
      vertex -7.6 65 0
      vertex 14.9067 84.8423 0
    endloop
  endfacet
  facet normal 0 0 -1
    outer loop
      vertex -7.6 10 0
      vertex 12.4 -10 0
      vertex 11.1442 -9.96053 0
    endloop
  endfacet
  facet normal -0 0 -1
    outer loop
      vertex 14.9067 84.8423 0
      vertex -7.6 65 0
      vertex 13.6558 84.9605 0
    endloop
  endfacet
  facet normal 0 0 -1
    outer loop
      vertex -7.6 10 0
      vertex 11.1442 -9.96053 0
      vertex 9.89333 -9.84229 0
    endloop
  endfacet
  facet normal -0 0 -1
    outer loop
      vertex 13.6558 84.9605 0
      vertex -7.6 65 0
      vertex 12.4 85 0
    endloop
  endfacet
  facet normal 0 0 -1
    outer loop
      vertex -7.6 10 0
      vertex 9.89333 -9.84229 0
      vertex 8.65237 -9.64574 0
    endloop
  endfacet
  facet normal 0 0 -1
    outer loop
      vertex 12.4 85 0
      vertex -7.6 65 0
      vertex 11.1442 84.9605 0
    endloop
  endfacet
  facet normal 0 0 -1
    outer loop
      vertex -7.6 10 0
      vertex 8.65237 -9.64574 0
      vertex 7.4262 -9.37166 0
    endloop
  endfacet
  facet normal 0 0 -1
    outer loop
      vertex 11.1442 84.9605 0
      vertex -7.6 65 0
      vertex 9.89333 84.8423 0
    endloop
  endfacet
  facet normal 0 0 -1
    outer loop
      vertex -7.6 10 0
      vertex 7.4262 -9.37166 0
      vertex 6.21966 -9.02113 0
    endloop
  endfacet
  facet normal 0 0 -1
    outer loop
      vertex 9.89333 84.8423 0
      vertex -7.6 65 0
      vertex 8.65237 84.6457 0
    endloop
  endfacet
  facet normal 0 0 -1
    outer loop
      vertex -7.6 10 0
      vertex 6.21966 -9.02113 0
      vertex 5.03751 -8.59553 0
    endloop
  endfacet
  facet normal 0 0 -1
    outer loop
      vertex 8.65237 84.6457 0
      vertex -7.6 65 0
      vertex 7.4262 84.3717 0
    endloop
  endfacet
  facet normal 0 0 -1
    outer loop
      vertex -7.6 10 0
      vertex 5.03751 -8.59553 0
      vertex 3.88441 -8.09654 0
    endloop
  endfacet
  facet normal 0 0 -1
    outer loop
      vertex 7.4262 84.3717 0
      vertex -7.6 65 0
      vertex 6.21966 84.0211 0
    endloop
  endfacet
  facet normal 0 0 -1
    outer loop
      vertex -7.6 10 0
      vertex 3.88441 -8.09654 0
      vertex 2.76493 -7.52613 0
    endloop
  endfacet
  facet normal 0 0 -1
    outer loop
      vertex 6.21966 84.0211 0
      vertex -7.6 65 0
      vertex 5.03751 83.5955 0
    endloop
  endfacet
  facet normal 0 0 -1
    outer loop
      vertex -7.6 10 0
      vertex 2.76493 -7.52613 0
      vertex 1.68346 -6.88656 0
    endloop
  endfacet
  facet normal 0 0 -1
    outer loop
      vertex 5.03751 83.5955 0
      vertex -7.6 65 0
      vertex 3.88441 83.0965 0
    endloop
  endfacet
  facet normal 0 0 -1
    outer loop
      vertex -7.6 10 0
      vertex 1.68346 -6.88656 0
      vertex 0.644295 -6.18034 0
    endloop
  endfacet
  facet normal 0 0 -1
    outer loop
      vertex 3.88441 83.0965 0
      vertex -7.6 65 0
      vertex 2.76493 82.5261 0
    endloop
  endfacet
  facet normal 0 0 -1
    outer loop
      vertex -7.6 10 0
      vertex 0.644295 -6.18034 0
      vertex -0.348479 -5.41026 0
    endloop
  endfacet
  facet normal 0 0 -1
    outer loop
      vertex 2.76493 82.5261 0
      vertex -7.6 65 0
      vertex 1.68346 81.8866 0
    endloop
  endfacet
  facet normal 0 0 -1
    outer loop
      vertex -7.6 10 0
      vertex -0.348479 -5.41026 0
      vertex -1.29094 -4.57937 0
    endloop
  endfacet
  facet normal 0 0 -1
    outer loop
      vertex 1.68346 81.8866 0
      vertex -7.6 65 0
      vertex 0.644295 81.1803 0
    endloop
  endfacet
  facet normal 0 0 -1
    outer loop
      vertex -7.6 10 0
      vertex -1.29094 -4.57937 0
      vertex -2.17937 -3.69094 0
    endloop
  endfacet
  facet normal 0 0 -1
    outer loop
      vertex 0.644295 81.1803 0
      vertex -7.6 65 0
      vertex -0.348479 80.4103 0
    endloop
  endfacet
  facet normal 0 0 -1
    outer loop
      vertex -7.6 10 0
      vertex -2.17937 -3.69094 0
      vertex -3.01026 -2.74848 0
    endloop
  endfacet
  facet normal 0 0 -1
    outer loop
      vertex -0.348479 80.4103 0
      vertex -7.6 65 0
      vertex -1.29094 79.5794 0
    endloop
  endfacet
  facet normal 0 0 -1
    outer loop
      vertex -7.6 10 0
      vertex -3.01026 -2.74848 0
      vertex -3.78034 -1.7557 0
    endloop
  endfacet
  facet normal 0 0 -1
    outer loop
      vertex -1.29094 79.5794 0
      vertex -7.6 65 0
      vertex -2.17937 78.6909 0
    endloop
  endfacet
  facet normal 0 0 -1
    outer loop
      vertex -7.6 10 0
      vertex -3.78034 -1.7557 0
      vertex -4.48656 -0.716536 0
    endloop
  endfacet
  facet normal 0 0 -1
    outer loop
      vertex -2.17937 78.6909 0
      vertex -7.6 65 0
      vertex -3.01026 77.7485 0
    endloop
  endfacet
  facet normal 0 0 -1
    outer loop
      vertex -7.6 10 0
      vertex -4.48656 -0.716536 0
      vertex -5.12613 0.364926 0
    endloop
  endfacet
  facet normal 0 0 -1
    outer loop
      vertex -3.01026 77.7485 0
      vertex -7.6 65 0
      vertex -3.78034 76.7557 0
    endloop
  endfacet
  facet normal 0 0 -1
    outer loop
      vertex -7.6 10 0
      vertex -5.12613 0.364926 0
      vertex -5.69654 1.48441 0
    endloop
  endfacet
  facet normal 0 0 -1
    outer loop
      vertex -3.78034 76.7557 0
      vertex -7.6 65 0
      vertex -4.48656 75.7165 0
    endloop
  endfacet
  facet normal 0 0 -1
    outer loop
      vertex -7.6 10 0
      vertex -5.69654 1.48441 0
      vertex -6.19553 2.63751 0
    endloop
  endfacet
  facet normal 0 0 -1
    outer loop
      vertex -4.48656 75.7165 0
      vertex -7.6 65 0
      vertex -5.12613 74.6351 0
    endloop
  endfacet
  facet normal 0 0 -1
    outer loop
      vertex -7.6 10 0
      vertex -6.19553 2.63751 0
      vertex -6.62113 3.81966 0
    endloop
  endfacet
  facet normal 0 0 -1
    outer loop
      vertex -5.12613 74.6351 0
      vertex -7.6 65 0
      vertex -5.69654 73.5156 0
    endloop
  endfacet
  facet normal 0 0 -1
    outer loop
      vertex -7.6 10 0
      vertex -6.62113 3.81966 0
      vertex -6.97166 5.0262 0
    endloop
  endfacet
  facet normal 0 0 -1
    outer loop
      vertex -5.69654 73.5156 0
      vertex -7.6 65 0
      vertex -6.19553 72.3625 0
    endloop
  endfacet
  facet normal 0 0 -1
    outer loop
      vertex -7.6 10 0
      vertex -6.97166 5.0262 0
      vertex -7.24574 6.25237 0
    endloop
  endfacet
  facet normal 0 0 -1
    outer loop
      vertex -6.19553 72.3625 0
      vertex -7.6 65 0
      vertex -6.62113 71.1803 0
    endloop
  endfacet
  facet normal 0 0 -1
    outer loop
      vertex -7.6 10 0
      vertex -7.24574 6.25237 0
      vertex -7.44229 7.49333 0
    endloop
  endfacet
  facet normal 0 0 -1
    outer loop
      vertex -6.62113 71.1803 0
      vertex -7.6 65 0
      vertex -6.97166 69.9738 0
    endloop
  endfacet
  facet normal 0 0 -1
    outer loop
      vertex -7.6 10 0
      vertex -7.44229 7.49333 0
      vertex -7.56053 8.74419 0
    endloop
  endfacet
  facet normal 0 0 -1
    outer loop
      vertex -6.97166 69.9738 0
      vertex -7.6 65 0
      vertex -7.24574 68.7476 0
    endloop
  endfacet
  facet normal 0 0 -1
    outer loop
      vertex -7.24574 68.7476 0
      vertex -7.6 65 0
      vertex -7.44229 67.5067 0
    endloop
  endfacet
  facet normal 0 0 -1
    outer loop
      vertex -7.44229 67.5067 0
      vertex -7.6 65 0
      vertex -7.56053 66.2558 0
    endloop
  endfacet
  facet normal -0.94088 0.33874 0
    outer loop
      vertex -6.62113 71.1803 0
      vertex -6.19553 72.3625 2
      vertex -6.19553 72.3625 0
    endloop
  endfacet
  facet normal -0.94088 0.33874 0
    outer loop
      vertex -6.19553 72.3625 2
      vertex -6.62113 71.1803 0
      vertex -6.62113 71.1803 2
    endloop
  endfacet
  facet normal 0.917755 0.397147 0
    outer loop
      vertex 30.9955 72.3625 2
      vertex 30.4965 73.5156 0
      vertex 30.4965 73.5156 2
    endloop
  endfacet
  facet normal 0.917755 0.397147 0
    outer loop
      vertex 30.4965 73.5156 0
      vertex 30.9955 72.3625 2
      vertex 30.9955 72.3625 0
    endloop
  endfacet
  facet normal 0.50904 0.860743 -0
    outer loop
      vertex 23.1165 81.8866 0
      vertex 22.0351 82.5261 2
      vertex 23.1165 81.8866 2
    endloop
  endfacet
  facet normal 0.50904 0.860743 0
    outer loop
      vertex 22.0351 82.5261 2
      vertex 23.1165 81.8866 0
      vertex 22.0351 82.5261 0
    endloop
  endfacet
  facet normal -0.0941082 0.995562 0
    outer loop
      vertex 11.1442 84.9605 0
      vertex 9.89333 84.8423 2
      vertex 11.1442 84.9605 2
    endloop
  endfacet
  facet normal -0.0941082 0.995562 0
    outer loop
      vertex 9.89333 84.8423 2
      vertex 11.1442 84.9605 0
      vertex 9.89333 84.8423 0
    endloop
  endfacet
  facet normal -0.999507 -0.0314104 0
    outer loop
      vertex -7.56053 8.74419 0
      vertex -7.6 10 2
      vertex -7.6 10 0
    endloop
  endfacet
  facet normal -0.999507 -0.0314104 0
    outer loop
      vertex -7.6 10 2
      vertex -7.56053 8.74419 0
      vertex -7.56053 8.74419 2
    endloop
  endfacet
  facet normal -0.999507 0.0314103 0
    outer loop
      vertex -7.6 65 0
      vertex -7.56053 66.2558 2
      vertex -7.56053 66.2558 0
    endloop
  endfacet
  facet normal -0.999507 0.0314103 0
    outer loop
      vertex -7.56053 66.2558 2
      vertex -7.6 65 0
      vertex -7.6 65 2
    endloop
  endfacet
  facet normal -0.987688 0.156434 0
    outer loop
      vertex -7.44229 67.5067 0
      vertex -7.24574 68.7476 2
      vertex -7.24574 68.7476 0
    endloop
  endfacet
  facet normal -0.987688 0.156434 0
    outer loop
      vertex -7.24574 68.7476 2
      vertex -7.44229 67.5067 0
      vertex -7.44229 67.5067 2
    endloop
  endfacet
  facet normal 0.999507 -0.0314119 0
    outer loop
      vertex 32.3605 8.74419 2
      vertex 32.4 10 0
      vertex 32.4 10 2
    endloop
  endfacet
  facet normal 0.999507 -0.0314119 0
    outer loop
      vertex 32.4 10 0
      vertex 32.3605 8.74419 2
      vertex 32.3605 8.74419 0
    endloop
  endfacet
  facet normal 0.975917 -0.218144 0
    outer loop
      vertex 31.7717 5.0262 2
      vertex 32.0457 6.25237 0
      vertex 32.0457 6.25237 2
    endloop
  endfacet
  facet normal 0.975917 -0.218144 0
    outer loop
      vertex 32.0457 6.25237 0
      vertex 31.7717 5.0262 2
      vertex 31.7717 5.0262 0
    endloop
  endfacet
  facet normal 0.995562 -0.0941082 0
    outer loop
      vertex 32.2423 7.49333 2
      vertex 32.3605 8.74419 0
      vertex 32.3605 8.74419 2
    endloop
  endfacet
  facet normal 0.995562 -0.0941082 0
    outer loop
      vertex 32.3605 8.74419 0
      vertex 32.2423 7.49333 2
      vertex 32.2423 7.49333 0
    endloop
  endfacet
  facet normal 0.917754 -0.397148 0
    outer loop
      vertex 30.4965 1.48441 2
      vertex 30.9955 2.63751 0
      vertex 30.9955 2.63751 2
    endloop
  endfacet
  facet normal 0.917754 -0.397148 0
    outer loop
      vertex 30.9955 2.63751 0
      vertex 30.4965 1.48441 2
      vertex 30.4965 1.48441 0
    endloop
  endfacet
  facet normal 0.750111 -0.661312 0
    outer loop
      vertex 26.9794 -3.69094 2
      vertex 27.8103 -2.74848 0
      vertex 27.8103 -2.74848 2
    endloop
  endfacet
  facet normal 0.750111 -0.661312 0
    outer loop
      vertex 27.8103 -2.74848 0
      vertex 26.9794 -3.69094 2
      vertex 26.9794 -3.69094 0
    endloop
  endfacet
  facet normal 0.278992 -0.960293 0
    outer loop
      vertex 17.3738 -9.37166 0
      vertex 18.5803 -9.02113 2
      vertex 17.3738 -9.37166 2
    endloop
  endfacet
  facet normal 0.278992 -0.960293 0
    outer loop
      vertex 18.5803 -9.02113 2
      vertex 17.3738 -9.37166 0
      vertex 18.5803 -9.02113 0
    endloop
  endfacet
  facet normal -0.940881 -0.338738 0
    outer loop
      vertex -6.19553 2.63751 0
      vertex -6.62113 3.81966 2
      vertex -6.62113 3.81966 0
    endloop
  endfacet
  facet normal -0.940881 -0.338738 0
    outer loop
      vertex -6.62113 3.81966 2
      vertex -6.19553 2.63751 0
      vertex -6.19553 2.63751 2
    endloop
  endfacet
  facet normal 0.707109 0.707105 0
    outer loop
      vertex 26.9794 78.6909 2
      vertex 26.0909 79.5794 0
      vertex 26.0909 79.5794 2
    endloop
  endfacet
  facet normal 0.707109 0.707105 0
    outer loop
      vertex 26.0909 79.5794 0
      vertex 26.9794 78.6909 2
      vertex 26.9794 78.6909 0
    endloop
  endfacet
  facet normal -0.562081 0.827082 0
    outer loop
      vertex 1.68346 81.8866 0
      vertex 0.644295 81.1803 2
      vertex 1.68346 81.8866 2
    endloop
  endfacet
  facet normal -0.562081 0.827082 0
    outer loop
      vertex 0.644295 81.1803 2
      vertex 1.68346 81.8866 0
      vertex 0.644295 81.1803 0
    endloop
  endfacet
  facet normal -0.707109 0.707105 0
    outer loop
      vertex -2.17937 78.6909 0
      vertex -1.29094 79.5794 2
      vertex -1.29094 79.5794 0
    endloop
  endfacet
  facet normal -0.707109 0.707105 0
    outer loop
      vertex -1.29094 79.5794 2
      vertex -2.17937 78.6909 0
      vertex -2.17937 78.6909 2
    endloop
  endfacet
  facet normal -1 0 0
    outer loop
      vertex -7.6 10 0
      vertex -7.6 65 2
      vertex -7.6 65 0
    endloop
  endfacet
  facet normal -1 -0 0
    outer loop
      vertex -7.6 65 2
      vertex -7.6 10 0
      vertex -7.6 10 2
    endloop
  endfacet
  facet normal -0.827081 0.562083 0
    outer loop
      vertex -4.48656 75.7165 0
      vertex -3.78034 76.7557 2
      vertex -3.78034 76.7557 0
    endloop
  endfacet
  facet normal -0.827081 0.562083 0
    outer loop
      vertex -3.78034 76.7557 2
      vertex -4.48656 75.7165 0
      vertex -4.48656 75.7165 2
    endloop
  endfacet
  facet normal -0.960294 0.278991 0
    outer loop
      vertex -6.97166 69.9738 0
      vertex -6.62113 71.1803 2
      vertex -6.62113 71.1803 0
    endloop
  endfacet
  facet normal -0.960294 0.278991 0
    outer loop
      vertex -6.62113 71.1803 2
      vertex -6.97166 69.9738 0
      vertex -6.97166 69.9738 2
    endloop
  endfacet
  facet normal -0.975917 0.218143 0
    outer loop
      vertex -7.24574 68.7476 0
      vertex -6.97166 69.9738 2
      vertex -6.97166 69.9738 0
    endloop
  endfacet
  facet normal -0.975917 0.218143 0
    outer loop
      vertex -6.97166 69.9738 2
      vertex -7.24574 68.7476 0
      vertex -7.24574 68.7476 2
    endloop
  endfacet
  facet normal -0.995562 0.0941089 0
    outer loop
      vertex -7.56053 66.2558 0
      vertex -7.44229 67.5067 2
      vertex -7.44229 67.5067 0
    endloop
  endfacet
  facet normal -0.995562 0.0941089 0
    outer loop
      vertex -7.44229 67.5067 2
      vertex -7.56053 66.2558 0
      vertex -7.56053 66.2558 2
    endloop
  endfacet
  facet normal 1 -0 0
    outer loop
      vertex 32.4 10 2
      vertex 32.4 65 0
      vertex 32.4 65 2
    endloop
  endfacet
  facet normal 1 0 0
    outer loop
      vertex 32.4 65 0
      vertex 32.4 10 2
      vertex 32.4 10 0
    endloop
  endfacet
  facet normal 0.960294 -0.278991 0
    outer loop
      vertex 31.4211 3.81966 2
      vertex 31.7717 5.0262 0
      vertex 31.7717 5.0262 2
    endloop
  endfacet
  facet normal 0.960294 -0.278991 0
    outer loop
      vertex 31.7717 5.0262 0
      vertex 31.4211 3.81966 2
      vertex 31.4211 3.81966 0
    endloop
  endfacet
  facet normal 0.987688 -0.156434 0
    outer loop
      vertex 32.0457 6.25237 2
      vertex 32.2423 7.49333 0
      vertex 32.2423 7.49333 2
    endloop
  endfacet
  facet normal 0.987688 -0.156434 0
    outer loop
      vertex 32.2423 7.49333 0
      vertex 32.0457 6.25237 2
      vertex 32.0457 6.25237 0
    endloop
  endfacet
  facet normal 0.891006 -0.453991 0
    outer loop
      vertex 29.9261 0.364926 2
      vertex 30.4965 1.48441 0
      vertex 30.4965 1.48441 2
    endloop
  endfacet
  facet normal 0.891006 -0.453991 0
    outer loop
      vertex 30.4965 1.48441 0
      vertex 29.9261 0.364926 2
      vertex 29.9261 0.364926 0
    endloop
  endfacet
  facet normal 0.218142 -0.975917 0
    outer loop
      vertex 16.1476 -9.64574 0
      vertex 17.3738 -9.37166 2
      vertex 16.1476 -9.64574 2
    endloop
  endfacet
  facet normal 0.218142 -0.975917 0
    outer loop
      vertex 17.3738 -9.37166 2
      vertex 16.1476 -9.64574 0
      vertex 17.3738 -9.37166 0
    endloop
  endfacet
  facet normal -0.397148 -0.917754 0
    outer loop
      vertex 3.88441 -8.09654 0
      vertex 5.03751 -8.59553 2
      vertex 3.88441 -8.09654 2
    endloop
  endfacet
  facet normal -0.397148 -0.917754 -0
    outer loop
      vertex 5.03751 -8.59553 2
      vertex 3.88441 -8.09654 0
      vertex 5.03751 -8.59553 0
    endloop
  endfacet
  facet normal 0.995562 0.0941082 0
    outer loop
      vertex 32.3605 66.2558 2
      vertex 32.2423 67.5067 0
      vertex 32.2423 67.5067 2
    endloop
  endfacet
  facet normal 0.995562 0.0941082 0
    outer loop
      vertex 32.2423 67.5067 0
      vertex 32.3605 66.2558 2
      vertex 32.3605 66.2558 0
    endloop
  endfacet
  facet normal 0.960294 0.278991 0
    outer loop
      vertex 31.7717 69.9738 2
      vertex 31.4211 71.1803 0
      vertex 31.4211 71.1803 2
    endloop
  endfacet
  facet normal 0.960294 0.278991 0
    outer loop
      vertex 31.4211 71.1803 0
      vertex 31.7717 69.9738 2
      vertex 31.7717 69.9738 0
    endloop
  endfacet
  facet normal 0.860743 0.509039 0
    outer loop
      vertex 29.9261 74.6351 2
      vertex 29.2866 75.7165 0
      vertex 29.2866 75.7165 2
    endloop
  endfacet
  facet normal 0.860743 0.509039 0
    outer loop
      vertex 29.2866 75.7165 0
      vertex 29.9261 74.6351 2
      vertex 29.9261 74.6351 0
    endloop
  endfacet
  facet normal 0.790155 0.612907 0
    outer loop
      vertex 28.5803 76.7557 2
      vertex 27.8103 77.7485 0
      vertex 27.8103 77.7485 2
    endloop
  endfacet
  facet normal 0.790155 0.612907 0
    outer loop
      vertex 27.8103 77.7485 0
      vertex 28.5803 76.7557 2
      vertex 28.5803 76.7557 0
    endloop
  endfacet
  facet normal 0.75011 0.661313 0
    outer loop
      vertex 27.8103 77.7485 2
      vertex 26.9794 78.6909 0
      vertex 26.9794 78.6909 2
    endloop
  endfacet
  facet normal 0.75011 0.661313 0
    outer loop
      vertex 26.9794 78.6909 0
      vertex 27.8103 77.7485 2
      vertex 27.8103 77.7485 0
    endloop
  endfacet
  facet normal 0.562081 0.827082 -0
    outer loop
      vertex 24.1557 81.1803 0
      vertex 23.1165 81.8866 2
      vertex 24.1557 81.1803 2
    endloop
  endfacet
  facet normal 0.562081 0.827082 0
    outer loop
      vertex 23.1165 81.8866 2
      vertex 24.1557 81.1803 0
      vertex 23.1165 81.8866 0
    endloop
  endfacet
  facet normal 0.397145 0.917756 -0
    outer loop
      vertex 20.9156 83.0965 0
      vertex 19.7625 83.5955 2
      vertex 20.9156 83.0965 2
    endloop
  endfacet
  facet normal 0.397145 0.917756 0
    outer loop
      vertex 19.7625 83.5955 2
      vertex 20.9156 83.0965 0
      vertex 19.7625 83.5955 0
    endloop
  endfacet
  facet normal 0.278991 0.960294 -0
    outer loop
      vertex 18.5803 84.0211 0
      vertex 17.3738 84.3717 2
      vertex 18.5803 84.0211 2
    endloop
  endfacet
  facet normal 0.278991 0.960294 0
    outer loop
      vertex 17.3738 84.3717 2
      vertex 18.5803 84.0211 0
      vertex 17.3738 84.3717 0
    endloop
  endfacet
  facet normal 0.338742 0.940879 -0
    outer loop
      vertex 19.7625 83.5955 0
      vertex 18.5803 84.0211 2
      vertex 19.7625 83.5955 2
    endloop
  endfacet
  facet normal 0.338742 0.940879 0
    outer loop
      vertex 18.5803 84.0211 2
      vertex 19.7625 83.5955 0
      vertex 18.5803 84.0211 0
    endloop
  endfacet
  facet normal 0.21814 0.975917 -0
    outer loop
      vertex 17.3738 84.3717 0
      vertex 16.1476 84.6457 2
      vertex 17.3738 84.3717 2
    endloop
  endfacet
  facet normal 0.21814 0.975917 0
    outer loop
      vertex 16.1476 84.6457 2
      vertex 17.3738 84.3717 0
      vertex 16.1476 84.6457 0
    endloop
  endfacet
  facet normal -0.790155 0.612907 0
    outer loop
      vertex -3.78034 76.7557 0
      vertex -3.01026 77.7485 2
      vertex -3.01026 77.7485 0
    endloop
  endfacet
  facet normal -0.790155 0.612907 0
    outer loop
      vertex -3.01026 77.7485 2
      vertex -3.78034 76.7557 0
      vertex -3.78034 76.7557 2
    endloop
  endfacet
  facet normal -0.0314119 0.999507 0
    outer loop
      vertex 12.4 85 0
      vertex 11.1442 84.9605 2
      vertex 12.4 85 2
    endloop
  endfacet
  facet normal -0.0314119 0.999507 0
    outer loop
      vertex 11.1442 84.9605 2
      vertex 12.4 85 0
      vertex 11.1442 84.9605 0
    endloop
  endfacet
  facet normal 0.156434 0.987688 -0
    outer loop
      vertex 16.1476 84.6457 0
      vertex 14.9067 84.8423 2
      vertex 16.1476 84.6457 2
    endloop
  endfacet
  facet normal 0.156434 0.987688 0
    outer loop
      vertex 14.9067 84.8423 2
      vertex 16.1476 84.6457 0
      vertex 14.9067 84.8423 0
    endloop
  endfacet
  facet normal -0.218141 0.975917 0
    outer loop
      vertex 8.65237 84.6457 0
      vertex 7.4262 84.3717 2
      vertex 8.65237 84.6457 2
    endloop
  endfacet
  facet normal -0.218141 0.975917 0
    outer loop
      vertex 7.4262 84.3717 2
      vertex 8.65237 84.6457 0
      vertex 7.4262 84.3717 0
    endloop
  endfacet
  facet normal -0.338741 0.94088 0
    outer loop
      vertex 6.21966 84.0211 0
      vertex 5.03751 83.5955 2
      vertex 6.21966 84.0211 2
    endloop
  endfacet
  facet normal -0.338741 0.94088 0
    outer loop
      vertex 5.03751 83.5955 2
      vertex 6.21966 84.0211 0
      vertex 5.03751 83.5955 0
    endloop
  endfacet
  facet normal -0.397146 0.917756 0
    outer loop
      vertex 5.03751 83.5955 0
      vertex 3.88441 83.0965 2
      vertex 5.03751 83.5955 2
    endloop
  endfacet
  facet normal -0.397146 0.917756 0
    outer loop
      vertex 3.88441 83.0965 2
      vertex 5.03751 83.5955 0
      vertex 3.88441 83.0965 0
    endloop
  endfacet
  facet normal -0.453993 0.891005 0
    outer loop
      vertex 3.88441 83.0965 0
      vertex 2.76493 82.5261 2
      vertex 3.88441 83.0965 2
    endloop
  endfacet
  facet normal -0.453993 0.891005 0
    outer loop
      vertex 2.76493 82.5261 2
      vertex 3.88441 83.0965 0
      vertex 2.76493 82.5261 0
    endloop
  endfacet
  facet normal -0.50904 0.860743 0
    outer loop
      vertex 2.76493 82.5261 0
      vertex 1.68346 81.8866 2
      vertex 2.76493 82.5261 2
    endloop
  endfacet
  facet normal -0.50904 0.860743 0
    outer loop
      vertex 1.68346 81.8866 2
      vertex 2.76493 82.5261 0
      vertex 1.68346 81.8866 0
    endloop
  endfacet
  facet normal -0.61291 0.790153 0
    outer loop
      vertex 0.644295 81.1803 0
      vertex -0.348479 80.4103 2
      vertex 0.644295 81.1803 2
    endloop
  endfacet
  facet normal -0.61291 0.790153 0
    outer loop
      vertex -0.348479 80.4103 2
      vertex 0.644295 81.1803 0
      vertex -0.348479 80.4103 0
    endloop
  endfacet
  facet normal -0.917755 0.397146 0
    outer loop
      vertex -6.19553 72.3625 0
      vertex -5.69654 73.5156 2
      vertex -5.69654 73.5156 0
    endloop
  endfacet
  facet normal -0.917755 0.397146 0
    outer loop
      vertex -5.69654 73.5156 2
      vertex -6.19553 72.3625 0
      vertex -6.19553 72.3625 2
    endloop
  endfacet
  facet normal -0.860743 0.50904 0
    outer loop
      vertex -5.12613 74.6351 0
      vertex -4.48656 75.7165 2
      vertex -4.48656 75.7165 0
    endloop
  endfacet
  facet normal -0.860743 0.50904 0
    outer loop
      vertex -4.48656 75.7165 2
      vertex -5.12613 74.6351 0
      vertex -5.12613 74.6351 2
    endloop
  endfacet
  facet normal -0.891006 0.453992 0
    outer loop
      vertex -5.69654 73.5156 0
      vertex -5.12613 74.6351 2
      vertex -5.12613 74.6351 0
    endloop
  endfacet
  facet normal -0.891006 0.453992 0
    outer loop
      vertex -5.12613 74.6351 2
      vertex -5.69654 73.5156 0
      vertex -5.69654 73.5156 2
    endloop
  endfacet
  facet normal 0.827081 -0.562083 0
    outer loop
      vertex 28.5803 -1.7557 2
      vertex 29.2866 -0.716536 0
      vertex 29.2866 -0.716536 2
    endloop
  endfacet
  facet normal 0.827081 -0.562083 0
    outer loop
      vertex 29.2866 -0.716536 0
      vertex 28.5803 -1.7557 2
      vertex 28.5803 -1.7557 0
    endloop
  endfacet
  facet normal 0.860742 -0.509041 0
    outer loop
      vertex 29.2866 -0.716536 2
      vertex 29.9261 0.364926 0
      vertex 29.9261 0.364926 2
    endloop
  endfacet
  facet normal 0.860742 -0.509041 0
    outer loop
      vertex 29.9261 0.364926 0
      vertex 29.2866 -0.716536 2
      vertex 29.2866 -0.716536 0
    endloop
  endfacet
  facet normal 0.94088 -0.338739 0
    outer loop
      vertex 30.9955 2.63751 2
      vertex 31.4211 3.81966 0
      vertex 31.4211 3.81966 2
    endloop
  endfacet
  facet normal 0.94088 -0.338739 0
    outer loop
      vertex 31.4211 3.81966 0
      vertex 30.9955 2.63751 2
      vertex 30.9955 2.63751 0
    endloop
  endfacet
  facet normal 0.790155 -0.612907 0
    outer loop
      vertex 27.8103 -2.74848 2
      vertex 28.5803 -1.7557 0
      vertex 28.5803 -1.7557 2
    endloop
  endfacet
  facet normal 0.790155 -0.612907 0
    outer loop
      vertex 28.5803 -1.7557 0
      vertex 27.8103 -2.74848 2
      vertex 27.8103 -2.74848 0
    endloop
  endfacet
  facet normal 0.397148 -0.917755 0
    outer loop
      vertex 19.7625 -8.59553 0
      vertex 20.9156 -8.09654 2
      vertex 19.7625 -8.59553 2
    endloop
  endfacet
  facet normal 0.397148 -0.917755 0
    outer loop
      vertex 20.9156 -8.09654 2
      vertex 19.7625 -8.59553 0
      vertex 20.9156 -8.09654 0
    endloop
  endfacet
  facet normal 0.45399 -0.891007 0
    outer loop
      vertex 20.9156 -8.09654 0
      vertex 22.0351 -7.52613 2
      vertex 20.9156 -8.09654 2
    endloop
  endfacet
  facet normal 0.45399 -0.891007 0
    outer loop
      vertex 22.0351 -7.52613 2
      vertex 20.9156 -8.09654 0
      vertex 22.0351 -7.52613 0
    endloop
  endfacet
  facet normal 0.509042 -0.860742 0
    outer loop
      vertex 22.0351 -7.52613 0
      vertex 23.1165 -6.88656 2
      vertex 22.0351 -7.52613 2
    endloop
  endfacet
  facet normal 0.509042 -0.860742 0
    outer loop
      vertex 23.1165 -6.88656 2
      vertex 22.0351 -7.52613 0
      vertex 23.1165 -6.88656 0
    endloop
  endfacet
  facet normal 0.612907 -0.790155 0
    outer loop
      vertex 24.1557 -6.18034 0
      vertex 25.1485 -5.41026 2
      vertex 24.1557 -6.18034 2
    endloop
  endfacet
  facet normal 0.612907 -0.790155 0
    outer loop
      vertex 25.1485 -5.41026 2
      vertex 24.1557 -6.18034 0
      vertex 25.1485 -5.41026 0
    endloop
  endfacet
  facet normal 0.338738 -0.940881 0
    outer loop
      vertex 18.5803 -9.02113 0
      vertex 19.7625 -8.59553 2
      vertex 18.5803 -9.02113 2
    endloop
  endfacet
  facet normal 0.338738 -0.940881 0
    outer loop
      vertex 19.7625 -8.59553 2
      vertex 18.5803 -9.02113 0
      vertex 19.7625 -8.59553 0
    endloop
  endfacet
  facet normal 0.0941082 -0.995562 0
    outer loop
      vertex 13.6558 -9.96053 0
      vertex 14.9067 -9.84229 2
      vertex 13.6558 -9.96053 2
    endloop
  endfacet
  facet normal 0.0941082 -0.995562 0
    outer loop
      vertex 14.9067 -9.84229 2
      vertex 13.6558 -9.96053 0
      vertex 14.9067 -9.84229 0
    endloop
  endfacet
  facet normal -0.218143 -0.975917 0
    outer loop
      vertex 7.4262 -9.37166 0
      vertex 8.65237 -9.64574 2
      vertex 7.4262 -9.37166 2
    endloop
  endfacet
  facet normal -0.218143 -0.975917 -0
    outer loop
      vertex 8.65237 -9.64574 2
      vertex 7.4262 -9.37166 0
      vertex 8.65237 -9.64574 0
    endloop
  endfacet
  facet normal 0.0314111 -0.999507 0
    outer loop
      vertex 12.4 -10 0
      vertex 13.6558 -9.96053 2
      vertex 12.4 -10 2
    endloop
  endfacet
  facet normal 0.0314111 -0.999507 0
    outer loop
      vertex 13.6558 -9.96053 2
      vertex 12.4 -10 0
      vertex 13.6558 -9.96053 0
    endloop
  endfacet
  facet normal -0.790155 -0.612907 0
    outer loop
      vertex -3.01026 -2.74848 0
      vertex -3.78034 -1.7557 2
      vertex -3.78034 -1.7557 0
    endloop
  endfacet
  facet normal -0.790155 -0.612907 0
    outer loop
      vertex -3.78034 -1.7557 2
      vertex -3.01026 -2.74848 0
      vertex -3.01026 -2.74848 2
    endloop
  endfacet
  facet normal -0.917755 -0.397148 0
    outer loop
      vertex -5.69654 1.48441 0
      vertex -6.19553 2.63751 2
      vertex -6.19553 2.63751 0
    endloop
  endfacet
  facet normal -0.917755 -0.397148 0
    outer loop
      vertex -6.19553 2.63751 2
      vertex -5.69654 1.48441 0
      vertex -5.69654 1.48441 2
    endloop
  endfacet
  facet normal -0.995562 -0.0941089 0
    outer loop
      vertex -7.44229 7.49333 0
      vertex -7.56053 8.74419 2
      vertex -7.56053 8.74419 0
    endloop
  endfacet
  facet normal -0.995562 -0.0941089 0
    outer loop
      vertex -7.56053 8.74419 2
      vertex -7.44229 7.49333 0
      vertex -7.44229 7.49333 2
    endloop
  endfacet
  facet normal -0.750111 -0.661312 0
    outer loop
      vertex -2.17937 -3.69094 0
      vertex -3.01026 -2.74848 2
      vertex -3.01026 -2.74848 0
    endloop
  endfacet
  facet normal -0.750111 -0.661312 0
    outer loop
      vertex -3.01026 -2.74848 2
      vertex -2.17937 -3.69094 0
      vertex -2.17937 -3.69094 2
    endloop
  endfacet
  facet normal -0.338737 -0.940881 0
    outer loop
      vertex 5.03751 -8.59553 0
      vertex 6.21966 -9.02113 2
      vertex 5.03751 -8.59553 2
    endloop
  endfacet
  facet normal -0.338737 -0.940881 -0
    outer loop
      vertex 6.21966 -9.02113 2
      vertex 5.03751 -8.59553 0
      vertex 6.21966 -9.02113 0
    endloop
  endfacet
  facet normal -0.278992 -0.960294 0
    outer loop
      vertex 6.21966 -9.02113 0
      vertex 7.4262 -9.37166 2
      vertex 6.21966 -9.02113 2
    endloop
  endfacet
  facet normal -0.278992 -0.960294 -0
    outer loop
      vertex 7.4262 -9.37166 2
      vertex 6.21966 -9.02113 0
      vertex 7.4262 -9.37166 0
    endloop
  endfacet
  facet normal -0.509042 -0.860742 0
    outer loop
      vertex 1.68346 -6.88656 0
      vertex 2.76493 -7.52613 2
      vertex 1.68346 -6.88656 2
    endloop
  endfacet
  facet normal -0.509042 -0.860742 -0
    outer loop
      vertex 2.76493 -7.52613 2
      vertex 1.68346 -6.88656 0
      vertex 2.76493 -7.52613 0
    endloop
  endfacet
  facet normal 0.94088 0.338741 0
    outer loop
      vertex 31.4211 71.1803 2
      vertex 30.9955 72.3625 0
      vertex 30.9955 72.3625 2
    endloop
  endfacet
  facet normal 0.94088 0.338741 0
    outer loop
      vertex 30.9955 72.3625 0
      vertex 31.4211 71.1803 2
      vertex 31.4211 71.1803 0
    endloop
  endfacet
  facet normal 0.987688 0.156434 0
    outer loop
      vertex 32.2423 67.5067 2
      vertex 32.0457 68.7476 0
      vertex 32.0457 68.7476 2
    endloop
  endfacet
  facet normal 0.987688 0.156434 0
    outer loop
      vertex 32.0457 68.7476 0
      vertex 32.2423 67.5067 2
      vertex 32.2423 67.5067 0
    endloop
  endfacet
  facet normal 0.891006 0.453992 0
    outer loop
      vertex 30.4965 73.5156 2
      vertex 29.9261 74.6351 0
      vertex 29.9261 74.6351 2
    endloop
  endfacet
  facet normal 0.891006 0.453992 0
    outer loop
      vertex 29.9261 74.6351 0
      vertex 30.4965 73.5156 2
      vertex 30.4965 73.5156 0
    endloop
  endfacet
  facet normal 0.827081 0.562083 0
    outer loop
      vertex 29.2866 75.7165 2
      vertex 28.5803 76.7557 0
      vertex 28.5803 76.7557 2
    endloop
  endfacet
  facet normal 0.827081 0.562083 0
    outer loop
      vertex 28.5803 76.7557 0
      vertex 29.2866 75.7165 2
      vertex 29.2866 75.7165 0
    endloop
  endfacet
  facet normal 0.61291 0.790153 -0
    outer loop
      vertex 25.1485 80.4103 0
      vertex 24.1557 81.1803 2
      vertex 25.1485 80.4103 2
    endloop
  endfacet
  facet normal 0.61291 0.790153 0
    outer loop
      vertex 24.1557 81.1803 2
      vertex 25.1485 80.4103 0
      vertex 24.1557 81.1803 0
    endloop
  endfacet
  facet normal 0.661309 0.750113 -0
    outer loop
      vertex 26.0909 79.5794 0
      vertex 25.1485 80.4103 2
      vertex 26.0909 79.5794 2
    endloop
  endfacet
  facet normal 0.661309 0.750113 0
    outer loop
      vertex 25.1485 80.4103 2
      vertex 26.0909 79.5794 0
      vertex 25.1485 80.4103 0
    endloop
  endfacet
  facet normal 0.453993 0.891005 -0
    outer loop
      vertex 22.0351 82.5261 0
      vertex 20.9156 83.0965 2
      vertex 22.0351 82.5261 2
    endloop
  endfacet
  facet normal 0.453993 0.891005 0
    outer loop
      vertex 20.9156 83.0965 2
      vertex 22.0351 82.5261 0
      vertex 20.9156 83.0965 0
    endloop
  endfacet
  facet normal 0.0941082 0.995562 -0
    outer loop
      vertex 14.9067 84.8423 0
      vertex 13.6558 84.9605 2
      vertex 14.9067 84.8423 2
    endloop
  endfacet
  facet normal 0.0941082 0.995562 0
    outer loop
      vertex 13.6558 84.9605 2
      vertex 14.9067 84.8423 0
      vertex 13.6558 84.9605 0
    endloop
  endfacet
  facet normal 0.0314119 0.999507 -0
    outer loop
      vertex 13.6558 84.9605 0
      vertex 12.4 85 2
      vertex 13.6558 84.9605 2
    endloop
  endfacet
  facet normal 0.0314119 0.999507 0
    outer loop
      vertex 12.4 85 2
      vertex 13.6558 84.9605 0
      vertex 12.4 85 0
    endloop
  endfacet
  facet normal -0.156434 0.987688 0
    outer loop
      vertex 9.89333 84.8423 0
      vertex 8.65237 84.6457 2
      vertex 9.89333 84.8423 2
    endloop
  endfacet
  facet normal -0.156434 0.987688 0
    outer loop
      vertex 8.65237 84.6457 2
      vertex 9.89333 84.8423 0
      vertex 8.65237 84.6457 0
    endloop
  endfacet
  facet normal -0.278991 0.960294 0
    outer loop
      vertex 7.4262 84.3717 0
      vertex 6.21966 84.0211 2
      vertex 7.4262 84.3717 2
    endloop
  endfacet
  facet normal -0.278991 0.960294 0
    outer loop
      vertex 6.21966 84.0211 2
      vertex 7.4262 84.3717 0
      vertex 6.21966 84.0211 0
    endloop
  endfacet
  facet normal -0.75011 0.661313 0
    outer loop
      vertex -3.01026 77.7485 0
      vertex -2.17937 78.6909 2
      vertex -2.17937 78.6909 0
    endloop
  endfacet
  facet normal -0.75011 0.661313 0
    outer loop
      vertex -2.17937 78.6909 2
      vertex -3.01026 77.7485 0
      vertex -3.01026 77.7485 2
    endloop
  endfacet
  facet normal -0.66131 0.750113 0
    outer loop
      vertex -0.348479 80.4103 0
      vertex -1.29094 79.5794 2
      vertex -0.348479 80.4103 2
    endloop
  endfacet
  facet normal -0.66131 0.750113 0
    outer loop
      vertex -1.29094 79.5794 2
      vertex -0.348479 80.4103 0
      vertex -1.29094 79.5794 0
    endloop
  endfacet
  facet normal 0.562083 -0.827081 0
    outer loop
      vertex 23.1165 -6.88656 0
      vertex 24.1557 -6.18034 2
      vertex 23.1165 -6.88656 2
    endloop
  endfacet
  facet normal 0.562083 -0.827081 0
    outer loop
      vertex 24.1557 -6.18034 2
      vertex 23.1165 -6.88656 0
      vertex 24.1557 -6.18034 0
    endloop
  endfacet
  facet normal 0.707107 -0.707106 0
    outer loop
      vertex 26.0909 -4.57937 2
      vertex 26.9794 -3.69094 0
      vertex 26.9794 -3.69094 2
    endloop
  endfacet
  facet normal 0.707107 -0.707106 0
    outer loop
      vertex 26.9794 -3.69094 0
      vertex 26.0909 -4.57937 2
      vertex 26.0909 -4.57937 0
    endloop
  endfacet
  facet normal 0.156435 -0.987688 0
    outer loop
      vertex 14.9067 -9.84229 0
      vertex 16.1476 -9.64574 2
      vertex 14.9067 -9.84229 2
    endloop
  endfacet
  facet normal 0.156435 -0.987688 0
    outer loop
      vertex 16.1476 -9.64574 2
      vertex 14.9067 -9.84229 0
      vertex 16.1476 -9.64574 0
    endloop
  endfacet
  facet normal -0.156435 -0.987688 0
    outer loop
      vertex 8.65237 -9.64574 0
      vertex 9.89333 -9.84229 2
      vertex 8.65237 -9.64574 2
    endloop
  endfacet
  facet normal -0.156435 -0.987688 -0
    outer loop
      vertex 9.89333 -9.84229 2
      vertex 8.65237 -9.64574 0
      vertex 9.89333 -9.84229 0
    endloop
  endfacet
  facet normal -0.0941082 -0.995562 0
    outer loop
      vertex 9.89333 -9.84229 0
      vertex 11.1442 -9.96053 2
      vertex 9.89333 -9.84229 2
    endloop
  endfacet
  facet normal -0.0941082 -0.995562 -0
    outer loop
      vertex 11.1442 -9.96053 2
      vertex 9.89333 -9.84229 0
      vertex 11.1442 -9.96053 0
    endloop
  endfacet
  facet normal -0.860742 -0.509042 0
    outer loop
      vertex -4.48656 -0.716536 0
      vertex -5.12613 0.364926 2
      vertex -5.12613 0.364926 0
    endloop
  endfacet
  facet normal -0.860742 -0.509042 0
    outer loop
      vertex -5.12613 0.364926 2
      vertex -4.48656 -0.716536 0
      vertex -4.48656 -0.716536 2
    endloop
  endfacet
  facet normal -0.891006 -0.453991 0
    outer loop
      vertex -5.12613 0.364926 0
      vertex -5.69654 1.48441 2
      vertex -5.69654 1.48441 0
    endloop
  endfacet
  facet normal -0.891006 -0.453991 0
    outer loop
      vertex -5.69654 1.48441 2
      vertex -5.12613 0.364926 0
      vertex -5.12613 0.364926 2
    endloop
  endfacet
  facet normal -0.975917 -0.218144 0
    outer loop
      vertex -6.97166 5.0262 0
      vertex -7.24574 6.25237 2
      vertex -7.24574 6.25237 0
    endloop
  endfacet
  facet normal -0.975917 -0.218144 0
    outer loop
      vertex -7.24574 6.25237 2
      vertex -6.97166 5.0262 0
      vertex -6.97166 5.0262 2
    endloop
  endfacet
  facet normal -0.987688 -0.156434 0
    outer loop
      vertex -7.24574 6.25237 0
      vertex -7.44229 7.49333 2
      vertex -7.44229 7.49333 0
    endloop
  endfacet
  facet normal -0.987688 -0.156434 0
    outer loop
      vertex -7.44229 7.49333 2
      vertex -7.24574 6.25237 0
      vertex -7.24574 6.25237 2
    endloop
  endfacet
  facet normal -0.661312 -0.750111 0
    outer loop
      vertex -1.29094 -4.57937 0
      vertex -0.348479 -5.41026 2
      vertex -1.29094 -4.57937 2
    endloop
  endfacet
  facet normal -0.661312 -0.750111 -0
    outer loop
      vertex -0.348479 -5.41026 2
      vertex -1.29094 -4.57937 0
      vertex -0.348479 -5.41026 0
    endloop
  endfacet
  facet normal -0.562083 -0.827081 0
    outer loop
      vertex 0.644295 -6.18034 0
      vertex 1.68346 -6.88656 2
      vertex 0.644295 -6.18034 2
    endloop
  endfacet
  facet normal -0.562083 -0.827081 -0
    outer loop
      vertex 1.68346 -6.88656 2
      vertex 0.644295 -6.18034 0
      vertex 1.68346 -6.88656 0
    endloop
  endfacet
  facet normal -0.707107 -0.707107 0
    outer loop
      vertex -1.29094 -4.57937 0
      vertex -2.17937 -3.69094 2
      vertex -2.17937 -3.69094 0
    endloop
  endfacet
  facet normal -0.707107 -0.707107 0
    outer loop
      vertex -2.17937 -3.69094 2
      vertex -1.29094 -4.57937 0
      vertex -1.29094 -4.57937 2
    endloop
  endfacet
  facet normal -0.45399 -0.891007 0
    outer loop
      vertex 2.76493 -7.52613 0
      vertex 3.88441 -8.09654 2
      vertex 2.76493 -7.52613 2
    endloop
  endfacet
  facet normal -0.45399 -0.891007 -0
    outer loop
      vertex 3.88441 -8.09654 2
      vertex 2.76493 -7.52613 0
      vertex 3.88441 -8.09654 0
    endloop
  endfacet
  facet normal 0.975917 0.218143 0
    outer loop
      vertex 32.0457 68.7476 2
      vertex 31.7717 69.9738 0
      vertex 31.7717 69.9738 2
    endloop
  endfacet
  facet normal 0.975917 0.218143 0
    outer loop
      vertex 31.7717 69.9738 0
      vertex 32.0457 68.7476 2
      vertex 32.0457 68.7476 0
    endloop
  endfacet
  facet normal 0.661311 -0.750112 0
    outer loop
      vertex 25.1485 -5.41026 0
      vertex 26.0909 -4.57937 2
      vertex 25.1485 -5.41026 2
    endloop
  endfacet
  facet normal 0.661311 -0.750112 0
    outer loop
      vertex 26.0909 -4.57937 2
      vertex 25.1485 -5.41026 0
      vertex 26.0909 -4.57937 0
    endloop
  endfacet
  facet normal -0.0314111 -0.999507 0
    outer loop
      vertex 11.1442 -9.96053 0
      vertex 12.4 -10 2
      vertex 11.1442 -9.96053 2
    endloop
  endfacet
  facet normal -0.0314111 -0.999507 -0
    outer loop
      vertex 12.4 -10 2
      vertex 11.1442 -9.96053 0
      vertex 12.4 -10 0
    endloop
  endfacet
  facet normal -0.827081 -0.562083 0
    outer loop
      vertex -3.78034 -1.7557 0
      vertex -4.48656 -0.716536 2
      vertex -4.48656 -0.716536 0
    endloop
  endfacet
  facet normal -0.827081 -0.562083 0
    outer loop
      vertex -4.48656 -0.716536 2
      vertex -3.78034 -1.7557 0
      vertex -3.78034 -1.7557 2
    endloop
  endfacet
  facet normal -0.960294 -0.278991 0
    outer loop
      vertex -6.62113 3.81966 0
      vertex -6.97166 5.0262 2
      vertex -6.97166 5.0262 0
    endloop
  endfacet
  facet normal -0.960294 -0.278991 0
    outer loop
      vertex -6.97166 5.0262 2
      vertex -6.62113 3.81966 0
      vertex -6.62113 3.81966 2
    endloop
  endfacet
  facet normal -0.612908 -0.790154 0
    outer loop
      vertex -0.348479 -5.41026 0
      vertex 0.644295 -6.18034 2
      vertex -0.348479 -5.41026 2
    endloop
  endfacet
  facet normal -0.612908 -0.790154 -0
    outer loop
      vertex 0.644295 -6.18034 2
      vertex -0.348479 -5.41026 0
      vertex 0.644295 -6.18034 0
    endloop
  endfacet
endsolid OpenSCAD_Model
