solid OpenSCAD_Model
  facet normal 1 -0 0
    outer loop
      vertex 2 -10 40
      vertex 2 0 0
      vertex 2 0 40
    endloop
  endfacet
  facet normal 1 0 0
    outer loop
      vertex 2 0 0
      vertex 2 -10 40
      vertex 2 -10 0
    endloop
  endfacet
  facet normal 0 0 1
    outer loop
      vertex 22 2 40
      vertex 24 20 40
      vertex 22 20 40
    endloop
  endfacet
  facet normal 0 0 1
    outer loop
      vertex 24 20 40
      vertex 22 2 40
      vertex 24 0 40
    endloop
  endfacet
  facet normal 0 0 1
    outer loop
      vertex 22 2 40
      vertex 2 0 40
      vertex 24 0 40
    endloop
  endfacet
  facet normal -0 0 1
    outer loop
      vertex 0 2 40
      vertex 2 0 40
      vertex 22 2 40
    endloop
  endfacet
  facet normal 0 0 1
    outer loop
      vertex 0 -10 40
      vertex 2 0 40
      vertex 0 2 40
    endloop
  endfacet
  facet normal 0 0 1
    outer loop
      vertex 2 0 40
      vertex 0 -10 40
      vertex 2 -10 40
    endloop
  endfacet
  facet normal -1 0 0
    outer loop
      vertex 22 2 0
      vertex 22 20 40
      vertex 22 20 0
    endloop
  endfacet
  facet normal -1 -0 0
    outer loop
      vertex 22 20 40
      vertex 22 2 0
      vertex 22 2 40
    endloop
  endfacet
  facet normal 0 0 -1
    outer loop
      vertex 2 -10 0
      vertex 0 -10 0
      vertex 2 0 0
    endloop
  endfacet
  facet normal 0 0 -1
    outer loop
      vertex 24 0 0
      vertex 22 2 0
      vertex 24 20 0
    endloop
  endfacet
  facet normal 0 0 -1
    outer loop
      vertex 2 0 0
      vertex 22 2 0
      vertex 24 0 0
    endloop
  endfacet
  facet normal 0 0 -1
    outer loop
      vertex 2 0 0
      vertex 0 2 0
      vertex 22 2 0
    endloop
  endfacet
  facet normal 0 0 -1
    outer loop
      vertex 0 2 0
      vertex 2 0 0
      vertex 0 -10 0
    endloop
  endfacet
  facet normal -0 0 -1
    outer loop
      vertex 24 20 0
      vertex 22 2 0
      vertex 22 20 0
    endloop
  endfacet
  facet normal 0 -1 0
    outer loop
      vertex 2 0 0
      vertex 24 0 40
      vertex 2 0 40
    endloop
  endfacet
  facet normal 0 -1 -0
    outer loop
      vertex 24 0 40
      vertex 2 0 0
      vertex 24 0 0
    endloop
  endfacet
  facet normal 0 1 -0
    outer loop
      vertex 22 2 0
      vertex 0 2 40
      vertex 22 2 40
    endloop
  endfacet
  facet normal 0 1 0
    outer loop
      vertex 0 2 40
      vertex 22 2 0
      vertex 0 2 0
    endloop
  endfacet
  facet normal 1 -0 0
    outer loop
      vertex 24 0 40
      vertex 24 20 0
      vertex 24 20 40
    endloop
  endfacet
  facet normal 1 0 0
    outer loop
      vertex 24 20 0
      vertex 24 0 40
      vertex 24 0 0
    endloop
  endfacet
  facet normal 0 1 -0
    outer loop
      vertex 24 20 0
      vertex 22 20 40
      vertex 24 20 40
    endloop
  endfacet
  facet normal 0 1 0
    outer loop
      vertex 22 20 40
      vertex 24 20 0
      vertex 22 20 0
    endloop
  endfacet
  facet normal -1 0 0
    outer loop
      vertex 0 -10 0
      vertex 0 2 40
      vertex 0 2 0
    endloop
  endfacet
  facet normal -1 -0 0
    outer loop
      vertex 0 2 40
      vertex 0 -10 0
      vertex 0 -10 40
    endloop
  endfacet
  facet normal 0 -1 0
    outer loop
      vertex 0 -10 0
      vertex 2 -10 40
      vertex 0 -10 40
    endloop
  endfacet
  facet normal 0 -1 -0
    outer loop
      vertex 2 -10 40
      vertex 0 -10 0
      vertex 2 -10 0
    endloop
  endfacet
endsolid OpenSCAD_Model
