solid OpenSCAD_Model
  facet normal 0.917174 0.0288236 0.397442
    outer loop
      vertex 17.4655 1.09883 0
      vertex 11 0 15
      vertex 17.5 0 0
    endloop
  endfacet
  facet normal 0.913555 0.0863563 0.397442
    outer loop
      vertex 17.362 2.19333 0
      vertex 10.9133 1.37866 15
      vertex 17.4655 1.09883 0
    endloop
  endfacet
  facet normal 0.606838 0.688322 0.397442
    outer loop
      vertex 11.1549 13.484 0
      vertex 7.53002 8.01865 15
      vertex 11.9796 12.757 0
    endloop
  endfacet
  facet normal -0.64886 0.64886 0.397442
    outer loop
      vertex -12.757 11.9796 0
      vertex -7.53002 8.01865 15
      vertex -11.9796 12.757 0
    endloop
  endfacet
  facet normal -0.64886 0.64886 0.397442
    outer loop
      vertex -7.53002 8.01865 15
      vertex -12.757 11.9796 0
      vertex -8.01865 7.53002 15
    endloop
  endfacet
  facet normal -0.364434 0.842157 0.397442
    outer loop
      vertex -4.04937 10.2275 15
      vertex -7.45114 15.8345 0
      vertex -4.68357 9.9531 15
    endloop
  endfacet
  facet normal -0.917174 0.0288236 0.397442
    outer loop
      vertex -17.4655 1.09883 0
      vertex -17.5 0 0
      vertex -11 0 15
    endloop
  endfacet
  facet normal 0.842157 0.364433 0.397442
    outer loop
      vertex 15.8345 7.45114 0
      vertex 10.2275 4.04937 15
      vertex 16.2711 6.44218 0
    endloop
  endfacet
  facet normal -0.817612 0.416594 0.397442
    outer loop
      vertex -15.3354 8.43069 0
      vertex -15.8345 7.45114 0
      vertex -9.9531 4.68357 15
    endloop
  endfacet
  facet normal -0.64886 -0.64886 0.397442
    outer loop
      vertex -11.9796 -12.757 0
      vertex -8.01865 -7.53002 15
      vertex -12.757 -11.9796 0
    endloop
  endfacet
  facet normal -0.64886 -0.64886 0.397442
    outer loop
      vertex -8.01865 -7.53002 15
      vertex -11.9796 -12.757 0
      vertex -7.53002 -8.01865 15
    endloop
  endfacet
  facet normal 0.310836 0.863377 0.397442
    outer loop
      vertex 5.4078 16.6435 0
      vertex 4.04937 10.2275 15
      vertex 6.44218 16.2711 0
    endloop
  endfacet
  facet normal 0.515783 0.758952 0.397442
    outer loop
      vertex 9.37697 14.7757 0
      vertex 5.89409 9.28761 15
      vertex 10.2862 14.1578 0
    endloop
  endfacet
  facet normal -0.364433 0.842157 0.397442
    outer loop
      vertex -6.44218 16.2711 0
      vertex -7.45114 15.8345 0
      vertex -4.04937 10.2275 15
    endloop
  endfacet
  facet normal 0.0288236 0.917174 0.397442
    outer loop
      vertex 0 17.5 0
      vertex 0 11 15
      vertex 1.09883 17.4655 0
    endloop
  endfacet
  facet normal 0.78984 0.46711 0.397442
    outer loop
      vertex 15.3354 8.43069 0
      vertex 9.28761 5.89409 15
      vertex 9.63937 5.29929 15
    endloop
  endfacet
  facet normal 0.895528 0.200173 0.397442
    outer loop
      vertex 16.9502 4.35207 0
      vertex 10.8052 2.06119 15
      vertex 17.19 3.27917 0
    endloop
  endfacet
  facet normal 0.90633 0.143548 0.397442
    outer loop
      vertex 17.362 2.19333 0
      vertex 10.8052 2.06119 15
      vertex 10.9133 1.37866 15
    endloop
  endfacet
  facet normal -0.0288236 -0.917174 0.397442
    outer loop
      vertex 0 -11 15
      vertex -1.09883 -17.4655 0
      vertex 0 -17.5 0
    endloop
  endfacet
  facet normal 0.310836 -0.863377 0.397442
    outer loop
      vertex 6.44218 -16.2711 0
      vertex 4.04937 -10.2275 15
      vertex 5.4078 -16.6435 0
    endloop
  endfacet
  facet normal 0.90633 -0.143548 0.397442
    outer loop
      vertex 10.9133 -1.37866 15
      vertex 10.8052 -2.06119 15
      vertex 17.362 -2.19333 0
    endloop
  endfacet
  facet normal -0.416595 0.817611 0.397442
    outer loop
      vertex -4.68357 9.9531 15
      vertex -8.43069 15.3354 0
      vertex -5.29929 9.63937 15
    endloop
  endfacet
  facet normal -0.56242 0.725068 0.397442
    outer loop
      vertex -6.46564 8.89919 15
      vertex -10.2862 14.1578 0
      vertex -7.01166 8.47565 15
    endloop
  endfacet
  facet normal -0.688323 -0.606837 0.397442
    outer loop
      vertex -8.47565 -7.01166 15
      vertex -13.484 -11.1549 0
      vertex -8.01865 -7.53002 15
    endloop
  endfacet
  facet normal -0.842157 -0.364433 0.397442
    outer loop
      vertex -10.2275 -4.04937 15
      vertex -16.2711 -6.44218 0
      vertex -15.8345 -7.45114 0
    endloop
  endfacet
  facet normal 0.310835 0.863378 0.397442
    outer loop
      vertex 5.4078 16.6435 0
      vertex 3.39919 10.4616 15
      vertex 4.04937 10.2275 15
    endloop
  endfacet
  facet normal 0.143548 0.90633 0.397442
    outer loop
      vertex 2.19333 17.362 0
      vertex 1.37866 10.9133 15
      vertex 2.06119 10.8052 15
    endloop
  endfacet
  facet normal 0.364433 0.842157 0.397442
    outer loop
      vertex 6.44218 16.2711 0
      vertex 4.04937 10.2275 15
      vertex 7.45114 15.8345 0
    endloop
  endfacet
  facet normal -0.200173 0.895528 0.397442
    outer loop
      vertex -3.27917 17.19 0
      vertex -4.35207 16.9502 0
      vertex -2.06119 10.8052 15
    endloop
  endfacet
  facet normal -0.14355 0.90633 0.397442
    outer loop
      vertex -2.19333 17.362 0
      vertex -3.27917 17.19 0
      vertex -2.06119 10.8052 15
    endloop
  endfacet
  facet normal 0.0863559 0.913555 0.397442
    outer loop
      vertex 1.09883 17.4655 0
      vertex 0.690695 10.9783 15
      vertex 1.37866 10.9133 15
    endloop
  endfacet
  facet normal 0.725068 0.56242 0.397442
    outer loop
      vertex 13.484 11.1549 0
      vertex 8.47565 7.01166 15
      vertex 14.1578 10.2862 0
    endloop
  endfacet
  facet normal 0.817612 0.416594 0.397442
    outer loop
      vertex 15.3354 8.43069 0
      vertex 9.9531 4.68357 15
      vertex 15.8345 7.45114 0
    endloop
  endfacet
  facet normal 0.56242 0.725068 0.397442
    outer loop
      vertex 10.2862 14.1578 0
      vertex 6.46564 8.89919 15
      vertex 7.01166 8.47565 15
    endloop
  endfacet
  facet normal 0.46711 0.78984 0.397442
    outer loop
      vertex 8.43069 15.3354 0
      vertex 5.89409 9.28761 15
      vertex 9.37697 14.7757 0
    endloop
  endfacet
  facet normal 0.881192 0.256009 0.397442
    outer loop
      vertex 16.6435 5.4078 0
      vertex 10.4616 3.39919 15
      vertex 16.9502 4.35207 0
    endloop
  endfacet
  facet normal 0.863378 0.310835 0.397442
    outer loop
      vertex 16.6435 5.4078 0
      vertex 10.2275 4.04937 15
      vertex 10.4616 3.39919 15
    endloop
  endfacet
  facet normal 0.25601 -0.881192 0.397442
    outer loop
      vertex 3.39919 -10.4616 15
      vertex 2.73559 -10.6544 15
      vertex 4.35207 -16.9502 0
    endloop
  endfacet
  facet normal 0.364434 -0.842157 0.397442
    outer loop
      vertex 4.68357 -9.9531 15
      vertex 4.04937 -10.2275 15
      vertex 7.45114 -15.8345 0
    endloop
  endfacet
  facet normal 0.606838 -0.688322 0.397442
    outer loop
      vertex 11.9796 -12.757 0
      vertex 7.53002 -8.01865 15
      vertex 11.1549 -13.484 0
    endloop
  endfacet
  facet normal 0.46711 -0.78984 0.397442
    outer loop
      vertex 9.37697 -14.7757 0
      vertex 5.89409 -9.28761 15
      vertex 8.43069 -15.3354 0
    endloop
  endfacet
  facet normal 0.364433 -0.842157 0.397442
    outer loop
      vertex 7.45114 -15.8345 0
      vertex 4.04937 -10.2275 15
      vertex 6.44218 -16.2711 0
    endloop
  endfacet
  facet normal 0.842157 -0.364434 0.397442
    outer loop
      vertex 10.2275 -4.04937 15
      vertex 9.9531 -4.68357 15
      vertex 15.8345 -7.45114 0
    endloop
  endfacet
  facet normal 0.895528 -0.200175 0.397442
    outer loop
      vertex 10.8052 -2.06119 15
      vertex 10.6544 -2.73559 15
      vertex 16.9502 -4.35207 0
    endloop
  endfacet
  facet normal 0.917174 -0.0288236 0.397442
    outer loop
      vertex 17.5 0 0
      vertex 11 0 15
      vertex 17.4655 -1.09883 0
    endloop
  endfacet
  facet normal -0.688322 0.606838 0.397442
    outer loop
      vertex -12.757 11.9796 0
      vertex -13.484 11.1549 0
      vertex -8.01865 7.53002 15
    endloop
  endfacet
  facet normal -0.46711 0.78984 0.397442
    outer loop
      vertex -8.43069 15.3354 0
      vertex -9.37697 14.7757 0
      vertex -5.89409 9.28761 15
    endloop
  endfacet
  facet normal -0.515783 0.758952 0.397442
    outer loop
      vertex -9.37697 14.7757 0
      vertex -10.2862 14.1578 0
      vertex -5.89409 9.28761 15
    endloop
  endfacet
  facet normal -0.606838 0.688322 0.397442
    outer loop
      vertex -11.1549 13.484 0
      vertex -11.9796 12.757 0
      vertex -7.53002 8.01865 15
    endloop
  endfacet
  facet normal -0.758952 -0.515783 0.397442
    outer loop
      vertex -9.28761 -5.89409 15
      vertex -14.1578 -10.2862 0
      vertex -8.89919 -6.46564 15
    endloop
  endfacet
  facet normal -0.725068 -0.56242 0.397442
    outer loop
      vertex -8.47565 -7.01166 15
      vertex -14.1578 -10.2862 0
      vertex -13.484 -11.1549 0
    endloop
  endfacet
  facet normal -0.895528 -0.200173 0.397442
    outer loop
      vertex -10.8052 -2.06119 15
      vertex -17.19 -3.27917 0
      vertex -16.9502 -4.35207 0
    endloop
  endfacet
  facet normal -0.90633 -0.14355 0.397442
    outer loop
      vertex -10.8052 -2.06119 15
      vertex -17.362 -2.19333 0
      vertex -17.19 -3.27917 0
    endloop
  endfacet
  facet normal -0.90633 -0.143548 0.397442
    outer loop
      vertex -10.9133 -1.37866 15
      vertex -17.362 -2.19333 0
      vertex -10.8052 -2.06119 15
    endloop
  endfacet
  facet normal -0.842157 0.364433 0.397442
    outer loop
      vertex -15.8345 7.45114 0
      vertex -16.2711 6.44218 0
      vertex -10.2275 4.04937 15
    endloop
  endfacet
  facet normal -0.913555 0.0863563 0.397442
    outer loop
      vertex -17.362 2.19333 0
      vertex -17.4655 1.09883 0
      vertex -10.9133 1.37866 15
    endloop
  endfacet
  facet normal -0.881192 0.256009 0.397442
    outer loop
      vertex -16.6435 5.4078 0
      vertex -16.9502 4.35207 0
      vertex -10.4616 3.39919 15
    endloop
  endfacet
  facet normal -0.725068 0.56242 0.397442
    outer loop
      vertex -8.47565 7.01166 15
      vertex -14.1578 10.2862 0
      vertex -8.89919 6.46564 15
    endloop
  endfacet
  facet normal -0.758952 0.515783 0.397442
    outer loop
      vertex -8.89919 6.46564 15
      vertex -14.1578 10.2862 0
      vertex -9.28761 5.89409 15
    endloop
  endfacet
  facet normal -0.56242 -0.725068 0.397442
    outer loop
      vertex -7.01166 -8.47565 15
      vertex -11.1549 -13.484 0
      vertex -10.2862 -14.1578 0
    endloop
  endfacet
  facet normal 0.14355 0.90633 0.397442
    outer loop
      vertex 2.19333 17.362 0
      vertex 2.06119 10.8052 15
      vertex 3.27917 17.19 0
    endloop
  endfacet
  facet normal -0.200175 0.895528 0.397442
    outer loop
      vertex -2.06119 10.8052 15
      vertex -4.35207 16.9502 0
      vertex -2.73559 10.6544 15
    endloop
  endfacet
  facet normal -0.310836 0.863377 0.397442
    outer loop
      vertex -5.4078 16.6435 0
      vertex -6.44218 16.2711 0
      vertex -4.04937 10.2275 15
    endloop
  endfacet
  facet normal -0.256009 0.881192 0.397442
    outer loop
      vertex -4.35207 16.9502 0
      vertex -5.4078 16.6435 0
      vertex -3.39919 10.4616 15
    endloop
  endfacet
  facet normal -0.0288242 0.917174 0.397442
    outer loop
      vertex 0 11 15
      vertex -1.09883 17.4655 0
      vertex -0.690695 10.9783 15
    endloop
  endfacet
  facet normal -0.0288236 0.917174 0.397442
    outer loop
      vertex 0 17.5 0
      vertex -1.09883 17.4655 0
      vertex 0 11 15
    endloop
  endfacet
  facet normal -0.0863563 0.913555 0.397442
    outer loop
      vertex -1.09883 17.4655 0
      vertex -2.19333 17.362 0
      vertex -1.37866 10.9133 15
    endloop
  endfacet
  facet normal -0.143548 0.90633 0.397442
    outer loop
      vertex -1.37866 10.9133 15
      vertex -2.19333 17.362 0
      vertex -2.06119 10.8052 15
    endloop
  endfacet
  facet normal 0.0863563 0.913555 0.397442
    outer loop
      vertex 2.19333 17.362 0
      vertex 1.09883 17.4655 0
      vertex 1.37866 10.9133 15
    endloop
  endfacet
  facet normal 0.725068 0.56242 0.397442
    outer loop
      vertex 14.1578 10.2862 0
      vertex 8.47565 7.01166 15
      vertex 8.89919 6.46564 15
    endloop
  endfacet
  facet normal 0.78984 0.46711 0.397442
    outer loop
      vertex 14.7757 9.37697 0
      vertex 9.28761 5.89409 15
      vertex 15.3354 8.43069 0
    endloop
  endfacet
  facet normal 0.842157 0.364434 0.397442
    outer loop
      vertex 15.8345 7.45114 0
      vertex 9.9531 4.68357 15
      vertex 10.2275 4.04937 15
    endloop
  endfacet
  facet normal 0.56242 0.725068 0.397442
    outer loop
      vertex 10.2862 14.1578 0
      vertex 7.01166 8.47565 15
      vertex 11.1549 13.484 0
    endloop
  endfacet
  facet normal 0.606837 0.688323 0.397442
    outer loop
      vertex 11.1549 13.484 0
      vertex 7.01166 8.47565 15
      vertex 7.53002 8.01865 15
    endloop
  endfacet
  facet normal 0.515783 0.758952 0.397442
    outer loop
      vertex 10.2862 14.1578 0
      vertex 5.89409 9.28761 15
      vertex 6.46564 8.89919 15
    endloop
  endfacet
  facet normal 0.46711 0.78984 0.397442
    outer loop
      vertex 8.43069 15.3354 0
      vertex 5.29929 9.63937 15
      vertex 5.89409 9.28761 15
    endloop
  endfacet
  facet normal 0.863377 0.310836 0.397442
    outer loop
      vertex 16.2711 6.44218 0
      vertex 10.2275 4.04937 15
      vertex 16.6435 5.4078 0
    endloop
  endfacet
  facet normal 0.913555 0.0863559 0.397442
    outer loop
      vertex 17.4655 1.09883 0
      vertex 10.9133 1.37866 15
      vertex 10.9783 0.690695 15
    endloop
  endfacet
  facet normal 0.90633 0.14355 0.397442
    outer loop
      vertex 17.19 3.27917 0
      vertex 10.8052 2.06119 15
      vertex 17.362 2.19333 0
    endloop
  endfacet
  facet normal 0.881192 0.25601 0.397442
    outer loop
      vertex 16.9502 4.35207 0
      vertex 10.4616 3.39919 15
      vertex 10.6544 2.73559 15
    endloop
  endfacet
  facet normal 0.0863563 -0.913555 0.397442
    outer loop
      vertex 1.37866 -10.9133 15
      vertex 1.09883 -17.4655 0
      vertex 2.19333 -17.362 0
    endloop
  endfacet
  facet normal -0.143548 -0.90633 0.397442
    outer loop
      vertex -2.06119 -10.8052 15
      vertex -2.19333 -17.362 0
      vertex -1.37866 -10.9133 15
    endloop
  endfacet
  facet normal -0.46711 -0.78984 0.397442
    outer loop
      vertex -5.89409 -9.28761 15
      vertex -8.43069 -15.3354 0
      vertex -5.29929 -9.63937 15
    endloop
  endfacet
  facet normal -0.364434 -0.842157 0.397442
    outer loop
      vertex -4.68357 -9.9531 15
      vertex -7.45114 -15.8345 0
      vertex -4.04937 -10.2275 15
    endloop
  endfacet
  facet normal -0.200173 -0.895528 0.397442
    outer loop
      vertex -2.06119 -10.8052 15
      vertex -4.35207 -16.9502 0
      vertex -3.27917 -17.19 0
    endloop
  endfacet
  facet normal 0.64886 -0.64886 0.397442
    outer loop
      vertex 11.9796 -12.757 0
      vertex 8.01865 -7.53002 15
      vertex 7.53002 -8.01865 15
    endloop
  endfacet
  facet normal 0.64886 -0.64886 0.397442
    outer loop
      vertex 8.01865 -7.53002 15
      vertex 11.9796 -12.757 0
      vertex 12.757 -11.9796 0
    endloop
  endfacet
  facet normal 0.515783 -0.758952 0.397442
    outer loop
      vertex 10.2862 -14.1578 0
      vertex 5.89409 -9.28761 15
      vertex 9.37697 -14.7757 0
    endloop
  endfacet
  facet normal 0.758952 -0.515783 0.397442
    outer loop
      vertex 9.28761 -5.89409 15
      vertex 8.89919 -6.46564 15
      vertex 14.1578 -10.2862 0
    endloop
  endfacet
  facet normal -0.416594 0.817612 0.397442
    outer loop
      vertex -7.45114 15.8345 0
      vertex -8.43069 15.3354 0
      vertex -4.68357 9.9531 15
    endloop
  endfacet
  facet normal -0.56242 0.725068 0.397442
    outer loop
      vertex -10.2862 14.1578 0
      vertex -11.1549 13.484 0
      vertex -7.01166 8.47565 15
    endloop
  endfacet
  facet normal -0.606837 0.688323 0.397442
    outer loop
      vertex -7.01166 8.47565 15
      vertex -11.1549 13.484 0
      vertex -7.53002 8.01865 15
    endloop
  endfacet
  facet normal -0.78984 -0.46711 0.397442
    outer loop
      vertex -9.28761 -5.89409 15
      vertex -15.3354 -8.43069 0
      vertex -14.7757 -9.37697 0
    endloop
  endfacet
  facet normal -0.863377 -0.310836 0.397442
    outer loop
      vertex -10.2275 -4.04937 15
      vertex -16.6435 -5.4078 0
      vertex -16.2711 -6.44218 0
    endloop
  endfacet
  facet normal 0 0 -1
    outer loop
      vertex 17.4655 -1.09883 0
      vertex 17.4655 1.09883 0
      vertex 17.5 0 0
    endloop
  endfacet
  facet normal 0 0 -1
    outer loop
      vertex 17.362 -2.19333 0
      vertex 17.4655 1.09883 0
      vertex 17.4655 -1.09883 0
    endloop
  endfacet
  facet normal 0 0 -1
    outer loop
      vertex 17.362 -2.19333 0
      vertex 17.362 2.19333 0
      vertex 17.4655 1.09883 0
    endloop
  endfacet
  facet normal 0 0 -1
    outer loop
      vertex 17.19 -3.27917 0
      vertex 17.362 2.19333 0
      vertex 17.362 -2.19333 0
    endloop
  endfacet
  facet normal 0 0 -1
    outer loop
      vertex 17.19 -3.27917 0
      vertex 17.19 3.27917 0
      vertex 17.362 2.19333 0
    endloop
  endfacet
  facet normal 0 0 -1
    outer loop
      vertex 16.9502 -4.35207 0
      vertex 17.19 3.27917 0
      vertex 17.19 -3.27917 0
    endloop
  endfacet
  facet normal 0 0 -1
    outer loop
      vertex 16.9502 -4.35207 0
      vertex 16.9502 4.35207 0
      vertex 17.19 3.27917 0
    endloop
  endfacet
  facet normal 0 0 -1
    outer loop
      vertex 16.6435 -5.4078 0
      vertex 16.9502 4.35207 0
      vertex 16.9502 -4.35207 0
    endloop
  endfacet
  facet normal 0 0 -1
    outer loop
      vertex 16.6435 -5.4078 0
      vertex 16.6435 5.4078 0
      vertex 16.9502 4.35207 0
    endloop
  endfacet
  facet normal 0 0 -1
    outer loop
      vertex 16.2711 -6.44218 0
      vertex 16.6435 5.4078 0
      vertex 16.6435 -5.4078 0
    endloop
  endfacet
  facet normal 0 0 -1
    outer loop
      vertex 16.2711 -6.44218 0
      vertex 16.2711 6.44218 0
      vertex 16.6435 5.4078 0
    endloop
  endfacet
  facet normal 0 0 -1
    outer loop
      vertex 15.8345 -7.45114 0
      vertex 16.2711 6.44218 0
      vertex 16.2711 -6.44218 0
    endloop
  endfacet
  facet normal 0 0 -1
    outer loop
      vertex 15.8345 -7.45114 0
      vertex 15.8345 7.45114 0
      vertex 16.2711 6.44218 0
    endloop
  endfacet
  facet normal 0 0 -1
    outer loop
      vertex 15.3354 -8.43069 0
      vertex 15.8345 7.45114 0
      vertex 15.8345 -7.45114 0
    endloop
  endfacet
  facet normal 0 0 -1
    outer loop
      vertex 15.3354 -8.43069 0
      vertex 15.3354 8.43069 0
      vertex 15.8345 7.45114 0
    endloop
  endfacet
  facet normal 0 0 -1
    outer loop
      vertex 14.7757 -9.37697 0
      vertex 15.3354 8.43069 0
      vertex 15.3354 -8.43069 0
    endloop
  endfacet
  facet normal 0 0 -1
    outer loop
      vertex 14.7757 -9.37697 0
      vertex 14.7757 9.37697 0
      vertex 15.3354 8.43069 0
    endloop
  endfacet
  facet normal 0 0 -1
    outer loop
      vertex 14.1578 -10.2862 0
      vertex 14.7757 9.37697 0
      vertex 14.7757 -9.37697 0
    endloop
  endfacet
  facet normal 0 0 -1
    outer loop
      vertex 14.1578 -10.2862 0
      vertex 14.1578 10.2862 0
      vertex 14.7757 9.37697 0
    endloop
  endfacet
  facet normal 0 0 -1
    outer loop
      vertex 13.484 -11.1549 0
      vertex 14.1578 10.2862 0
      vertex 14.1578 -10.2862 0
    endloop
  endfacet
  facet normal 0 0 -1
    outer loop
      vertex 13.484 -11.1549 0
      vertex 13.484 11.1549 0
      vertex 14.1578 10.2862 0
    endloop
  endfacet
  facet normal 0 0 -1
    outer loop
      vertex 12.757 -11.9796 0
      vertex 13.484 11.1549 0
      vertex 13.484 -11.1549 0
    endloop
  endfacet
  facet normal 0 0 -1
    outer loop
      vertex 12.757 -11.9796 0
      vertex 12.757 11.9796 0
      vertex 13.484 11.1549 0
    endloop
  endfacet
  facet normal 0 0 -1
    outer loop
      vertex 11.9796 -12.757 0
      vertex 12.757 11.9796 0
      vertex 12.757 -11.9796 0
    endloop
  endfacet
  facet normal 0 0 -1
    outer loop
      vertex 11.9796 -12.757 0
      vertex 11.9796 12.757 0
      vertex 12.757 11.9796 0
    endloop
  endfacet
  facet normal 0 0 -1
    outer loop
      vertex 11.1549 -13.484 0
      vertex 11.9796 12.757 0
      vertex 11.9796 -12.757 0
    endloop
  endfacet
  facet normal 0 0 -1
    outer loop
      vertex 11.1549 -13.484 0
      vertex 11.1549 13.484 0
      vertex 11.9796 12.757 0
    endloop
  endfacet
  facet normal 0 0 -1
    outer loop
      vertex 10.2862 -14.1578 0
      vertex 11.1549 13.484 0
      vertex 11.1549 -13.484 0
    endloop
  endfacet
  facet normal 0 0 -1
    outer loop
      vertex 10.2862 -14.1578 0
      vertex 10.2862 14.1578 0
      vertex 11.1549 13.484 0
    endloop
  endfacet
  facet normal 0 0 -1
    outer loop
      vertex 9.37697 -14.7757 0
      vertex 10.2862 14.1578 0
      vertex 10.2862 -14.1578 0
    endloop
  endfacet
  facet normal 0 0 -1
    outer loop
      vertex 9.37697 -14.7757 0
      vertex 9.37697 14.7757 0
      vertex 10.2862 14.1578 0
    endloop
  endfacet
  facet normal 0 0 -1
    outer loop
      vertex 8.43069 -15.3354 0
      vertex 9.37697 14.7757 0
      vertex 9.37697 -14.7757 0
    endloop
  endfacet
  facet normal 0 0 -1
    outer loop
      vertex 8.43069 -15.3354 0
      vertex 8.43069 15.3354 0
      vertex 9.37697 14.7757 0
    endloop
  endfacet
  facet normal 0 0 -1
    outer loop
      vertex 7.45114 -15.8345 0
      vertex 8.43069 15.3354 0
      vertex 8.43069 -15.3354 0
    endloop
  endfacet
  facet normal 0 0 -1
    outer loop
      vertex 7.45114 -15.8345 0
      vertex 7.45114 15.8345 0
      vertex 8.43069 15.3354 0
    endloop
  endfacet
  facet normal 0 0 -1
    outer loop
      vertex 6.44218 -16.2711 0
      vertex 7.45114 15.8345 0
      vertex 7.45114 -15.8345 0
    endloop
  endfacet
  facet normal 0 0 -1
    outer loop
      vertex 6.44218 -16.2711 0
      vertex 6.44218 16.2711 0
      vertex 7.45114 15.8345 0
    endloop
  endfacet
  facet normal 0 0 -1
    outer loop
      vertex 5.4078 -16.6435 0
      vertex 6.44218 16.2711 0
      vertex 6.44218 -16.2711 0
    endloop
  endfacet
  facet normal 0 0 -1
    outer loop
      vertex 5.4078 -16.6435 0
      vertex 5.4078 16.6435 0
      vertex 6.44218 16.2711 0
    endloop
  endfacet
  facet normal 0 0 -1
    outer loop
      vertex 4.35207 -16.9502 0
      vertex 5.4078 16.6435 0
      vertex 5.4078 -16.6435 0
    endloop
  endfacet
  facet normal 0 0 -1
    outer loop
      vertex 4.35207 -16.9502 0
      vertex 4.35207 16.9502 0
      vertex 5.4078 16.6435 0
    endloop
  endfacet
  facet normal 0 0 -1
    outer loop
      vertex 3.27917 -17.19 0
      vertex 4.35207 16.9502 0
      vertex 4.35207 -16.9502 0
    endloop
  endfacet
  facet normal 0 0 -1
    outer loop
      vertex 3.27917 -17.19 0
      vertex 3.27917 17.19 0
      vertex 4.35207 16.9502 0
    endloop
  endfacet
  facet normal 0 0 -1
    outer loop
      vertex 2.19333 -17.362 0
      vertex 3.27917 17.19 0
      vertex 3.27917 -17.19 0
    endloop
  endfacet
  facet normal 0 0 -1
    outer loop
      vertex 2.19333 -17.362 0
      vertex 2.19333 17.362 0
      vertex 3.27917 17.19 0
    endloop
  endfacet
  facet normal 0 0 -1
    outer loop
      vertex 1.09883 -17.4655 0
      vertex 2.19333 17.362 0
      vertex 2.19333 -17.362 0
    endloop
  endfacet
  facet normal 0 0 -1
    outer loop
      vertex 1.09883 -17.4655 0
      vertex 1.09883 17.4655 0
      vertex 2.19333 17.362 0
    endloop
  endfacet
  facet normal 0 0 -1
    outer loop
      vertex 0 -17.5 0
      vertex 1.09883 17.4655 0
      vertex 1.09883 -17.4655 0
    endloop
  endfacet
  facet normal 0 0 -1
    outer loop
      vertex 0 -17.5 0
      vertex 0 17.5 0
      vertex 1.09883 17.4655 0
    endloop
  endfacet
  facet normal 0 0 -1
    outer loop
      vertex -1.09883 -17.4655 0
      vertex 0 17.5 0
      vertex 0 -17.5 0
    endloop
  endfacet
  facet normal 0 0 -1
    outer loop
      vertex -1.09883 -17.4655 0
      vertex -1.09883 17.4655 0
      vertex 0 17.5 0
    endloop
  endfacet
  facet normal 0 0 -1
    outer loop
      vertex -2.19333 -17.362 0
      vertex -1.09883 17.4655 0
      vertex -1.09883 -17.4655 0
    endloop
  endfacet
  facet normal 0 0 -1
    outer loop
      vertex -2.19333 -17.362 0
      vertex -2.19333 17.362 0
      vertex -1.09883 17.4655 0
    endloop
  endfacet
  facet normal 0 0 -1
    outer loop
      vertex -3.27917 -17.19 0
      vertex -2.19333 17.362 0
      vertex -2.19333 -17.362 0
    endloop
  endfacet
  facet normal 0 0 -1
    outer loop
      vertex -3.27917 -17.19 0
      vertex -3.27917 17.19 0
      vertex -2.19333 17.362 0
    endloop
  endfacet
  facet normal 0 0 -1
    outer loop
      vertex -4.35207 -16.9502 0
      vertex -3.27917 17.19 0
      vertex -3.27917 -17.19 0
    endloop
  endfacet
  facet normal 0 0 -1
    outer loop
      vertex -4.35207 -16.9502 0
      vertex -4.35207 16.9502 0
      vertex -3.27917 17.19 0
    endloop
  endfacet
  facet normal 0 0 -1
    outer loop
      vertex -5.4078 -16.6435 0
      vertex -4.35207 16.9502 0
      vertex -4.35207 -16.9502 0
    endloop
  endfacet
  facet normal 0 0 -1
    outer loop
      vertex -5.4078 -16.6435 0
      vertex -5.4078 16.6435 0
      vertex -4.35207 16.9502 0
    endloop
  endfacet
  facet normal 0 0 -1
    outer loop
      vertex -6.44218 -16.2711 0
      vertex -5.4078 16.6435 0
      vertex -5.4078 -16.6435 0
    endloop
  endfacet
  facet normal 0 0 -1
    outer loop
      vertex -6.44218 -16.2711 0
      vertex -6.44218 16.2711 0
      vertex -5.4078 16.6435 0
    endloop
  endfacet
  facet normal 0 0 -1
    outer loop
      vertex -7.45114 -15.8345 0
      vertex -6.44218 16.2711 0
      vertex -6.44218 -16.2711 0
    endloop
  endfacet
  facet normal 0 0 -1
    outer loop
      vertex -7.45114 -15.8345 0
      vertex -7.45114 15.8345 0
      vertex -6.44218 16.2711 0
    endloop
  endfacet
  facet normal 0 0 -1
    outer loop
      vertex -8.43069 -15.3354 0
      vertex -7.45114 15.8345 0
      vertex -7.45114 -15.8345 0
    endloop
  endfacet
  facet normal 0 0 -1
    outer loop
      vertex -8.43069 -15.3354 0
      vertex -8.43069 15.3354 0
      vertex -7.45114 15.8345 0
    endloop
  endfacet
  facet normal 0 0 -1
    outer loop
      vertex -9.37697 -14.7757 0
      vertex -8.43069 15.3354 0
      vertex -8.43069 -15.3354 0
    endloop
  endfacet
  facet normal 0 0 -1
    outer loop
      vertex -9.37697 -14.7757 0
      vertex -9.37697 14.7757 0
      vertex -8.43069 15.3354 0
    endloop
  endfacet
  facet normal 0 0 -1
    outer loop
      vertex -10.2862 -14.1578 0
      vertex -9.37697 14.7757 0
      vertex -9.37697 -14.7757 0
    endloop
  endfacet
  facet normal 0 0 -1
    outer loop
      vertex -10.2862 -14.1578 0
      vertex -10.2862 14.1578 0
      vertex -9.37697 14.7757 0
    endloop
  endfacet
  facet normal 0 0 -1
    outer loop
      vertex -11.1549 -13.484 0
      vertex -10.2862 14.1578 0
      vertex -10.2862 -14.1578 0
    endloop
  endfacet
  facet normal 0 0 -1
    outer loop
      vertex -11.1549 -13.484 0
      vertex -11.1549 13.484 0
      vertex -10.2862 14.1578 0
    endloop
  endfacet
  facet normal 0 0 -1
    outer loop
      vertex -11.9796 -12.757 0
      vertex -11.1549 13.484 0
      vertex -11.1549 -13.484 0
    endloop
  endfacet
  facet normal 0 0 -1
    outer loop
      vertex -11.9796 -12.757 0
      vertex -11.9796 12.757 0
      vertex -11.1549 13.484 0
    endloop
  endfacet
  facet normal 0 0 -1
    outer loop
      vertex -12.757 -11.9796 0
      vertex -11.9796 12.757 0
      vertex -11.9796 -12.757 0
    endloop
  endfacet
  facet normal 0 0 -1
    outer loop
      vertex -12.757 -11.9796 0
      vertex -12.757 11.9796 0
      vertex -11.9796 12.757 0
    endloop
  endfacet
  facet normal 0 0 -1
    outer loop
      vertex -13.484 -11.1549 0
      vertex -12.757 11.9796 0
      vertex -12.757 -11.9796 0
    endloop
  endfacet
  facet normal 0 0 -1
    outer loop
      vertex -13.484 -11.1549 0
      vertex -13.484 11.1549 0
      vertex -12.757 11.9796 0
    endloop
  endfacet
  facet normal 0 0 -1
    outer loop
      vertex -14.1578 -10.2862 0
      vertex -13.484 11.1549 0
      vertex -13.484 -11.1549 0
    endloop
  endfacet
  facet normal 0 0 -1
    outer loop
      vertex -14.1578 -10.2862 0
      vertex -14.1578 10.2862 0
      vertex -13.484 11.1549 0
    endloop
  endfacet
  facet normal 0 0 -1
    outer loop
      vertex -14.7757 -9.37697 0
      vertex -14.1578 10.2862 0
      vertex -14.1578 -10.2862 0
    endloop
  endfacet
  facet normal 0 0 -1
    outer loop
      vertex -14.7757 -9.37697 0
      vertex -14.7757 9.37697 0
      vertex -14.1578 10.2862 0
    endloop
  endfacet
  facet normal 0 0 -1
    outer loop
      vertex -15.3354 -8.43069 0
      vertex -14.7757 9.37697 0
      vertex -14.7757 -9.37697 0
    endloop
  endfacet
  facet normal 0 0 -1
    outer loop
      vertex -15.3354 -8.43069 0
      vertex -15.3354 8.43069 0
      vertex -14.7757 9.37697 0
    endloop
  endfacet
  facet normal 0 0 -1
    outer loop
      vertex -15.8345 -7.45114 0
      vertex -15.3354 8.43069 0
      vertex -15.3354 -8.43069 0
    endloop
  endfacet
  facet normal 0 0 -1
    outer loop
      vertex -15.8345 -7.45114 0
      vertex -15.8345 7.45114 0
      vertex -15.3354 8.43069 0
    endloop
  endfacet
  facet normal 0 0 -1
    outer loop
      vertex -16.2711 -6.44218 0
      vertex -15.8345 7.45114 0
      vertex -15.8345 -7.45114 0
    endloop
  endfacet
  facet normal 0 0 -1
    outer loop
      vertex -16.2711 -6.44218 0
      vertex -16.2711 6.44218 0
      vertex -15.8345 7.45114 0
    endloop
  endfacet
  facet normal 0 0 -1
    outer loop
      vertex -16.6435 -5.4078 0
      vertex -16.2711 6.44218 0
      vertex -16.2711 -6.44218 0
    endloop
  endfacet
  facet normal 0 0 -1
    outer loop
      vertex -16.6435 -5.4078 0
      vertex -16.6435 5.4078 0
      vertex -16.2711 6.44218 0
    endloop
  endfacet
  facet normal 0 0 -1
    outer loop
      vertex -16.9502 -4.35207 0
      vertex -16.6435 5.4078 0
      vertex -16.6435 -5.4078 0
    endloop
  endfacet
  facet normal 0 0 -1
    outer loop
      vertex -16.9502 -4.35207 0
      vertex -16.9502 4.35207 0
      vertex -16.6435 5.4078 0
    endloop
  endfacet
  facet normal 0 0 -1
    outer loop
      vertex -17.19 -3.27917 0
      vertex -16.9502 4.35207 0
      vertex -16.9502 -4.35207 0
    endloop
  endfacet
  facet normal 0 0 -1
    outer loop
      vertex -17.19 -3.27917 0
      vertex -17.19 3.27917 0
      vertex -16.9502 4.35207 0
    endloop
  endfacet
  facet normal 0 0 -1
    outer loop
      vertex -17.362 -2.19333 0
      vertex -17.19 3.27917 0
      vertex -17.19 -3.27917 0
    endloop
  endfacet
  facet normal 0 0 -1
    outer loop
      vertex -17.362 -2.19333 0
      vertex -17.362 2.19333 0
      vertex -17.19 3.27917 0
    endloop
  endfacet
  facet normal 0 0 -1
    outer loop
      vertex -17.4655 -1.09883 0
      vertex -17.362 2.19333 0
      vertex -17.362 -2.19333 0
    endloop
  endfacet
  facet normal 0 0 -1
    outer loop
      vertex -17.4655 -1.09883 0
      vertex -17.4655 1.09883 0
      vertex -17.362 2.19333 0
    endloop
  endfacet
  facet normal 0 -0 -1
    outer loop
      vertex -17.4655 1.09883 0
      vertex -17.4655 -1.09883 0
      vertex -17.5 0 0
    endloop
  endfacet
  facet normal -0.913555 -0.0863563 0.397442
    outer loop
      vertex -10.9133 -1.37866 15
      vertex -17.4655 -1.09883 0
      vertex -17.362 -2.19333 0
    endloop
  endfacet
  facet normal -0.895528 0.200173 0.397442
    outer loop
      vertex -16.9502 4.35207 0
      vertex -17.19 3.27917 0
      vertex -10.8052 2.06119 15
    endloop
  endfacet
  facet normal -0.90633 0.14355 0.397442
    outer loop
      vertex -17.19 3.27917 0
      vertex -17.362 2.19333 0
      vertex -10.8052 2.06119 15
    endloop
  endfacet
  facet normal -0.881192 0.25601 0.397442
    outer loop
      vertex -10.4616 3.39919 15
      vertex -16.9502 4.35207 0
      vertex -10.6544 2.73559 15
    endloop
  endfacet
  facet normal -0.863377 0.310836 0.397442
    outer loop
      vertex -16.2711 6.44218 0
      vertex -16.6435 5.4078 0
      vertex -10.2275 4.04937 15
    endloop
  endfacet
  facet normal -0.863378 0.310835 0.397442
    outer loop
      vertex -10.2275 4.04937 15
      vertex -16.6435 5.4078 0
      vertex -10.4616 3.39919 15
    endloop
  endfacet
  facet normal -0.688323 0.606837 0.397442
    outer loop
      vertex -8.01865 7.53002 15
      vertex -13.484 11.1549 0
      vertex -8.47565 7.01166 15
    endloop
  endfacet
  facet normal -0.725068 0.56242 0.397442
    outer loop
      vertex -13.484 11.1549 0
      vertex -14.1578 10.2862 0
      vertex -8.47565 7.01166 15
    endloop
  endfacet
  facet normal -0.78984 0.46711 0.397442
    outer loop
      vertex -14.7757 9.37697 0
      vertex -15.3354 8.43069 0
      vertex -9.28761 5.89409 15
    endloop
  endfacet
  facet normal -0.758952 0.515783 0.397442
    outer loop
      vertex -14.1578 10.2862 0
      vertex -14.7757 9.37697 0
      vertex -9.28761 5.89409 15
    endloop
  endfacet
  facet normal -0.78984 0.46711 0.397442
    outer loop
      vertex -9.28761 5.89409 15
      vertex -15.3354 8.43069 0
      vertex -9.63937 5.29929 15
    endloop
  endfacet
  facet normal -0.817611 0.416595 0.397442
    outer loop
      vertex -9.63937 5.29929 15
      vertex -15.3354 8.43069 0
      vertex -9.9531 4.68357 15
    endloop
  endfacet
  facet normal -0.606838 -0.688322 0.397442
    outer loop
      vertex -7.53002 -8.01865 15
      vertex -11.9796 -12.757 0
      vertex -11.1549 -13.484 0
    endloop
  endfacet
  facet normal 0.25601 0.881192 0.397442
    outer loop
      vertex 4.35207 16.9502 0
      vertex 2.73559 10.6544 15
      vertex 3.39919 10.4616 15
    endloop
  endfacet
  facet normal 0.256009 0.881192 0.397442
    outer loop
      vertex 4.35207 16.9502 0
      vertex 3.39919 10.4616 15
      vertex 5.4078 16.6435 0
    endloop
  endfacet
  facet normal 0.200175 0.895528 0.397442
    outer loop
      vertex 4.35207 16.9502 0
      vertex 2.06119 10.8052 15
      vertex 2.73559 10.6544 15
    endloop
  endfacet
  facet normal 0.200173 0.895528 0.397442
    outer loop
      vertex 3.27917 17.19 0
      vertex 2.06119 10.8052 15
      vertex 4.35207 16.9502 0
    endloop
  endfacet
  facet normal -0.310835 0.863378 0.397442
    outer loop
      vertex -3.39919 10.4616 15
      vertex -5.4078 16.6435 0
      vertex -4.04937 10.2275 15
    endloop
  endfacet
  facet normal -0.0863559 0.913555 0.397442
    outer loop
      vertex -1.09883 17.4655 0
      vertex -1.37866 10.9133 15
      vertex -0.690695 10.9783 15
    endloop
  endfacet
  facet normal 0.0288242 0.917174 0.397442
    outer loop
      vertex 1.09883 17.4655 0
      vertex 0 11 15
      vertex 0.690695 10.9783 15
    endloop
  endfacet
  facet normal 0.64886 0.64886 0.397442
    outer loop
      vertex 11.9796 12.757 0
      vertex 8.01865 7.53002 15
      vertex 12.757 11.9796 0
    endloop
  endfacet
  facet normal 0.64886 0.64886 0.397442
    outer loop
      vertex 8.01865 7.53002 15
      vertex 11.9796 12.757 0
      vertex 7.53002 8.01865 15
    endloop
  endfacet
  facet normal 0.688323 0.606837 0.397442
    outer loop
      vertex 13.484 11.1549 0
      vertex 8.01865 7.53002 15
      vertex 8.47565 7.01166 15
    endloop
  endfacet
  facet normal 0.688322 0.606838 0.397442
    outer loop
      vertex 12.757 11.9796 0
      vertex 8.01865 7.53002 15
      vertex 13.484 11.1549 0
    endloop
  endfacet
  facet normal 0.758952 0.515783 0.397442
    outer loop
      vertex 14.1578 10.2862 0
      vertex 9.28761 5.89409 15
      vertex 14.7757 9.37697 0
    endloop
  endfacet
  facet normal 0.758952 0.515783 0.397442
    outer loop
      vertex 14.1578 10.2862 0
      vertex 8.89919 6.46564 15
      vertex 9.28761 5.89409 15
    endloop
  endfacet
  facet normal 0.416594 0.817612 0.397442
    outer loop
      vertex 7.45114 15.8345 0
      vertex 4.68357 9.9531 15
      vertex 8.43069 15.3354 0
    endloop
  endfacet
  facet normal 0.364434 0.842157 0.397442
    outer loop
      vertex 7.45114 15.8345 0
      vertex 4.04937 10.2275 15
      vertex 4.68357 9.9531 15
    endloop
  endfacet
  facet normal 0.917174 0.0288242 0.397442
    outer loop
      vertex 17.4655 1.09883 0
      vertex 10.9783 0.690695 15
      vertex 11 0 15
    endloop
  endfacet
  facet normal 0.895528 0.200175 0.397442
    outer loop
      vertex 16.9502 4.35207 0
      vertex 10.6544 2.73559 15
      vertex 10.8052 2.06119 15
    endloop
  endfacet
  facet normal 0.0288236 -0.917174 0.397442
    outer loop
      vertex 0 -11 15
      vertex 0 -17.5 0
      vertex 1.09883 -17.4655 0
    endloop
  endfacet
  facet normal -0.515783 -0.758952 0.397442
    outer loop
      vertex -6.46564 -8.89919 15
      vertex -10.2862 -14.1578 0
      vertex -5.89409 -9.28761 15
    endloop
  endfacet
  facet normal -0.310835 -0.863378 0.397442
    outer loop
      vertex -4.04937 -10.2275 15
      vertex -5.4078 -16.6435 0
      vertex -3.39919 -10.4616 15
    endloop
  endfacet
  facet normal -0.416595 -0.817611 0.397442
    outer loop
      vertex -5.29929 -9.63937 15
      vertex -8.43069 -15.3354 0
      vertex -4.68357 -9.9531 15
    endloop
  endfacet
  facet normal -0.416594 -0.817612 0.397442
    outer loop
      vertex -4.68357 -9.9531 15
      vertex -8.43069 -15.3354 0
      vertex -7.45114 -15.8345 0
    endloop
  endfacet
  facet normal -0.0863563 -0.913555 0.397442
    outer loop
      vertex -1.37866 -10.9133 15
      vertex -2.19333 -17.362 0
      vertex -1.09883 -17.4655 0
    endloop
  endfacet
  facet normal -0.14355 -0.90633 0.397442
    outer loop
      vertex -2.06119 -10.8052 15
      vertex -3.27917 -17.19 0
      vertex -2.19333 -17.362 0
    endloop
  endfacet
  facet normal 0.143548 -0.90633 0.397442
    outer loop
      vertex 2.06119 -10.8052 15
      vertex 1.37866 -10.9133 15
      vertex 2.19333 -17.362 0
    endloop
  endfacet
  facet normal 0.14355 -0.90633 0.397442
    outer loop
      vertex 3.27917 -17.19 0
      vertex 2.06119 -10.8052 15
      vertex 2.19333 -17.362 0
    endloop
  endfacet
  facet normal 0.200175 -0.895528 0.397442
    outer loop
      vertex 2.73559 -10.6544 15
      vertex 2.06119 -10.8052 15
      vertex 4.35207 -16.9502 0
    endloop
  endfacet
  facet normal 0.200173 -0.895528 0.397442
    outer loop
      vertex 4.35207 -16.9502 0
      vertex 2.06119 -10.8052 15
      vertex 3.27917 -17.19 0
    endloop
  endfacet
  facet normal 0.256009 -0.881192 0.397442
    outer loop
      vertex 5.4078 -16.6435 0
      vertex 3.39919 -10.4616 15
      vertex 4.35207 -16.9502 0
    endloop
  endfacet
  facet normal 0.310835 -0.863378 0.397442
    outer loop
      vertex 4.04937 -10.2275 15
      vertex 3.39919 -10.4616 15
      vertex 5.4078 -16.6435 0
    endloop
  endfacet
  facet normal 0.688323 -0.606837 0.397442
    outer loop
      vertex 8.47565 -7.01166 15
      vertex 8.01865 -7.53002 15
      vertex 13.484 -11.1549 0
    endloop
  endfacet
  facet normal 0.606837 -0.688323 0.397442
    outer loop
      vertex 7.53002 -8.01865 15
      vertex 7.01166 -8.47565 15
      vertex 11.1549 -13.484 0
    endloop
  endfacet
  facet normal 0.56242 -0.725068 0.397442
    outer loop
      vertex 11.1549 -13.484 0
      vertex 7.01166 -8.47565 15
      vertex 10.2862 -14.1578 0
    endloop
  endfacet
  facet normal 0.515783 -0.758952 0.397442
    outer loop
      vertex 6.46564 -8.89919 15
      vertex 5.89409 -9.28761 15
      vertex 10.2862 -14.1578 0
    endloop
  endfacet
  facet normal 0.56242 -0.725068 0.397442
    outer loop
      vertex 7.01166 -8.47565 15
      vertex 6.46564 -8.89919 15
      vertex 10.2862 -14.1578 0
    endloop
  endfacet
  facet normal 0.817612 -0.416594 0.397442
    outer loop
      vertex 15.8345 -7.45114 0
      vertex 9.9531 -4.68357 15
      vertex 15.3354 -8.43069 0
    endloop
  endfacet
  facet normal 0.78984 -0.46711 0.397442
    outer loop
      vertex 15.3354 -8.43069 0
      vertex 9.28761 -5.89409 15
      vertex 14.7757 -9.37697 0
    endloop
  endfacet
  facet normal 0.758952 -0.515783 0.397442
    outer loop
      vertex 14.7757 -9.37697 0
      vertex 9.28761 -5.89409 15
      vertex 14.1578 -10.2862 0
    endloop
  endfacet
  facet normal 0.863377 -0.310836 0.397442
    outer loop
      vertex 16.6435 -5.4078 0
      vertex 10.2275 -4.04937 15
      vertex 16.2711 -6.44218 0
    endloop
  endfacet
  facet normal 0.842157 -0.364433 0.397442
    outer loop
      vertex 16.2711 -6.44218 0
      vertex 10.2275 -4.04937 15
      vertex 15.8345 -7.45114 0
    endloop
  endfacet
  facet normal 0.863378 -0.310835 0.397442
    outer loop
      vertex 10.4616 -3.39919 15
      vertex 10.2275 -4.04937 15
      vertex 16.6435 -5.4078 0
    endloop
  endfacet
  facet normal 0.881192 -0.256009 0.397442
    outer loop
      vertex 16.9502 -4.35207 0
      vertex 10.4616 -3.39919 15
      vertex 16.6435 -5.4078 0
    endloop
  endfacet
  facet normal 0.90633 -0.14355 0.397442
    outer loop
      vertex 17.362 -2.19333 0
      vertex 10.8052 -2.06119 15
      vertex 17.19 -3.27917 0
    endloop
  endfacet
  facet normal 0.895528 -0.200173 0.397442
    outer loop
      vertex 17.19 -3.27917 0
      vertex 10.8052 -2.06119 15
      vertex 16.9502 -4.35207 0
    endloop
  endfacet
  facet normal 0.913555 -0.0863563 0.397442
    outer loop
      vertex 17.4655 -1.09883 0
      vertex 10.9133 -1.37866 15
      vertex 17.362 -2.19333 0
    endloop
  endfacet
  facet normal -0.46711 0.78984 0.397442
    outer loop
      vertex -5.29929 9.63937 15
      vertex -8.43069 15.3354 0
      vertex -5.89409 9.28761 15
    endloop
  endfacet
  facet normal -0.515783 0.758952 0.397442
    outer loop
      vertex -5.89409 9.28761 15
      vertex -10.2862 14.1578 0
      vertex -6.46564 8.89919 15
    endloop
  endfacet
  facet normal -0.817612 -0.416594 0.397442
    outer loop
      vertex -9.9531 -4.68357 15
      vertex -15.8345 -7.45114 0
      vertex -15.3354 -8.43069 0
    endloop
  endfacet
  facet normal -0.842157 -0.364434 0.397442
    outer loop
      vertex -10.2275 -4.04937 15
      vertex -15.8345 -7.45114 0
      vertex -9.9531 -4.68357 15
    endloop
  endfacet
  facet normal -0.817611 -0.416595 0.397442
    outer loop
      vertex -9.9531 -4.68357 15
      vertex -15.3354 -8.43069 0
      vertex -9.63937 -5.29929 15
    endloop
  endfacet
  facet normal -0.78984 -0.46711 0.397442
    outer loop
      vertex -9.63937 -5.29929 15
      vertex -15.3354 -8.43069 0
      vertex -9.28761 -5.89409 15
    endloop
  endfacet
  facet normal -0.688322 -0.606838 0.397442
    outer loop
      vertex -8.01865 -7.53002 15
      vertex -13.484 -11.1549 0
      vertex -12.757 -11.9796 0
    endloop
  endfacet
  facet normal -0.725068 -0.56242 0.397442
    outer loop
      vertex -8.89919 -6.46564 15
      vertex -14.1578 -10.2862 0
      vertex -8.47565 -7.01166 15
    endloop
  endfacet
  facet normal -0.758952 -0.515783 0.397442
    outer loop
      vertex -9.28761 -5.89409 15
      vertex -14.7757 -9.37697 0
      vertex -14.1578 -10.2862 0
    endloop
  endfacet
  facet normal -0.863378 -0.310835 0.397442
    outer loop
      vertex -10.4616 -3.39919 15
      vertex -16.6435 -5.4078 0
      vertex -10.2275 -4.04937 15
    endloop
  endfacet
  facet normal -0.881192 -0.256009 0.397442
    outer loop
      vertex -10.4616 -3.39919 15
      vertex -16.9502 -4.35207 0
      vertex -16.6435 -5.4078 0
    endloop
  endfacet
  facet normal -0.895528 -0.200175 0.397442
    outer loop
      vertex -10.8052 -2.06119 15
      vertex -16.9502 -4.35207 0
      vertex -10.6544 -2.73559 15
    endloop
  endfacet
  facet normal -0.917174 -0.0288242 0.397442
    outer loop
      vertex -11 0 15
      vertex -17.4655 -1.09883 0
      vertex -10.9783 -0.690695 15
    endloop
  endfacet
  facet normal -0.917174 -0.0288236 0.397442
    outer loop
      vertex -11 0 15
      vertex -17.5 0 0
      vertex -17.4655 -1.09883 0
    endloop
  endfacet
  facet normal -0.913555 0.0863559 0.397442
    outer loop
      vertex -10.9133 1.37866 15
      vertex -17.4655 1.09883 0
      vertex -10.9783 0.690695 15
    endloop
  endfacet
  facet normal -0.917174 0.0288242 0.397442
    outer loop
      vertex -10.9783 0.690695 15
      vertex -17.4655 1.09883 0
      vertex -11 0 15
    endloop
  endfacet
  facet normal -0.895528 0.200175 0.397442
    outer loop
      vertex -10.6544 2.73559 15
      vertex -16.9502 4.35207 0
      vertex -10.8052 2.06119 15
    endloop
  endfacet
  facet normal -0.842157 0.364434 0.397442
    outer loop
      vertex -9.9531 4.68357 15
      vertex -15.8345 7.45114 0
      vertex -10.2275 4.04937 15
    endloop
  endfacet
  facet normal -0.606837 -0.688323 0.397442
    outer loop
      vertex -7.53002 -8.01865 15
      vertex -11.1549 -13.484 0
      vertex -7.01166 -8.47565 15
    endloop
  endfacet
  facet normal -0.25601 0.881192 0.397442
    outer loop
      vertex -2.73559 10.6544 15
      vertex -4.35207 16.9502 0
      vertex -3.39919 10.4616 15
    endloop
  endfacet
  facet normal 0.817611 0.416595 0.397442
    outer loop
      vertex 15.3354 8.43069 0
      vertex 9.63937 5.29929 15
      vertex 9.9531 4.68357 15
    endloop
  endfacet
  facet normal 0.416595 0.817611 0.397442
    outer loop
      vertex 8.43069 15.3354 0
      vertex 4.68357 9.9531 15
      vertex 5.29929 9.63937 15
    endloop
  endfacet
  facet normal 0.0288242 -0.917174 0.397442
    outer loop
      vertex 0.690695 -10.9783 15
      vertex 0 -11 15
      vertex 1.09883 -17.4655 0
    endloop
  endfacet
  facet normal 0.0863559 -0.913555 0.397442
    outer loop
      vertex 1.37866 -10.9133 15
      vertex 0.690695 -10.9783 15
      vertex 1.09883 -17.4655 0
    endloop
  endfacet
  facet normal -0.46711 -0.78984 0.397442
    outer loop
      vertex -5.89409 -9.28761 15
      vertex -9.37697 -14.7757 0
      vertex -8.43069 -15.3354 0
    endloop
  endfacet
  facet normal -0.515783 -0.758952 0.397442
    outer loop
      vertex -5.89409 -9.28761 15
      vertex -10.2862 -14.1578 0
      vertex -9.37697 -14.7757 0
    endloop
  endfacet
  facet normal -0.56242 -0.725068 0.397442
    outer loop
      vertex -7.01166 -8.47565 15
      vertex -10.2862 -14.1578 0
      vertex -6.46564 -8.89919 15
    endloop
  endfacet
  facet normal -0.256009 -0.881192 0.397442
    outer loop
      vertex -3.39919 -10.4616 15
      vertex -5.4078 -16.6435 0
      vertex -4.35207 -16.9502 0
    endloop
  endfacet
  facet normal -0.310836 -0.863377 0.397442
    outer loop
      vertex -4.04937 -10.2275 15
      vertex -6.44218 -16.2711 0
      vertex -5.4078 -16.6435 0
    endloop
  endfacet
  facet normal -0.364433 -0.842157 0.397442
    outer loop
      vertex -4.04937 -10.2275 15
      vertex -7.45114 -15.8345 0
      vertex -6.44218 -16.2711 0
    endloop
  endfacet
  facet normal -0.0863559 -0.913555 0.397442
    outer loop
      vertex -0.690695 -10.9783 15
      vertex -1.37866 -10.9133 15
      vertex -1.09883 -17.4655 0
    endloop
  endfacet
  facet normal -0.0288242 -0.917174 0.397442
    outer loop
      vertex -0.690695 -10.9783 15
      vertex -1.09883 -17.4655 0
      vertex 0 -11 15
    endloop
  endfacet
  facet normal 0.725068 -0.56242 0.397442
    outer loop
      vertex 14.1578 -10.2862 0
      vertex 8.47565 -7.01166 15
      vertex 13.484 -11.1549 0
    endloop
  endfacet
  facet normal 0.725068 -0.56242 0.397442
    outer loop
      vertex 8.89919 -6.46564 15
      vertex 8.47565 -7.01166 15
      vertex 14.1578 -10.2862 0
    endloop
  endfacet
  facet normal 0.688322 -0.606838 0.397442
    outer loop
      vertex 13.484 -11.1549 0
      vertex 8.01865 -7.53002 15
      vertex 12.757 -11.9796 0
    endloop
  endfacet
  facet normal 0.416594 -0.817612 0.397442
    outer loop
      vertex 8.43069 -15.3354 0
      vertex 4.68357 -9.9531 15
      vertex 7.45114 -15.8345 0
    endloop
  endfacet
  facet normal 0.817611 -0.416595 0.397442
    outer loop
      vertex 9.9531 -4.68357 15
      vertex 9.63937 -5.29929 15
      vertex 15.3354 -8.43069 0
    endloop
  endfacet
  facet normal 0.881192 -0.25601 0.397442
    outer loop
      vertex 10.6544 -2.73559 15
      vertex 10.4616 -3.39919 15
      vertex 16.9502 -4.35207 0
    endloop
  endfacet
  facet normal 0.913555 -0.0863559 0.397442
    outer loop
      vertex 10.9783 -0.690695 15
      vertex 10.9133 -1.37866 15
      vertex 17.4655 -1.09883 0
    endloop
  endfacet
  facet normal 0.917174 -0.0288242 0.397442
    outer loop
      vertex 11 0 15
      vertex 10.9783 -0.690695 15
      vertex 17.4655 -1.09883 0
    endloop
  endfacet
  facet normal -0.881192 -0.25601 0.397442
    outer loop
      vertex -10.6544 -2.73559 15
      vertex -16.9502 -4.35207 0
      vertex -10.4616 -3.39919 15
    endloop
  endfacet
  facet normal -0.913555 -0.0863559 0.397442
    outer loop
      vertex -10.9783 -0.690695 15
      vertex -17.4655 -1.09883 0
      vertex -10.9133 -1.37866 15
    endloop
  endfacet
  facet normal -0.90633 0.143548 0.397442
    outer loop
      vertex -10.8052 2.06119 15
      vertex -17.362 2.19333 0
      vertex -10.9133 1.37866 15
    endloop
  endfacet
  facet normal -0.25601 -0.881192 0.397442
    outer loop
      vertex -3.39919 -10.4616 15
      vertex -4.35207 -16.9502 0
      vertex -2.73559 -10.6544 15
    endloop
  endfacet
  facet normal -0.200175 -0.895528 0.397442
    outer loop
      vertex -2.73559 -10.6544 15
      vertex -4.35207 -16.9502 0
      vertex -2.06119 -10.8052 15
    endloop
  endfacet
  facet normal 0.416595 -0.817611 0.397442
    outer loop
      vertex 5.29929 -9.63937 15
      vertex 4.68357 -9.9531 15
      vertex 8.43069 -15.3354 0
    endloop
  endfacet
  facet normal 0.46711 -0.78984 0.397442
    outer loop
      vertex 5.89409 -9.28761 15
      vertex 5.29929 -9.63937 15
      vertex 8.43069 -15.3354 0
    endloop
  endfacet
  facet normal 0.78984 -0.46711 0.397442
    outer loop
      vertex 9.63937 -5.29929 15
      vertex 9.28761 -5.89409 15
      vertex 15.3354 -8.43069 0
    endloop
  endfacet
  facet normal 0.397148 0.917755 -0
    outer loop
      vertex -4.04937 -10.2275 2
      vertex -4.68357 -9.9531 15
      vertex -4.04937 -10.2275 15
    endloop
  endfacet
  facet normal 0.397148 0.917755 0
    outer loop
      vertex -4.68357 -9.9531 15
      vertex -4.04937 -10.2275 2
      vertex -4.68357 -9.9531 2
    endloop
  endfacet
  facet normal 0.338738 -0.940881 0
    outer loop
      vertex -4.04937 10.2275 2
      vertex -3.39919 10.4616 15
      vertex -4.04937 10.2275 15
    endloop
  endfacet
  facet normal 0.338738 -0.940881 0
    outer loop
      vertex -3.39919 10.4616 15
      vertex -4.04937 10.2275 2
      vertex -3.39919 10.4616 2
    endloop
  endfacet
  facet normal 0.917755 0.397148 0
    outer loop
      vertex -9.9531 -4.68357 15
      vertex -10.2275 -4.04937 2
      vertex -10.2275 -4.04937 15
    endloop
  endfacet
  facet normal 0.917755 0.397148 0
    outer loop
      vertex -10.2275 -4.04937 2
      vertex -9.9531 -4.68357 15
      vertex -9.9531 -4.68357 2
    endloop
  endfacet
  facet normal -0.975917 -0.218144 0
    outer loop
      vertex 10.8052 2.06119 2
      vertex 10.6544 2.73559 15
      vertex 10.6544 2.73559 2
    endloop
  endfacet
  facet normal -0.975917 -0.218144 0
    outer loop
      vertex 10.6544 2.73559 15
      vertex 10.8052 2.06119 2
      vertex 10.8052 2.06119 15
    endloop
  endfacet
  facet normal -0.960294 -0.278991 0
    outer loop
      vertex 10.6544 2.73559 2
      vertex 10.4616 3.39919 15
      vertex 10.4616 3.39919 2
    endloop
  endfacet
  facet normal -0.960294 -0.278991 0
    outer loop
      vertex 10.4616 3.39919 15
      vertex 10.6544 2.73559 2
      vertex 10.6544 2.73559 15
    endloop
  endfacet
  facet normal -0.790155 -0.612907 0
    outer loop
      vertex 8.89919 6.46564 2
      vertex 8.47565 7.01166 15
      vertex 8.47565 7.01166 2
    endloop
  endfacet
  facet normal -0.790155 -0.612907 0
    outer loop
      vertex 8.47565 7.01166 15
      vertex 8.89919 6.46564 2
      vertex 8.89919 6.46564 15
    endloop
  endfacet
  facet normal -0.509041 -0.860742 0
    outer loop
      vertex 5.29929 9.63937 2
      vertex 5.89409 9.28761 15
      vertex 5.29929 9.63937 15
    endloop
  endfacet
  facet normal -0.509041 -0.860742 -0
    outer loop
      vertex 5.89409 9.28761 15
      vertex 5.29929 9.63937 2
      vertex 5.89409 9.28761 2
    endloop
  endfacet
  facet normal 0.995562 -0.0941079 0
    outer loop
      vertex -10.9783 0.690695 15
      vertex -10.9133 1.37866 2
      vertex -10.9133 1.37866 15
    endloop
  endfacet
  facet normal 0.995562 -0.0941079 0
    outer loop
      vertex -10.9133 1.37866 2
      vertex -10.9783 0.690695 15
      vertex -10.9783 0.690695 2
    endloop
  endfacet
  facet normal 0.562083 -0.827081 0
    outer loop
      vertex -6.46564 8.89919 2
      vertex -5.89409 9.28761 15
      vertex -6.46564 8.89919 15
    endloop
  endfacet
  facet normal 0.562083 -0.827081 0
    outer loop
      vertex -5.89409 9.28761 15
      vertex -6.46564 8.89919 2
      vertex -5.89409 9.28761 2
    endloop
  endfacet
  facet normal -0.917755 0.397148 0
    outer loop
      vertex 9.9531 -4.68357 2
      vertex 10.2275 -4.04937 15
      vertex 10.2275 -4.04937 2
    endloop
  endfacet
  facet normal -0.917755 0.397148 0
    outer loop
      vertex 10.2275 -4.04937 15
      vertex 9.9531 -4.68357 2
      vertex 9.9531 -4.68357 15
    endloop
  endfacet
  facet normal -0.218144 0.975917 0
    outer loop
      vertex 2.73559 -10.6544 2
      vertex 2.06119 -10.8052 15
      vertex 2.73559 -10.6544 15
    endloop
  endfacet
  facet normal -0.218144 0.975917 0
    outer loop
      vertex 2.06119 -10.8052 15
      vertex 2.73559 -10.6544 2
      vertex 2.06119 -10.8052 2
    endloop
  endfacet
  facet normal -0.707107 0.707107 0
    outer loop
      vertex 7.53002 -8.01865 2
      vertex 8.01865 -7.53002 15
      vertex 8.01865 -7.53002 2
    endloop
  endfacet
  facet normal -0.707107 0.707107 0
    outer loop
      vertex 8.01865 -7.53002 15
      vertex 7.53002 -8.01865 2
      vertex 7.53002 -8.01865 15
    endloop
  endfacet
  facet normal 0.612907 0.790155 -0
    outer loop
      vertex -6.46564 -8.89919 2
      vertex -7.01166 -8.47565 15
      vertex -6.46564 -8.89919 15
    endloop
  endfacet
  facet normal 0.612907 0.790155 0
    outer loop
      vertex -7.01166 -8.47565 15
      vertex -6.46564 -8.89919 2
      vertex -7.01166 -8.47565 2
    endloop
  endfacet
  facet normal -0.917755 -0.397148 0
    outer loop
      vertex 10.2275 4.04937 2
      vertex 9.9531 4.68357 15
      vertex 9.9531 4.68357 2
    endloop
  endfacet
  facet normal -0.917755 -0.397148 0
    outer loop
      vertex 9.9531 4.68357 15
      vertex 10.2275 4.04937 2
      vertex 10.2275 4.04937 15
    endloop
  endfacet
  facet normal -0.860742 -0.509041 0
    outer loop
      vertex 9.63937 5.29929 2
      vertex 9.28761 5.89409 15
      vertex 9.28761 5.89409 2
    endloop
  endfacet
  facet normal -0.860742 -0.509041 0
    outer loop
      vertex 9.28761 5.89409 15
      vertex 9.63937 5.29929 2
      vertex 9.63937 5.29929 15
    endloop
  endfacet
  facet normal -0.827081 -0.562083 0
    outer loop
      vertex 9.28761 5.89409 2
      vertex 8.89919 6.46564 15
      vertex 8.89919 6.46564 2
    endloop
  endfacet
  facet normal -0.827081 -0.562083 0
    outer loop
      vertex 8.89919 6.46564 15
      vertex 9.28761 5.89409 2
      vertex 9.28761 5.89409 15
    endloop
  endfacet
  facet normal -0.707107 -0.707107 0
    outer loop
      vertex 8.01865 7.53002 2
      vertex 7.53002 8.01865 15
      vertex 7.53002 8.01865 2
    endloop
  endfacet
  facet normal -0.707107 -0.707107 0
    outer loop
      vertex 7.53002 8.01865 15
      vertex 8.01865 7.53002 2
      vertex 8.01865 7.53002 15
    endloop
  endfacet
  facet normal -0.218144 -0.975917 0
    outer loop
      vertex 2.06119 10.8052 2
      vertex 2.73559 10.6544 15
      vertex 2.06119 10.8052 15
    endloop
  endfacet
  facet normal -0.218144 -0.975917 -0
    outer loop
      vertex 2.73559 10.6544 15
      vertex 2.06119 10.8052 2
      vertex 2.73559 10.6544 2
    endloop
  endfacet
  facet normal -0.612907 -0.790155 0
    outer loop
      vertex 6.46564 8.89919 2
      vertex 7.01166 8.47565 15
      vertex 6.46564 8.89919 15
    endloop
  endfacet
  facet normal -0.612907 -0.790155 -0
    outer loop
      vertex 7.01166 8.47565 15
      vertex 6.46564 8.89919 2
      vertex 7.01166 8.47565 2
    endloop
  endfacet
  facet normal -0.397148 -0.917755 0
    outer loop
      vertex 4.04937 10.2275 2
      vertex 4.68357 9.9531 15
      vertex 4.04937 10.2275 15
    endloop
  endfacet
  facet normal -0.397148 -0.917755 -0
    outer loop
      vertex 4.68357 9.9531 15
      vertex 4.04937 10.2275 2
      vertex 4.68357 9.9531 2
    endloop
  endfacet
  facet normal -0.338738 -0.940881 0
    outer loop
      vertex 3.39919 10.4616 2
      vertex 4.04937 10.2275 15
      vertex 3.39919 10.4616 15
    endloop
  endfacet
  facet normal -0.338738 -0.940881 -0
    outer loop
      vertex 4.04937 10.2275 15
      vertex 3.39919 10.4616 2
      vertex 4.04937 10.2275 2
    endloop
  endfacet
  facet normal 0.975917 -0.218144 0
    outer loop
      vertex -10.8052 2.06119 15
      vertex -10.6544 2.73559 2
      vertex -10.6544 2.73559 15
    endloop
  endfacet
  facet normal 0.975917 -0.218144 0
    outer loop
      vertex -10.6544 2.73559 2
      vertex -10.8052 2.06119 15
      vertex -10.8052 2.06119 2
    endloop
  endfacet
  facet normal 0.707107 -0.707107 0
    outer loop
      vertex -8.01865 7.53002 15
      vertex -7.53002 8.01865 2
      vertex -7.53002 8.01865 15
    endloop
  endfacet
  facet normal 0.707107 -0.707107 0
    outer loop
      vertex -7.53002 8.01865 2
      vertex -8.01865 7.53002 15
      vertex -8.01865 7.53002 2
    endloop
  endfacet
  facet normal 0.0941079 -0.995562 0
    outer loop
      vertex -1.37866 10.9133 2
      vertex -0.690695 10.9783 15
      vertex -1.37866 10.9133 15
    endloop
  endfacet
  facet normal 0.0941079 -0.995562 0
    outer loop
      vertex -0.690695 10.9783 15
      vertex -1.37866 10.9133 2
      vertex -0.690695 10.9783 2
    endloop
  endfacet
  facet normal 0.278991 -0.960294 0
    outer loop
      vertex -3.39919 10.4616 2
      vertex -2.73559 10.6544 15
      vertex -3.39919 10.4616 15
    endloop
  endfacet
  facet normal 0.278991 -0.960294 0
    outer loop
      vertex -2.73559 10.6544 15
      vertex -3.39919 10.4616 2
      vertex -2.73559 10.6544 2
    endloop
  endfacet
  facet normal 0.156434 -0.987688 0
    outer loop
      vertex -2.06119 10.8052 2
      vertex -1.37866 10.9133 15
      vertex -2.06119 10.8052 15
    endloop
  endfacet
  facet normal 0.156434 -0.987688 0
    outer loop
      vertex -1.37866 10.9133 15
      vertex -2.06119 10.8052 2
      vertex -1.37866 10.9133 2
    endloop
  endfacet
  facet normal 0.397148 -0.917755 0
    outer loop
      vertex -4.68357 9.9531 2
      vertex -4.04937 10.2275 15
      vertex -4.68357 9.9531 15
    endloop
  endfacet
  facet normal 0.397148 -0.917755 0
    outer loop
      vertex -4.04937 10.2275 15
      vertex -4.68357 9.9531 2
      vertex -4.04937 10.2275 2
    endloop
  endfacet
  facet normal 0.661311 -0.750112 0
    outer loop
      vertex -7.53002 8.01865 2
      vertex -7.01166 8.47565 15
      vertex -7.53002 8.01865 15
    endloop
  endfacet
  facet normal 0.661311 -0.750112 0
    outer loop
      vertex -7.01166 8.47565 15
      vertex -7.53002 8.01865 2
      vertex -7.01166 8.47565 2
    endloop
  endfacet
  facet normal -0.999507 0.0314117 0
    outer loop
      vertex 10.9783 -0.690695 2
      vertex 11 0 15
      vertex 11 0 2
    endloop
  endfacet
  facet normal -0.999507 0.0314117 0
    outer loop
      vertex 11 0 15
      vertex 10.9783 -0.690695 2
      vertex 10.9783 -0.690695 15
    endloop
  endfacet
  facet normal -0.940881 0.338738 0
    outer loop
      vertex 10.2275 -4.04937 2
      vertex 10.4616 -3.39919 15
      vertex 10.4616 -3.39919 2
    endloop
  endfacet
  facet normal -0.940881 0.338738 0
    outer loop
      vertex 10.4616 -3.39919 15
      vertex 10.2275 -4.04937 2
      vertex 10.2275 -4.04937 15
    endloop
  endfacet
  facet normal -0.156434 0.987688 0
    outer loop
      vertex 2.06119 -10.8052 2
      vertex 1.37866 -10.9133 15
      vertex 2.06119 -10.8052 15
    endloop
  endfacet
  facet normal -0.156434 0.987688 0
    outer loop
      vertex 1.37866 -10.9133 15
      vertex 2.06119 -10.8052 2
      vertex 1.37866 -10.9133 2
    endloop
  endfacet
  facet normal -0.509041 0.860742 0
    outer loop
      vertex 5.89409 -9.28761 2
      vertex 5.29929 -9.63937 15
      vertex 5.89409 -9.28761 15
    endloop
  endfacet
  facet normal -0.509041 0.860742 0
    outer loop
      vertex 5.29929 -9.63937 15
      vertex 5.89409 -9.28761 2
      vertex 5.29929 -9.63937 2
    endloop
  endfacet
  facet normal -0.750112 0.661311 0
    outer loop
      vertex 8.01865 -7.53002 2
      vertex 8.47565 -7.01166 15
      vertex 8.47565 -7.01166 2
    endloop
  endfacet
  facet normal -0.750112 0.661311 0
    outer loop
      vertex 8.47565 -7.01166 15
      vertex 8.01865 -7.53002 2
      vertex 8.01865 -7.53002 15
    endloop
  endfacet
  facet normal 0.156434 0.987688 -0
    outer loop
      vertex -1.37866 -10.9133 2
      vertex -2.06119 -10.8052 15
      vertex -1.37866 -10.9133 15
    endloop
  endfacet
  facet normal 0.156434 0.987688 0
    outer loop
      vertex -2.06119 -10.8052 15
      vertex -1.37866 -10.9133 2
      vertex -2.06119 -10.8052 2
    endloop
  endfacet
  facet normal 0.0941079 0.995562 -0
    outer loop
      vertex -0.690695 -10.9783 2
      vertex -1.37866 -10.9133 15
      vertex -0.690695 -10.9783 15
    endloop
  endfacet
  facet normal 0.0941079 0.995562 0
    outer loop
      vertex -1.37866 -10.9133 15
      vertex -0.690695 -10.9783 2
      vertex -1.37866 -10.9133 2
    endloop
  endfacet
  facet normal 0.562083 0.827081 -0
    outer loop
      vertex -5.89409 -9.28761 2
      vertex -6.46564 -8.89919 15
      vertex -5.89409 -9.28761 15
    endloop
  endfacet
  facet normal 0.562083 0.827081 0
    outer loop
      vertex -6.46564 -8.89919 15
      vertex -5.89409 -9.28761 2
      vertex -6.46564 -8.89919 2
    endloop
  endfacet
  facet normal 0.707107 0.707107 0
    outer loop
      vertex -7.53002 -8.01865 15
      vertex -8.01865 -7.53002 2
      vertex -8.01865 -7.53002 15
    endloop
  endfacet
  facet normal 0.707107 0.707107 0
    outer loop
      vertex -8.01865 -7.53002 2
      vertex -7.53002 -8.01865 15
      vertex -7.53002 -8.01865 2
    endloop
  endfacet
  facet normal -0.995562 -0.0941079 0
    outer loop
      vertex 10.9783 0.690695 2
      vertex 10.9133 1.37866 15
      vertex 10.9133 1.37866 2
    endloop
  endfacet
  facet normal -0.995562 -0.0941079 0
    outer loop
      vertex 10.9133 1.37866 15
      vertex 10.9783 0.690695 2
      vertex 10.9783 0.690695 15
    endloop
  endfacet
  facet normal -0.987688 -0.156434 0
    outer loop
      vertex 10.9133 1.37866 2
      vertex 10.8052 2.06119 15
      vertex 10.8052 2.06119 2
    endloop
  endfacet
  facet normal -0.987688 -0.156434 0
    outer loop
      vertex 10.8052 2.06119 15
      vertex 10.9133 1.37866 2
      vertex 10.9133 1.37866 15
    endloop
  endfacet
  facet normal -0.940881 -0.338738 0
    outer loop
      vertex 10.4616 3.39919 2
      vertex 10.2275 4.04937 15
      vertex 10.2275 4.04937 2
    endloop
  endfacet
  facet normal -0.940881 -0.338738 0
    outer loop
      vertex 10.2275 4.04937 15
      vertex 10.4616 3.39919 2
      vertex 10.4616 3.39919 15
    endloop
  endfacet
  facet normal -0.891006 -0.453991 0
    outer loop
      vertex 9.9531 4.68357 2
      vertex 9.63937 5.29929 15
      vertex 9.63937 5.29929 2
    endloop
  endfacet
  facet normal -0.891006 -0.453991 0
    outer loop
      vertex 9.63937 5.29929 15
      vertex 9.9531 4.68357 2
      vertex 9.9531 4.68357 15
    endloop
  endfacet
  facet normal -0.750112 -0.661311 0
    outer loop
      vertex 8.47565 7.01166 2
      vertex 8.01865 7.53002 15
      vertex 8.01865 7.53002 2
    endloop
  endfacet
  facet normal -0.750112 -0.661311 0
    outer loop
      vertex 8.01865 7.53002 15
      vertex 8.47565 7.01166 2
      vertex 8.47565 7.01166 15
    endloop
  endfacet
  facet normal -0.0314117 -0.999507 0
    outer loop
      vertex 0 11 2
      vertex 0.690695 10.9783 15
      vertex 0 11 15
    endloop
  endfacet
  facet normal -0.0314117 -0.999507 -0
    outer loop
      vertex 0.690695 10.9783 15
      vertex 0 11 2
      vertex 0.690695 10.9783 2
    endloop
  endfacet
  facet normal -0.562083 -0.827081 0
    outer loop
      vertex 5.89409 9.28761 2
      vertex 6.46564 8.89919 15
      vertex 5.89409 9.28761 15
    endloop
  endfacet
  facet normal -0.562083 -0.827081 -0
    outer loop
      vertex 6.46564 8.89919 15
      vertex 5.89409 9.28761 2
      vertex 6.46564 8.89919 2
    endloop
  endfacet
  facet normal -0.661311 -0.750112 0
    outer loop
      vertex 7.01166 8.47565 2
      vertex 7.53002 8.01865 15
      vertex 7.01166 8.47565 15
    endloop
  endfacet
  facet normal -0.661311 -0.750112 -0
    outer loop
      vertex 7.53002 8.01865 15
      vertex 7.01166 8.47565 2
      vertex 7.53002 8.01865 2
    endloop
  endfacet
  facet normal -0.453991 -0.891006 0
    outer loop
      vertex 4.68357 9.9531 2
      vertex 5.29929 9.63937 15
      vertex 4.68357 9.9531 15
    endloop
  endfacet
  facet normal -0.453991 -0.891006 -0
    outer loop
      vertex 5.29929 9.63937 15
      vertex 4.68357 9.9531 2
      vertex 5.29929 9.63937 2
    endloop
  endfacet
  facet normal -0.156434 -0.987688 0
    outer loop
      vertex 1.37866 10.9133 2
      vertex 2.06119 10.8052 15
      vertex 1.37866 10.9133 15
    endloop
  endfacet
  facet normal -0.156434 -0.987688 -0
    outer loop
      vertex 2.06119 10.8052 15
      vertex 1.37866 10.9133 2
      vertex 2.06119 10.8052 2
    endloop
  endfacet
  facet normal -0.278991 -0.960294 0
    outer loop
      vertex 2.73559 10.6544 2
      vertex 3.39919 10.4616 15
      vertex 2.73559 10.6544 15
    endloop
  endfacet
  facet normal -0.278991 -0.960294 -0
    outer loop
      vertex 3.39919 10.4616 15
      vertex 2.73559 10.6544 2
      vertex 3.39919 10.4616 2
    endloop
  endfacet
  facet normal 0.999507 -0.0314117 0
    outer loop
      vertex -11 0 15
      vertex -10.9783 0.690695 2
      vertex -10.9783 0.690695 15
    endloop
  endfacet
  facet normal 0.999507 -0.0314117 0
    outer loop
      vertex -10.9783 0.690695 2
      vertex -11 0 15
      vertex -11 0 2
    endloop
  endfacet
  facet normal 0.917755 -0.397148 0
    outer loop
      vertex -10.2275 4.04937 15
      vertex -9.9531 4.68357 2
      vertex -9.9531 4.68357 15
    endloop
  endfacet
  facet normal 0.917755 -0.397148 0
    outer loop
      vertex -9.9531 4.68357 2
      vertex -10.2275 4.04937 15
      vertex -10.2275 4.04937 2
    endloop
  endfacet
  facet normal 0.987688 -0.156434 0
    outer loop
      vertex -10.9133 1.37866 15
      vertex -10.8052 2.06119 2
      vertex -10.8052 2.06119 15
    endloop
  endfacet
  facet normal 0.987688 -0.156434 0
    outer loop
      vertex -10.8052 2.06119 2
      vertex -10.9133 1.37866 15
      vertex -10.9133 1.37866 2
    endloop
  endfacet
  facet normal 0.940881 -0.338738 0
    outer loop
      vertex -10.4616 3.39919 15
      vertex -10.2275 4.04937 2
      vertex -10.2275 4.04937 15
    endloop
  endfacet
  facet normal 0.940881 -0.338738 0
    outer loop
      vertex -10.2275 4.04937 2
      vertex -10.4616 3.39919 15
      vertex -10.4616 3.39919 2
    endloop
  endfacet
  facet normal 0.960294 -0.278991 0
    outer loop
      vertex -10.6544 2.73559 15
      vertex -10.4616 3.39919 2
      vertex -10.4616 3.39919 15
    endloop
  endfacet
  facet normal 0.960294 -0.278991 0
    outer loop
      vertex -10.4616 3.39919 2
      vertex -10.6544 2.73559 15
      vertex -10.6544 2.73559 2
    endloop
  endfacet
  facet normal 0.891006 -0.453991 0
    outer loop
      vertex -9.9531 4.68357 15
      vertex -9.63937 5.29929 2
      vertex -9.63937 5.29929 15
    endloop
  endfacet
  facet normal 0.891006 -0.453991 0
    outer loop
      vertex -9.63937 5.29929 2
      vertex -9.9531 4.68357 15
      vertex -9.9531 4.68357 2
    endloop
  endfacet
  facet normal 0.827081 -0.562083 0
    outer loop
      vertex -9.28761 5.89409 15
      vertex -8.89919 6.46564 2
      vertex -8.89919 6.46564 15
    endloop
  endfacet
  facet normal 0.827081 -0.562083 0
    outer loop
      vertex -8.89919 6.46564 2
      vertex -9.28761 5.89409 15
      vertex -9.28761 5.89409 2
    endloop
  endfacet
  facet normal 0.750112 -0.661311 0
    outer loop
      vertex -8.47565 7.01166 15
      vertex -8.01865 7.53002 2
      vertex -8.01865 7.53002 15
    endloop
  endfacet
  facet normal 0.750112 -0.661311 0
    outer loop
      vertex -8.01865 7.53002 2
      vertex -8.47565 7.01166 15
      vertex -8.47565 7.01166 2
    endloop
  endfacet
  facet normal 0.790155 -0.612907 0
    outer loop
      vertex -8.89919 6.46564 15
      vertex -8.47565 7.01166 2
      vertex -8.47565 7.01166 15
    endloop
  endfacet
  facet normal 0.790155 -0.612907 0
    outer loop
      vertex -8.47565 7.01166 2
      vertex -8.89919 6.46564 15
      vertex -8.89919 6.46564 2
    endloop
  endfacet
  facet normal 0.218144 -0.975917 0
    outer loop
      vertex -2.73559 10.6544 2
      vertex -2.06119 10.8052 15
      vertex -2.73559 10.6544 15
    endloop
  endfacet
  facet normal 0.218144 -0.975917 0
    outer loop
      vertex -2.06119 10.8052 15
      vertex -2.73559 10.6544 2
      vertex -2.06119 10.8052 2
    endloop
  endfacet
  facet normal 0.0314117 -0.999507 0
    outer loop
      vertex -0.690695 10.9783 2
      vertex 0 11 15
      vertex -0.690695 10.9783 15
    endloop
  endfacet
  facet normal 0.0314117 -0.999507 0
    outer loop
      vertex 0 11 15
      vertex -0.690695 10.9783 2
      vertex 0 11 2
    endloop
  endfacet
  facet normal 0.453991 -0.891006 0
    outer loop
      vertex -5.29929 9.63937 2
      vertex -4.68357 9.9531 15
      vertex -5.29929 9.63937 15
    endloop
  endfacet
  facet normal 0.453991 -0.891006 0
    outer loop
      vertex -4.68357 9.9531 15
      vertex -5.29929 9.63937 2
      vertex -4.68357 9.9531 2
    endloop
  endfacet
  facet normal 0.509041 -0.860742 0
    outer loop
      vertex -5.89409 9.28761 2
      vertex -5.29929 9.63937 15
      vertex -5.89409 9.28761 15
    endloop
  endfacet
  facet normal 0.509041 -0.860742 0
    outer loop
      vertex -5.29929 9.63937 15
      vertex -5.89409 9.28761 2
      vertex -5.29929 9.63937 2
    endloop
  endfacet
  facet normal 0.612907 -0.790155 0
    outer loop
      vertex -7.01166 8.47565 2
      vertex -6.46564 8.89919 15
      vertex -7.01166 8.47565 15
    endloop
  endfacet
  facet normal 0.612907 -0.790155 0
    outer loop
      vertex -6.46564 8.89919 15
      vertex -7.01166 8.47565 2
      vertex -6.46564 8.89919 2
    endloop
  endfacet
  facet normal -0.999507 -0.0314117 0
    outer loop
      vertex 11 0 2
      vertex 10.9783 0.690695 15
      vertex 10.9783 0.690695 2
    endloop
  endfacet
  facet normal -0.999507 -0.0314117 0
    outer loop
      vertex 10.9783 0.690695 15
      vertex 11 0 2
      vertex 11 0 15
    endloop
  endfacet
  facet normal -0.0314117 0.999507 0
    outer loop
      vertex 0.690695 -10.9783 2
      vertex 0 -11 15
      vertex 0.690695 -10.9783 15
    endloop
  endfacet
  facet normal -0.0314117 0.999507 0
    outer loop
      vertex 0 -11 15
      vertex 0.690695 -10.9783 2
      vertex 0 -11 2
    endloop
  endfacet
  facet normal -0.960294 0.278991 0
    outer loop
      vertex 10.4616 -3.39919 2
      vertex 10.6544 -2.73559 15
      vertex 10.6544 -2.73559 2
    endloop
  endfacet
  facet normal -0.960294 0.278991 0
    outer loop
      vertex 10.6544 -2.73559 15
      vertex 10.4616 -3.39919 2
      vertex 10.4616 -3.39919 15
    endloop
  endfacet
  facet normal -0.0941079 0.995562 0
    outer loop
      vertex 1.37866 -10.9133 2
      vertex 0.690695 -10.9783 15
      vertex 1.37866 -10.9133 15
    endloop
  endfacet
  facet normal -0.0941079 0.995562 0
    outer loop
      vertex 0.690695 -10.9783 15
      vertex 1.37866 -10.9133 2
      vertex 0.690695 -10.9783 2
    endloop
  endfacet
  facet normal -0.338738 0.940881 0
    outer loop
      vertex 4.04937 -10.2275 2
      vertex 3.39919 -10.4616 15
      vertex 4.04937 -10.2275 15
    endloop
  endfacet
  facet normal -0.338738 0.940881 0
    outer loop
      vertex 3.39919 -10.4616 15
      vertex 4.04937 -10.2275 2
      vertex 3.39919 -10.4616 2
    endloop
  endfacet
  facet normal -0.397148 0.917755 0
    outer loop
      vertex 4.68357 -9.9531 2
      vertex 4.04937 -10.2275 15
      vertex 4.68357 -9.9531 15
    endloop
  endfacet
  facet normal -0.397148 0.917755 0
    outer loop
      vertex 4.04937 -10.2275 15
      vertex 4.68357 -9.9531 2
      vertex 4.04937 -10.2275 2
    endloop
  endfacet
  facet normal -0.612907 0.790155 0
    outer loop
      vertex 7.01166 -8.47565 2
      vertex 6.46564 -8.89919 15
      vertex 7.01166 -8.47565 15
    endloop
  endfacet
  facet normal -0.612907 0.790155 0
    outer loop
      vertex 6.46564 -8.89919 15
      vertex 7.01166 -8.47565 2
      vertex 6.46564 -8.89919 2
    endloop
  endfacet
  facet normal -0.562083 0.827081 0
    outer loop
      vertex 6.46564 -8.89919 2
      vertex 5.89409 -9.28761 15
      vertex 6.46564 -8.89919 15
    endloop
  endfacet
  facet normal -0.562083 0.827081 0
    outer loop
      vertex 5.89409 -9.28761 15
      vertex 6.46564 -8.89919 2
      vertex 5.89409 -9.28761 2
    endloop
  endfacet
  facet normal -0.453991 0.891006 0
    outer loop
      vertex 5.29929 -9.63937 2
      vertex 4.68357 -9.9531 15
      vertex 5.29929 -9.63937 15
    endloop
  endfacet
  facet normal -0.453991 0.891006 0
    outer loop
      vertex 4.68357 -9.9531 15
      vertex 5.29929 -9.63937 2
      vertex 4.68357 -9.9531 2
    endloop
  endfacet
  facet normal -0.860742 0.509041 0
    outer loop
      vertex 9.28761 -5.89409 2
      vertex 9.63937 -5.29929 15
      vertex 9.63937 -5.29929 2
    endloop
  endfacet
  facet normal -0.860742 0.509041 0
    outer loop
      vertex 9.63937 -5.29929 15
      vertex 9.28761 -5.89409 2
      vertex 9.28761 -5.89409 15
    endloop
  endfacet
  facet normal -0.790155 0.612907 0
    outer loop
      vertex 8.47565 -7.01166 2
      vertex 8.89919 -6.46564 15
      vertex 8.89919 -6.46564 2
    endloop
  endfacet
  facet normal -0.790155 0.612907 0
    outer loop
      vertex 8.89919 -6.46564 15
      vertex 8.47565 -7.01166 2
      vertex 8.47565 -7.01166 15
    endloop
  endfacet
  facet normal -0.827081 0.562083 0
    outer loop
      vertex 8.89919 -6.46564 2
      vertex 9.28761 -5.89409 15
      vertex 9.28761 -5.89409 2
    endloop
  endfacet
  facet normal -0.827081 0.562083 0
    outer loop
      vertex 9.28761 -5.89409 15
      vertex 8.89919 -6.46564 2
      vertex 8.89919 -6.46564 15
    endloop
  endfacet
  facet normal 0.0314117 0.999507 -0
    outer loop
      vertex 0 -11 2
      vertex -0.690695 -10.9783 15
      vertex 0 -11 15
    endloop
  endfacet
  facet normal 0.0314117 0.999507 0
    outer loop
      vertex -0.690695 -10.9783 15
      vertex 0 -11 2
      vertex -0.690695 -10.9783 2
    endloop
  endfacet
  facet normal 0.278991 0.960294 -0
    outer loop
      vertex -2.73559 -10.6544 2
      vertex -3.39919 -10.4616 15
      vertex -2.73559 -10.6544 15
    endloop
  endfacet
  facet normal 0.278991 0.960294 0
    outer loop
      vertex -3.39919 -10.4616 15
      vertex -2.73559 -10.6544 2
      vertex -3.39919 -10.4616 2
    endloop
  endfacet
  facet normal 0.661311 0.750112 -0
    outer loop
      vertex -7.01166 -8.47565 2
      vertex -7.53002 -8.01865 15
      vertex -7.01166 -8.47565 15
    endloop
  endfacet
  facet normal 0.661311 0.750112 0
    outer loop
      vertex -7.53002 -8.01865 15
      vertex -7.01166 -8.47565 2
      vertex -7.53002 -8.01865 2
    endloop
  endfacet
  facet normal 0.509041 0.860742 -0
    outer loop
      vertex -5.29929 -9.63937 2
      vertex -5.89409 -9.28761 15
      vertex -5.29929 -9.63937 15
    endloop
  endfacet
  facet normal 0.509041 0.860742 0
    outer loop
      vertex -5.89409 -9.28761 15
      vertex -5.29929 -9.63937 2
      vertex -5.89409 -9.28761 2
    endloop
  endfacet
  facet normal 0.453991 0.891006 -0
    outer loop
      vertex -4.68357 -9.9531 2
      vertex -5.29929 -9.63937 15
      vertex -4.68357 -9.9531 15
    endloop
  endfacet
  facet normal 0.453991 0.891006 0
    outer loop
      vertex -5.29929 -9.63937 15
      vertex -4.68357 -9.9531 2
      vertex -5.29929 -9.63937 2
    endloop
  endfacet
  facet normal 0.999507 0.0314117 0
    outer loop
      vertex -10.9783 -0.690695 15
      vertex -11 0 2
      vertex -11 0 15
    endloop
  endfacet
  facet normal 0.999507 0.0314117 0
    outer loop
      vertex -11 0 2
      vertex -10.9783 -0.690695 15
      vertex -10.9783 -0.690695 2
    endloop
  endfacet
  facet normal 0.987688 0.156434 0
    outer loop
      vertex -10.8052 -2.06119 15
      vertex -10.9133 -1.37866 2
      vertex -10.9133 -1.37866 15
    endloop
  endfacet
  facet normal 0.987688 0.156434 0
    outer loop
      vertex -10.9133 -1.37866 2
      vertex -10.8052 -2.06119 15
      vertex -10.8052 -2.06119 2
    endloop
  endfacet
  facet normal 0 0 1
    outer loop
      vertex 10.9783 0.690695 2
      vertex 10.9783 -0.690695 2
      vertex 11 0 2
    endloop
  endfacet
  facet normal 0 0 1
    outer loop
      vertex 10.9133 1.37866 2
      vertex 10.9783 -0.690695 2
      vertex 10.9783 0.690695 2
    endloop
  endfacet
  facet normal 0 0 1
    outer loop
      vertex 10.9133 1.37866 2
      vertex 10.9133 -1.37866 2
      vertex 10.9783 -0.690695 2
    endloop
  endfacet
  facet normal 0 0 1
    outer loop
      vertex 10.8052 2.06119 2
      vertex 10.9133 -1.37866 2
      vertex 10.9133 1.37866 2
    endloop
  endfacet
  facet normal 0 0 1
    outer loop
      vertex 10.8052 2.06119 2
      vertex 10.8052 -2.06119 2
      vertex 10.9133 -1.37866 2
    endloop
  endfacet
  facet normal 0 0 1
    outer loop
      vertex 10.6544 2.73559 2
      vertex 10.8052 -2.06119 2
      vertex 10.8052 2.06119 2
    endloop
  endfacet
  facet normal 0 0 1
    outer loop
      vertex 10.6544 2.73559 2
      vertex 10.6544 -2.73559 2
      vertex 10.8052 -2.06119 2
    endloop
  endfacet
  facet normal 0 0 1
    outer loop
      vertex 10.4616 3.39919 2
      vertex 10.6544 -2.73559 2
      vertex 10.6544 2.73559 2
    endloop
  endfacet
  facet normal 0 0 1
    outer loop
      vertex 10.4616 3.39919 2
      vertex 10.4616 -3.39919 2
      vertex 10.6544 -2.73559 2
    endloop
  endfacet
  facet normal 0 0 1
    outer loop
      vertex 10.2275 4.04937 2
      vertex 10.4616 -3.39919 2
      vertex 10.4616 3.39919 2
    endloop
  endfacet
  facet normal 0 0 1
    outer loop
      vertex 10.2275 4.04937 2
      vertex 10.2275 -4.04937 2
      vertex 10.4616 -3.39919 2
    endloop
  endfacet
  facet normal 0 0 1
    outer loop
      vertex 9.9531 4.68357 2
      vertex 10.2275 -4.04937 2
      vertex 10.2275 4.04937 2
    endloop
  endfacet
  facet normal 0 0 1
    outer loop
      vertex 9.9531 4.68357 2
      vertex 9.9531 -4.68357 2
      vertex 10.2275 -4.04937 2
    endloop
  endfacet
  facet normal 0 0 1
    outer loop
      vertex 9.63937 5.29929 2
      vertex 9.9531 -4.68357 2
      vertex 9.9531 4.68357 2
    endloop
  endfacet
  facet normal 0 0 1
    outer loop
      vertex 9.63937 5.29929 2
      vertex 9.63937 -5.29929 2
      vertex 9.9531 -4.68357 2
    endloop
  endfacet
  facet normal 0 0 1
    outer loop
      vertex 9.28761 5.89409 2
      vertex 9.63937 -5.29929 2
      vertex 9.63937 5.29929 2
    endloop
  endfacet
  facet normal 0 0 1
    outer loop
      vertex 9.28761 5.89409 2
      vertex 9.28761 -5.89409 2
      vertex 9.63937 -5.29929 2
    endloop
  endfacet
  facet normal 0 0 1
    outer loop
      vertex 8.89919 6.46564 2
      vertex 9.28761 -5.89409 2
      vertex 9.28761 5.89409 2
    endloop
  endfacet
  facet normal 0 0 1
    outer loop
      vertex 8.89919 6.46564 2
      vertex 8.89919 -6.46564 2
      vertex 9.28761 -5.89409 2
    endloop
  endfacet
  facet normal 0 0 1
    outer loop
      vertex 8.47565 7.01166 2
      vertex 8.89919 -6.46564 2
      vertex 8.89919 6.46564 2
    endloop
  endfacet
  facet normal 0 0 1
    outer loop
      vertex 8.47565 7.01166 2
      vertex 8.47565 -7.01166 2
      vertex 8.89919 -6.46564 2
    endloop
  endfacet
  facet normal 0 0 1
    outer loop
      vertex 8.01865 7.53002 2
      vertex 8.47565 -7.01166 2
      vertex 8.47565 7.01166 2
    endloop
  endfacet
  facet normal 0 0 1
    outer loop
      vertex 8.01865 7.53002 2
      vertex 8.01865 -7.53002 2
      vertex 8.47565 -7.01166 2
    endloop
  endfacet
  facet normal 0 0 1
    outer loop
      vertex 7.53002 8.01865 2
      vertex 8.01865 -7.53002 2
      vertex 8.01865 7.53002 2
    endloop
  endfacet
  facet normal 0 0 1
    outer loop
      vertex 7.53002 8.01865 2
      vertex 7.53002 -8.01865 2
      vertex 8.01865 -7.53002 2
    endloop
  endfacet
  facet normal 0 0 1
    outer loop
      vertex 7.01166 8.47565 2
      vertex 7.53002 -8.01865 2
      vertex 7.53002 8.01865 2
    endloop
  endfacet
  facet normal 0 0 1
    outer loop
      vertex 7.01166 8.47565 2
      vertex 7.01166 -8.47565 2
      vertex 7.53002 -8.01865 2
    endloop
  endfacet
  facet normal 0 0 1
    outer loop
      vertex 6.46564 8.89919 2
      vertex 7.01166 -8.47565 2
      vertex 7.01166 8.47565 2
    endloop
  endfacet
  facet normal 0 0 1
    outer loop
      vertex 6.46564 8.89919 2
      vertex 6.46564 -8.89919 2
      vertex 7.01166 -8.47565 2
    endloop
  endfacet
  facet normal 0 0 1
    outer loop
      vertex 5.89409 9.28761 2
      vertex 6.46564 -8.89919 2
      vertex 6.46564 8.89919 2
    endloop
  endfacet
  facet normal 0 0 1
    outer loop
      vertex 5.89409 9.28761 2
      vertex 5.89409 -9.28761 2
      vertex 6.46564 -8.89919 2
    endloop
  endfacet
  facet normal 0 0 1
    outer loop
      vertex 5.29929 9.63937 2
      vertex 5.89409 -9.28761 2
      vertex 5.89409 9.28761 2
    endloop
  endfacet
  facet normal 0 0 1
    outer loop
      vertex 5.29929 9.63937 2
      vertex 5.29929 -9.63937 2
      vertex 5.89409 -9.28761 2
    endloop
  endfacet
  facet normal 0 0 1
    outer loop
      vertex 4.68357 9.9531 2
      vertex 5.29929 -9.63937 2
      vertex 5.29929 9.63937 2
    endloop
  endfacet
  facet normal 0 0 1
    outer loop
      vertex 4.68357 9.9531 2
      vertex 4.68357 -9.9531 2
      vertex 5.29929 -9.63937 2
    endloop
  endfacet
  facet normal 0 0 1
    outer loop
      vertex 4.04937 10.2275 2
      vertex 4.68357 -9.9531 2
      vertex 4.68357 9.9531 2
    endloop
  endfacet
  facet normal 0 0 1
    outer loop
      vertex 4.04937 10.2275 2
      vertex 4.04937 -10.2275 2
      vertex 4.68357 -9.9531 2
    endloop
  endfacet
  facet normal 0 0 1
    outer loop
      vertex 3.39919 10.4616 2
      vertex 4.04937 -10.2275 2
      vertex 4.04937 10.2275 2
    endloop
  endfacet
  facet normal 0 0 1
    outer loop
      vertex 3.39919 10.4616 2
      vertex 3.39919 -10.4616 2
      vertex 4.04937 -10.2275 2
    endloop
  endfacet
  facet normal 0 0 1
    outer loop
      vertex 2.73559 10.6544 2
      vertex 3.39919 -10.4616 2
      vertex 3.39919 10.4616 2
    endloop
  endfacet
  facet normal 0 0 1
    outer loop
      vertex 2.73559 10.6544 2
      vertex 2.73559 -10.6544 2
      vertex 3.39919 -10.4616 2
    endloop
  endfacet
  facet normal 0 0 1
    outer loop
      vertex 2.06119 10.8052 2
      vertex 2.73559 -10.6544 2
      vertex 2.73559 10.6544 2
    endloop
  endfacet
  facet normal 0 0 1
    outer loop
      vertex 2.06119 10.8052 2
      vertex 2.06119 -10.8052 2
      vertex 2.73559 -10.6544 2
    endloop
  endfacet
  facet normal 0 0 1
    outer loop
      vertex 1.37866 10.9133 2
      vertex 2.06119 -10.8052 2
      vertex 2.06119 10.8052 2
    endloop
  endfacet
  facet normal 0 0 1
    outer loop
      vertex 1.37866 10.9133 2
      vertex 1.37866 -10.9133 2
      vertex 2.06119 -10.8052 2
    endloop
  endfacet
  facet normal 0 0 1
    outer loop
      vertex 0.690695 10.9783 2
      vertex 1.37866 -10.9133 2
      vertex 1.37866 10.9133 2
    endloop
  endfacet
  facet normal 0 0 1
    outer loop
      vertex 0.690695 10.9783 2
      vertex 0.690695 -10.9783 2
      vertex 1.37866 -10.9133 2
    endloop
  endfacet
  facet normal 0 0 1
    outer loop
      vertex 0 11 2
      vertex 0.690695 -10.9783 2
      vertex 0.690695 10.9783 2
    endloop
  endfacet
  facet normal 0 0 1
    outer loop
      vertex 0 11 2
      vertex 0 -11 2
      vertex 0.690695 -10.9783 2
    endloop
  endfacet
  facet normal -0 0 1
    outer loop
      vertex -0.690695 10.9783 2
      vertex 0 -11 2
      vertex 0 11 2
    endloop
  endfacet
  facet normal 0 0 1
    outer loop
      vertex -0.690695 10.9783 2
      vertex -0.690695 -10.9783 2
      vertex 0 -11 2
    endloop
  endfacet
  facet normal -0 0 1
    outer loop
      vertex -1.37866 10.9133 2
      vertex -0.690695 -10.9783 2
      vertex -0.690695 10.9783 2
    endloop
  endfacet
  facet normal 0 0 1
    outer loop
      vertex -1.37866 10.9133 2
      vertex -1.37866 -10.9133 2
      vertex -0.690695 -10.9783 2
    endloop
  endfacet
  facet normal -0 0 1
    outer loop
      vertex -2.06119 10.8052 2
      vertex -1.37866 -10.9133 2
      vertex -1.37866 10.9133 2
    endloop
  endfacet
  facet normal 0 0 1
    outer loop
      vertex -2.06119 10.8052 2
      vertex -2.06119 -10.8052 2
      vertex -1.37866 -10.9133 2
    endloop
  endfacet
  facet normal -0 0 1
    outer loop
      vertex -2.73559 10.6544 2
      vertex -2.06119 -10.8052 2
      vertex -2.06119 10.8052 2
    endloop
  endfacet
  facet normal 0 0 1
    outer loop
      vertex -2.73559 10.6544 2
      vertex -2.73559 -10.6544 2
      vertex -2.06119 -10.8052 2
    endloop
  endfacet
  facet normal -0 0 1
    outer loop
      vertex -3.39919 10.4616 2
      vertex -2.73559 -10.6544 2
      vertex -2.73559 10.6544 2
    endloop
  endfacet
  facet normal 0 0 1
    outer loop
      vertex -3.39919 10.4616 2
      vertex -3.39919 -10.4616 2
      vertex -2.73559 -10.6544 2
    endloop
  endfacet
  facet normal -0 0 1
    outer loop
      vertex -4.04937 10.2275 2
      vertex -3.39919 -10.4616 2
      vertex -3.39919 10.4616 2
    endloop
  endfacet
  facet normal 0 0 1
    outer loop
      vertex -4.04937 10.2275 2
      vertex -4.04937 -10.2275 2
      vertex -3.39919 -10.4616 2
    endloop
  endfacet
  facet normal -0 0 1
    outer loop
      vertex -4.68357 9.9531 2
      vertex -4.04937 -10.2275 2
      vertex -4.04937 10.2275 2
    endloop
  endfacet
  facet normal 0 0 1
    outer loop
      vertex -4.68357 9.9531 2
      vertex -4.68357 -9.9531 2
      vertex -4.04937 -10.2275 2
    endloop
  endfacet
  facet normal -0 0 1
    outer loop
      vertex -5.29929 9.63937 2
      vertex -4.68357 -9.9531 2
      vertex -4.68357 9.9531 2
    endloop
  endfacet
  facet normal 0 0 1
    outer loop
      vertex -5.29929 9.63937 2
      vertex -5.29929 -9.63937 2
      vertex -4.68357 -9.9531 2
    endloop
  endfacet
  facet normal -0 0 1
    outer loop
      vertex -5.89409 9.28761 2
      vertex -5.29929 -9.63937 2
      vertex -5.29929 9.63937 2
    endloop
  endfacet
  facet normal 0 0 1
    outer loop
      vertex -5.89409 9.28761 2
      vertex -5.89409 -9.28761 2
      vertex -5.29929 -9.63937 2
    endloop
  endfacet
  facet normal -0 0 1
    outer loop
      vertex -6.46564 8.89919 2
      vertex -5.89409 -9.28761 2
      vertex -5.89409 9.28761 2
    endloop
  endfacet
  facet normal 0 0 1
    outer loop
      vertex -6.46564 8.89919 2
      vertex -6.46564 -8.89919 2
      vertex -5.89409 -9.28761 2
    endloop
  endfacet
  facet normal -0 0 1
    outer loop
      vertex -7.01166 8.47565 2
      vertex -6.46564 -8.89919 2
      vertex -6.46564 8.89919 2
    endloop
  endfacet
  facet normal 0 0 1
    outer loop
      vertex -7.01166 8.47565 2
      vertex -7.01166 -8.47565 2
      vertex -6.46564 -8.89919 2
    endloop
  endfacet
  facet normal -0 0 1
    outer loop
      vertex -7.53002 8.01865 2
      vertex -7.01166 -8.47565 2
      vertex -7.01166 8.47565 2
    endloop
  endfacet
  facet normal 0 0 1
    outer loop
      vertex -7.53002 8.01865 2
      vertex -7.53002 -8.01865 2
      vertex -7.01166 -8.47565 2
    endloop
  endfacet
  facet normal -0 0 1
    outer loop
      vertex -8.01865 7.53002 2
      vertex -7.53002 -8.01865 2
      vertex -7.53002 8.01865 2
    endloop
  endfacet
  facet normal 0 0 1
    outer loop
      vertex -8.01865 7.53002 2
      vertex -8.01865 -7.53002 2
      vertex -7.53002 -8.01865 2
    endloop
  endfacet
  facet normal -0 0 1
    outer loop
      vertex -8.47565 7.01166 2
      vertex -8.01865 -7.53002 2
      vertex -8.01865 7.53002 2
    endloop
  endfacet
  facet normal 0 0 1
    outer loop
      vertex -8.47565 7.01166 2
      vertex -8.47565 -7.01166 2
      vertex -8.01865 -7.53002 2
    endloop
  endfacet
  facet normal -0 0 1
    outer loop
      vertex -8.89919 6.46564 2
      vertex -8.47565 -7.01166 2
      vertex -8.47565 7.01166 2
    endloop
  endfacet
  facet normal 0 0 1
    outer loop
      vertex -8.89919 6.46564 2
      vertex -8.89919 -6.46564 2
      vertex -8.47565 -7.01166 2
    endloop
  endfacet
  facet normal -0 0 1
    outer loop
      vertex -9.28761 5.89409 2
      vertex -8.89919 -6.46564 2
      vertex -8.89919 6.46564 2
    endloop
  endfacet
  facet normal 0 0 1
    outer loop
      vertex -9.28761 5.89409 2
      vertex -9.28761 -5.89409 2
      vertex -8.89919 -6.46564 2
    endloop
  endfacet
  facet normal -0 0 1
    outer loop
      vertex -9.63937 5.29929 2
      vertex -9.28761 -5.89409 2
      vertex -9.28761 5.89409 2
    endloop
  endfacet
  facet normal 0 0 1
    outer loop
      vertex -9.63937 5.29929 2
      vertex -9.63937 -5.29929 2
      vertex -9.28761 -5.89409 2
    endloop
  endfacet
  facet normal -0 0 1
    outer loop
      vertex -9.9531 4.68357 2
      vertex -9.63937 -5.29929 2
      vertex -9.63937 5.29929 2
    endloop
  endfacet
  facet normal 0 0 1
    outer loop
      vertex -9.9531 4.68357 2
      vertex -9.9531 -4.68357 2
      vertex -9.63937 -5.29929 2
    endloop
  endfacet
  facet normal -0 0 1
    outer loop
      vertex -10.2275 4.04937 2
      vertex -9.9531 -4.68357 2
      vertex -9.9531 4.68357 2
    endloop
  endfacet
  facet normal 0 0 1
    outer loop
      vertex -10.2275 4.04937 2
      vertex -10.2275 -4.04937 2
      vertex -9.9531 -4.68357 2
    endloop
  endfacet
  facet normal -0 0 1
    outer loop
      vertex -10.4616 3.39919 2
      vertex -10.2275 -4.04937 2
      vertex -10.2275 4.04937 2
    endloop
  endfacet
  facet normal 0 0 1
    outer loop
      vertex -10.4616 3.39919 2
      vertex -10.4616 -3.39919 2
      vertex -10.2275 -4.04937 2
    endloop
  endfacet
  facet normal -0 0 1
    outer loop
      vertex -10.6544 2.73559 2
      vertex -10.4616 -3.39919 2
      vertex -10.4616 3.39919 2
    endloop
  endfacet
  facet normal 0 0 1
    outer loop
      vertex -10.6544 2.73559 2
      vertex -10.6544 -2.73559 2
      vertex -10.4616 -3.39919 2
    endloop
  endfacet
  facet normal -0 0 1
    outer loop
      vertex -10.8052 2.06119 2
      vertex -10.6544 -2.73559 2
      vertex -10.6544 2.73559 2
    endloop
  endfacet
  facet normal 0 0 1
    outer loop
      vertex -10.8052 2.06119 2
      vertex -10.8052 -2.06119 2
      vertex -10.6544 -2.73559 2
    endloop
  endfacet
  facet normal -0 0 1
    outer loop
      vertex -10.9133 1.37866 2
      vertex -10.8052 -2.06119 2
      vertex -10.8052 2.06119 2
    endloop
  endfacet
  facet normal 0 0 1
    outer loop
      vertex -10.9133 1.37866 2
      vertex -10.9133 -1.37866 2
      vertex -10.8052 -2.06119 2
    endloop
  endfacet
  facet normal -0 0 1
    outer loop
      vertex -10.9783 0.690695 2
      vertex -10.9133 -1.37866 2
      vertex -10.9133 1.37866 2
    endloop
  endfacet
  facet normal 0 0 1
    outer loop
      vertex -10.9783 0.690695 2
      vertex -10.9783 -0.690695 2
      vertex -10.9133 -1.37866 2
    endloop
  endfacet
  facet normal 0 -0 1
    outer loop
      vertex -10.9783 -0.690695 2
      vertex -10.9783 0.690695 2
      vertex -11 0 2
    endloop
  endfacet
  facet normal 0.995562 0.0941079 0
    outer loop
      vertex -10.9133 -1.37866 15
      vertex -10.9783 -0.690695 2
      vertex -10.9783 -0.690695 15
    endloop
  endfacet
  facet normal 0.995562 0.0941079 0
    outer loop
      vertex -10.9783 -0.690695 2
      vertex -10.9133 -1.37866 15
      vertex -10.9133 -1.37866 2
    endloop
  endfacet
  facet normal 0.960294 0.278991 0
    outer loop
      vertex -10.4616 -3.39919 15
      vertex -10.6544 -2.73559 2
      vertex -10.6544 -2.73559 15
    endloop
  endfacet
  facet normal 0.960294 0.278991 0
    outer loop
      vertex -10.6544 -2.73559 2
      vertex -10.4616 -3.39919 15
      vertex -10.4616 -3.39919 2
    endloop
  endfacet
  facet normal 0.940881 0.338738 0
    outer loop
      vertex -10.2275 -4.04937 15
      vertex -10.4616 -3.39919 2
      vertex -10.4616 -3.39919 15
    endloop
  endfacet
  facet normal 0.940881 0.338738 0
    outer loop
      vertex -10.4616 -3.39919 2
      vertex -10.2275 -4.04937 15
      vertex -10.2275 -4.04937 2
    endloop
  endfacet
  facet normal 0.975917 0.218144 0
    outer loop
      vertex -10.6544 -2.73559 15
      vertex -10.8052 -2.06119 2
      vertex -10.8052 -2.06119 15
    endloop
  endfacet
  facet normal 0.975917 0.218144 0
    outer loop
      vertex -10.8052 -2.06119 2
      vertex -10.6544 -2.73559 15
      vertex -10.6544 -2.73559 2
    endloop
  endfacet
  facet normal 0.891006 0.453991 0
    outer loop
      vertex -9.63937 -5.29929 15
      vertex -9.9531 -4.68357 2
      vertex -9.9531 -4.68357 15
    endloop
  endfacet
  facet normal 0.891006 0.453991 0
    outer loop
      vertex -9.9531 -4.68357 2
      vertex -9.63937 -5.29929 15
      vertex -9.63937 -5.29929 2
    endloop
  endfacet
  facet normal 0.750112 0.661311 0
    outer loop
      vertex -8.01865 -7.53002 15
      vertex -8.47565 -7.01166 2
      vertex -8.47565 -7.01166 15
    endloop
  endfacet
  facet normal 0.750112 0.661311 0
    outer loop
      vertex -8.47565 -7.01166 2
      vertex -8.01865 -7.53002 15
      vertex -8.01865 -7.53002 2
    endloop
  endfacet
  facet normal 0.827081 0.562083 0
    outer loop
      vertex -8.89919 -6.46564 15
      vertex -9.28761 -5.89409 2
      vertex -9.28761 -5.89409 15
    endloop
  endfacet
  facet normal 0.827081 0.562083 0
    outer loop
      vertex -9.28761 -5.89409 2
      vertex -8.89919 -6.46564 15
      vertex -8.89919 -6.46564 2
    endloop
  endfacet
  facet normal 0.790155 0.612907 0
    outer loop
      vertex -8.47565 -7.01166 15
      vertex -8.89919 -6.46564 2
      vertex -8.89919 -6.46564 15
    endloop
  endfacet
  facet normal 0.790155 0.612907 0
    outer loop
      vertex -8.89919 -6.46564 2
      vertex -8.47565 -7.01166 15
      vertex -8.47565 -7.01166 2
    endloop
  endfacet
  facet normal -0.0941079 -0.995562 0
    outer loop
      vertex 0.690695 10.9783 2
      vertex 1.37866 10.9133 15
      vertex 0.690695 10.9783 15
    endloop
  endfacet
  facet normal -0.0941079 -0.995562 -0
    outer loop
      vertex 1.37866 10.9133 15
      vertex 0.690695 10.9783 2
      vertex 1.37866 10.9133 2
    endloop
  endfacet
  facet normal 0.860742 -0.509041 0
    outer loop
      vertex -9.63937 5.29929 15
      vertex -9.28761 5.89409 2
      vertex -9.28761 5.89409 15
    endloop
  endfacet
  facet normal 0.860742 -0.509041 0
    outer loop
      vertex -9.28761 5.89409 2
      vertex -9.63937 5.29929 15
      vertex -9.63937 5.29929 2
    endloop
  endfacet
  facet normal -0.987688 0.156434 0
    outer loop
      vertex 10.8052 -2.06119 2
      vertex 10.9133 -1.37866 15
      vertex 10.9133 -1.37866 2
    endloop
  endfacet
  facet normal -0.987688 0.156434 0
    outer loop
      vertex 10.9133 -1.37866 15
      vertex 10.8052 -2.06119 2
      vertex 10.8052 -2.06119 15
    endloop
  endfacet
  facet normal -0.278991 0.960294 0
    outer loop
      vertex 3.39919 -10.4616 2
      vertex 2.73559 -10.6544 15
      vertex 3.39919 -10.4616 15
    endloop
  endfacet
  facet normal -0.278991 0.960294 0
    outer loop
      vertex 2.73559 -10.6544 15
      vertex 3.39919 -10.4616 2
      vertex 2.73559 -10.6544 2
    endloop
  endfacet
  facet normal -0.661311 0.750112 0
    outer loop
      vertex 7.53002 -8.01865 2
      vertex 7.01166 -8.47565 15
      vertex 7.53002 -8.01865 15
    endloop
  endfacet
  facet normal -0.661311 0.750112 0
    outer loop
      vertex 7.01166 -8.47565 15
      vertex 7.53002 -8.01865 2
      vertex 7.01166 -8.47565 2
    endloop
  endfacet
  facet normal -0.891006 0.453991 0
    outer loop
      vertex 9.63937 -5.29929 2
      vertex 9.9531 -4.68357 15
      vertex 9.9531 -4.68357 2
    endloop
  endfacet
  facet normal -0.891006 0.453991 0
    outer loop
      vertex 9.9531 -4.68357 15
      vertex 9.63937 -5.29929 2
      vertex 9.63937 -5.29929 15
    endloop
  endfacet
  facet normal 0.338738 0.940881 -0
    outer loop
      vertex -3.39919 -10.4616 2
      vertex -4.04937 -10.2275 15
      vertex -3.39919 -10.4616 15
    endloop
  endfacet
  facet normal 0.338738 0.940881 0
    outer loop
      vertex -4.04937 -10.2275 15
      vertex -3.39919 -10.4616 2
      vertex -4.04937 -10.2275 2
    endloop
  endfacet
  facet normal 0.218144 0.975917 -0
    outer loop
      vertex -2.06119 -10.8052 2
      vertex -2.73559 -10.6544 15
      vertex -2.06119 -10.8052 15
    endloop
  endfacet
  facet normal 0.218144 0.975917 0
    outer loop
      vertex -2.73559 -10.6544 15
      vertex -2.06119 -10.8052 2
      vertex -2.73559 -10.6544 2
    endloop
  endfacet
  facet normal 0.860742 0.509041 0
    outer loop
      vertex -9.28761 -5.89409 15
      vertex -9.63937 -5.29929 2
      vertex -9.63937 -5.29929 15
    endloop
  endfacet
  facet normal 0.860742 0.509041 0
    outer loop
      vertex -9.63937 -5.29929 2
      vertex -9.28761 -5.89409 15
      vertex -9.28761 -5.89409 2
    endloop
  endfacet
  facet normal -0.995562 0.0941079 0
    outer loop
      vertex 10.9133 -1.37866 2
      vertex 10.9783 -0.690695 15
      vertex 10.9783 -0.690695 2
    endloop
  endfacet
  facet normal -0.995562 0.0941079 0
    outer loop
      vertex 10.9783 -0.690695 15
      vertex 10.9133 -1.37866 2
      vertex 10.9133 -1.37866 15
    endloop
  endfacet
  facet normal -0.975917 0.218144 0
    outer loop
      vertex 10.6544 -2.73559 2
      vertex 10.8052 -2.06119 15
      vertex 10.8052 -2.06119 2
    endloop
  endfacet
  facet normal -0.975917 0.218144 0
    outer loop
      vertex 10.8052 -2.06119 15
      vertex 10.6544 -2.73559 2
      vertex 10.6544 -2.73559 15
    endloop
  endfacet
endsolid OpenSCAD_Model
